STARTFONT 2.1
COMMENT
COMMENT Converted from OpenType font "RuthlessSketch_Italic.ttf" by "otf2bdf 3.0".
COMMENT
FONT -FreeType-Ruthless Sketch-Medium-I-Normal--28-200-100-100-P-150-ISO10646-1
SIZE 20 100 100
FONTBOUNDINGBOX 37 30 -13 -5
STARTPROPERTIES 19
FOUNDRY "FreeType"
FAMILY_NAME "Ruthless Sketch"
WEIGHT_NAME "Medium"
SLANT "I"
SETWIDTH_NAME "Normal"
ADD_STYLE_NAME ""
PIXEL_SIZE 28
POINT_SIZE 200
RESOLUTION_X 100
RESOLUTION_Y 100
SPACING "P"
AVERAGE_WIDTH 150
CHARSET_REGISTRY "ISO10646"
CHARSET_ENCODING "1"
FONT_ASCENT 26
FONT_DESCENT 5
COPYRIGHT "© 2024 GGBotNet. All Rights Reserved."
_OTF_FONTFILE "RuthlessSketch_Italic.ttf"
_OTF_PSNAME "RuthlessSketch-Italic"
ENDPROPERTIES
CHARS 1105
STARTCHAR 0020
ENCODING 32
SWIDTH 288 0
DWIDTH 8 0
BBX 0 0 0 0
BITMAP
ENDCHAR
STARTCHAR 0021
ENCODING 33
SWIDTH 288 0
DWIDTH 8 0
BBX 10 21 2 0
BITMAP
03C0
1FC0
3F80
3F80
3F80
3F00
3F00
3E00
3E00
3E00
3C00
3C00
3C00
7C00
0000
0000
3800
7800
F800
F800
F800
ENDCHAR
STARTCHAR 0022
ENCODING 34
SWIDTH 396 0
DWIDTH 11 0
BBX 11 10 4 10
BITMAP
79C0
FBE0
F3C0
F3C0
F3C0
E380
E380
C300
C300
C200
ENDCHAR
STARTCHAR 0023
ENCODING 35
SWIDTH 504 0
DWIDTH 14 0
BBX 16 19 1 1
BITMAP
00E3
00E7
01C7
01CE
03FF
3FFF
3FFF
3FFE
0F38
0E70
3FFE
7FFC
7FFC
7FFC
31C0
73C0
6380
E380
4700
ENDCHAR
STARTCHAR 0024
ENCODING 36
SWIDTH 504 0
DWIDTH 14 0
BBX 16 26 1 -3
BITMAP
0030
0070
00F0
00F0
01FC
03FE
0FFF
1FFF
1FFF
1FE4
1FE0
1FC0
1FF0
07F8
03F8
03F8
3FF8
7FF8
7FF0
7FE0
FFE0
FFC0
3F00
0F00
0E00
0E00
ENDCHAR
STARTCHAR 0025
ENCODING 37
SWIDTH 540 0
DWIDTH 15 0
BBX 16 19 2 0
BITMAP
0407
1F0E
3F0E
331C
7338
7378
7E70
3EE0
11C0
0398
07BC
0F7C
0ECE
1CCC
38CC
70FC
F0F8
E000
C000
ENDCHAR
STARTCHAR 0026
ENCODING 38
SWIDTH 504 0
DWIDTH 14 0
BBX 14 19 2 0
BITMAP
07C0
1FE0
1FE0
1CC0
1DC0
1F80
1F80
1FBC
3FB8
7FF8
73F0
F1F0
F0F0
F1F0
FFF8
FFF8
FFB0
7F10
0800
ENDCHAR
STARTCHAR 0027
ENCODING 39
SWIDTH 180 0
DWIDTH 5 0
BBX 5 10 4 10
BITMAP
78
F8
F8
F8
F8
F0
F0
E0
E0
C0
ENDCHAR
STARTCHAR 0028
ENCODING 40
SWIDTH 324 0
DWIDTH 9 0
BBX 12 26 2 -3
BITMAP
00E0
01F0
03E0
0780
0F00
1E00
1C00
3C00
3800
7800
7000
7000
7000
F000
F000
F000
E000
E000
E000
F000
7000
7000
7800
3C00
1E00
1800
ENDCHAR
STARTCHAR 0029
ENCODING 41
SWIDTH 324 0
DWIDTH 9 0
BBX 12 26 0 -4
BITMAP
0380
0780
03C0
01C0
01E0
00E0
00E0
00F0
00F0
00F0
00F0
00E0
00E0
00E0
01E0
01E0
01C0
03C0
0380
0780
0F00
1E00
3C00
7800
F000
2000
ENDCHAR
STARTCHAR 002A
ENCODING 42
SWIDTH 324 0
DWIDTH 9 0
BBX 8 8 4 12
BITMAP
08
6B
7E
3C
7C
F6
90
30
ENDCHAR
STARTCHAR 002B
ENCODING 43
SWIDTH 468 0
DWIDTH 13 0
BBX 13 12 2 4
BITMAP
03C0
03C0
03C0
0780
7FF8
7FF8
7FF8
FFF8
0F00
0F00
0F00
0F00
ENDCHAR
STARTCHAR 002C
ENCODING 44
SWIDTH 180 0
DWIDTH 5 0
BBX 7 9 -1 -5
BITMAP
0C
3E
3E
3E
3C
18
F0
F0
60
ENDCHAR
STARTCHAR 002D
ENCODING 45
SWIDTH 360 0
DWIDTH 10 0
BBX 11 4 2 8
BITMAP
7FE0
7FE0
FFC0
FFC0
ENDCHAR
STARTCHAR 002E
ENCODING 46
SWIDTH 180 0
DWIDTH 5 0
BBX 5 5 1 0
BITMAP
30
78
F8
F8
F0
ENDCHAR
STARTCHAR 002F
ENCODING 47
SWIDTH 432 0
DWIDTH 12 0
BBX 16 23 0 -2
BITMAP
0004
000F
000F
001E
003C
003C
0078
00F8
00F0
01F0
01E0
03E0
07C0
07C0
0F80
1F80
1F00
3F00
3E00
7E00
7C00
F800
8800
ENDCHAR
STARTCHAR 0030
ENCODING 48
SWIDTH 396 0
DWIDTH 11 0
BBX 11 19 2 1
BITMAP
0F00
0F80
1FC0
1FE0
3FE0
3FE0
7DE0
79E0
79E0
F9E0
F9E0
FBC0
FFC0
FF80
7F80
7F80
7F00
3E00
1E00
ENDCHAR
STARTCHAR 0031
ENCODING 49
SWIDTH 396 0
DWIDTH 11 0
BBX 10 18 4 1
BITMAP
0380
0FC0
3F80
FF80
FF80
FF80
6F80
1F80
1F00
1F00
3F00
3F00
3F00
7F00
7F00
7F00
FF00
7F00
ENDCHAR
STARTCHAR 0032
ENCODING 50
SWIDTH 504 0
DWIDTH 14 0
BBX 13 19 2 0
BITMAP
07C0
0FF0
1FF0
3FF0
3DF0
18F0
00E0
01E0
01C0
03C0
0780
0FF8
0FF8
1FF8
3FF0
7FF0
FFE0
FF80
1C00
ENDCHAR
STARTCHAR 0033
ENCODING 51
SWIDTH 468 0
DWIDTH 13 0
BBX 13 19 1 0
BITMAP
03E0
0FE0
0FE0
05E0
01C0
0380
07C0
0FF0
1FF8
1FF8
0078
0038
0038
0078
00F0
FFF0
FFE0
3FC0
1F00
ENDCHAR
STARTCHAR 0034
ENCODING 52
SWIDTH 432 0
DWIDTH 12 0
BBX 12 19 2 0
BITMAP
0380
0780
0F00
0F00
1E00
1E00
3C00
3FF0
7FF0
7FF0
7FE0
E380
0700
0F00
0F00
1F00
1F00
3F00
3F00
ENDCHAR
STARTCHAR 0035
ENCODING 53
SWIDTH 468 0
DWIDTH 13 0
BBX 15 19 1 0
BITMAP
03FE
03FE
03FC
0780
0780
0FC0
0FF0
0FF0
1FF8
00F8
00FC
007C
0078
00F8
C0F8
FBF0
FFE0
7FC0
1F80
ENDCHAR
STARTCHAR 0036
ENCODING 54
SWIDTH 468 0
DWIDTH 13 0
BBX 14 20 2 -1
BITMAP
0078
01FC
07FC
0FD0
1E00
3E00
3C00
7FC0
7FE0
7FF0
FFF8
F8F8
F0F8
F0F8
F0F0
F1F0
FFE0
7FC0
3F80
0C00
ENDCHAR
STARTCHAR 0037
ENCODING 55
SWIDTH 396 0
DWIDTH 11 0
BBX 14 18 1 1
BITMAP
07FC
1FFC
1FFC
1FF8
1FF8
2078
00F0
01F0
03E0
07E0
07E0
0FC0
1FC0
3F80
3F80
7F00
FF00
FC00
ENDCHAR
STARTCHAR 0038
ENCODING 56
SWIDTH 468 0
DWIDTH 13 0
BBX 13 20 2 0
BITMAP
00C0
03F0
0FF0
0FF0
0E70
0EF0
0FE0
1FE0
1FE0
3FF0
7DF0
78F8
F878
F078
F8F8
FFF0
FFF0
FFE0
7FC0
1F00
ENDCHAR
STARTCHAR 0039
ENCODING 57
SWIDTH 432 0
DWIDTH 12 0
BBX 13 19 2 0
BITMAP
01C0
1FF8
1FF8
3EF8
3C78
7878
7878
7DF8
7FF8
3FF0
1FF0
00F0
00F0
81E0
E3E0
FFE0
FFC0
FF80
1F00
ENDCHAR
STARTCHAR 003A
ENCODING 58
SWIDTH 180 0
DWIDTH 5 0
BBX 7 14 1 0
BITMAP
0C
3E
3E
3E
3C
00
00
00
00
30
F8
F8
F8
F0
ENDCHAR
STARTCHAR 003B
ENCODING 59
SWIDTH 180 0
DWIDTH 5 0
BBX 9 18 -1 -5
BITMAP
0300
0780
0F80
0F80
0F00
0000
0000
0000
0000
0C00
3E00
3E00
3E00
3C00
1800
F000
F000
6000
ENDCHAR
STARTCHAR 003C
ENCODING 60
SWIDTH 468 0
DWIDTH 13 0
BBX 14 15 2 3
BITMAP
000C
003C
01FC
07FC
1FF8
7FF0
7E00
FC00
7FC0
3FF0
1FF0
0FF0
03E0
01E0
0060
ENDCHAR
STARTCHAR 003D
ENCODING 61
SWIDTH 468 0
DWIDTH 13 0
BBX 14 10 2 5
BITMAP
0BFC
7FFC
7FFC
7FF8
0000
0000
07F8
FFF0
FFF0
FFF0
ENDCHAR
STARTCHAR 003E
ENCODING 62
SWIDTH 468 0
DWIDTH 13 0
BBX 14 15 1 2
BITMAP
1C00
1F00
1F80
1FE0
3FF0
1FF8
03FC
007C
07FC
7FF8
7FC0
7F00
FC00
F000
C000
ENDCHAR
STARTCHAR 003F
ENCODING 63
SWIDTH 432 0
DWIDTH 12 0
BBX 12 20 4 0
BITMAP
1F80
3FF0
7FF0
FFF0
F1F0
C1F0
01E0
03E0
0FC0
3FC0
7F00
7C00
7800
7800
0000
0000
F000
F800
F000
F000
ENDCHAR
STARTCHAR 0040
ENCODING 64
SWIDTH 648 0
DWIDTH 18 0
BBX 18 24 2 -4
BITMAP
007E00
03FF80
07FFC0
0FFFC0
1FFFC0
3F87C0
3E07C0
7C3FC0
7C7FC0
78FFC0
F9E3C0
F9C3C0
FBC3C0
F3CF80
F3FF80
F1FE00
F0F800
F80000
F80800
FFFC00
FFFE00
FFFC00
7FF000
1FC000
ENDCHAR
STARTCHAR 0041
ENCODING 65
SWIDTH 612 0
DWIDTH 17 0
BBX 17 20 0 -1
BITMAP
000600
001E00
001E00
003E00
003E00
007E00
007E00
00FE00
01FE00
01FE00
03BE00
073F00
061F00
0FFF00
1FFF00
1F3F00
3E3F00
7C3F80
7C3F80
C00000
ENDCHAR
STARTCHAR 0042
ENCODING 66
SWIDTH 504 0
DWIDTH 14 0
BBX 12 19 3 0
BITMAP
1FC0
7FE0
7FE0
7FF0
7DF0
78F0
78E0
7DE0
7F80
7FE0
FFF0
FDF0
F8F0
F9F0
FBF0
FFE0
FFC0
FF80
F000
ENDCHAR
STARTCHAR 0043
ENCODING 67
SWIDTH 468 0
DWIDTH 13 0
BBX 15 19 2 0
BITMAP
00F0
07FC
0FFE
1FFC
3FFC
3FC0
7F00
7E00
7C00
7C00
FE10
FFF8
FFF0
FFF0
FFF0
7FF0
7FC0
7F80
0600
ENDCHAR
STARTCHAR 0044
ENCODING 68
SWIDTH 432 0
DWIDTH 12 0
BBX 12 19 3 0
BITMAP
3E00
7FC0
7FC0
7FE0
7FE0
FDF0
F8F0
F8F0
F8F0
F9E0
FBE0
FFC0
FF80
FF00
FF00
FE00
FC00
F000
8000
ENDCHAR
STARTCHAR 0045
ENCODING 69
SWIDTH 468 0
DWIDTH 13 0
BBX 11 19 4 0
BITMAP
7FE0
FFC0
FFC0
FF80
FF80
FE00
F800
F900
FF00
FF00
FC00
F800
FFC0
FFC0
FFC0
FFC0
FFC0
FF00
E000
ENDCHAR
STARTCHAR 0046
ENCODING 70
SWIDTH 504 0
DWIDTH 14 0
BBX 16 20 1 0
BITMAP
000C
07FF
1FFF
1FFF
1FFF
1F00
3F00
3E00
3FC0
3FC0
3FC0
7F80
7C00
7C00
7C00
F800
F800
F800
F800
F000
ENDCHAR
STARTCHAR 0047
ENCODING 71
SWIDTH 504 0
DWIDTH 14 0
BBX 15 19 1 0
BITMAP
00FC
01FE
03FE
07FE
0F8C
0F00
1E00
1C00
3C7E
3CFC
3CFC
7CFC
7CFC
7FFC
FFF8
FFF0
7FE0
3F80
1C00
ENDCHAR
STARTCHAR 0048
ENCODING 72
SWIDTH 540 0
DWIDTH 15 0
BBX 18 19 1 0
BITMAP
01E000
07E7C0
07E7C0
07C780
0FCF80
0FCF80
0F8F80
1FFF00
1FFF00
1FFF00
3FFF00
3FFF00
3FFE00
3E7E00
7E7E00
7E7C00
7E7C00
FC7C00
088000
ENDCHAR
STARTCHAR 0049
ENCODING 73
SWIDTH 324 0
DWIDTH 9 0
BBX 11 19 1 0
BITMAP
03C0
07E0
07E0
07E0
0FC0
0FC0
0FC0
1F80
1F80
1F80
1F80
3F00
3F00
3F00
3F00
7F00
7E00
FE00
F000
ENDCHAR
STARTCHAR 004A
ENCODING 74
SWIDTH 432 0
DWIDTH 12 0
BBX 15 19 1 0
BITMAP
007E
00FE
00FE
00FC
01FC
01FC
01FC
01FC
03FC
03F8
03F8
01F8
01F8
79F0
7BF0
FFE0
7FC0
7F80
1F00
ENDCHAR
STARTCHAR 004B
ENCODING 75
SWIDTH 540 0
DWIDTH 15 0
BBX 17 19 1 0
BITMAP
0FE300
0FE780
1FCF80
1FDF00
1FFE00
1FFC00
3FF800
3FF800
3FF000
3FE000
7FE000
7FF000
7FF000
7FF800
FF7800
FE7C00
FE7C00
FE3C00
FC2000
ENDCHAR
STARTCHAR 004C
ENCODING 76
SWIDTH 504 0
DWIDTH 14 0
BBX 14 19 1 0
BITMAP
01F8
03F8
07F0
07F0
07F0
0FE0
0FE0
0FC0
1FC0
1FC0
1F80
3F80
3F80
3FFC
7FF8
7FF8
7FF8
FFF8
FFE0
ENDCHAR
STARTCHAR 004D
ENCODING 77
SWIDTH 648 0
DWIDTH 18 0
BBX 18 19 1 0
BITMAP
020040
0301C0
0701C0
0783C0
0787C0
0FC7C0
0FCFC0
1FDFC0
1FFFC0
1FFFC0
3FFF80
3F6F80
3E1F80
7E1F80
7C1F80
7C3F80
F83F80
F83F80
F00400
ENDCHAR
STARTCHAR 004E
ENCODING 78
SWIDTH 540 0
DWIDTH 15 0
BBX 18 19 1 0
BITMAP
010100
07E7C0
07CFC0
0FCF80
0FCF80
1FCF80
1FDF00
1FDF00
3FDF00
3FDE00
3FFE00
3FFE00
7EFE00
7EFC00
7CFC00
FCFC00
FCFC00
F8F800
E02000
ENDCHAR
STARTCHAR 004F
ENCODING 79
SWIDTH 504 0
DWIDTH 14 0
BBX 14 19 2 0
BITMAP
03C0
07E0
0FF8
0FF8
1FFC
3FFC
3FFC
7E7C
7C7C
FC7C
FC7C
FCFC
FFFC
FFF8
FFF8
7FF0
7FF0
3FE0
1F80
ENDCHAR
STARTCHAR 0050
ENCODING 80
SWIDTH 468 0
DWIDTH 13 0
BBX 15 19 1 0
BITMAP
03F0
0FFC
0FFC
0FFE
1F3E
1F1E
1F1E
1F3E
3FFE
3FFC
3FF8
7FE0
7F00
7E00
FE00
FE00
FE00
FE00
FE00
ENDCHAR
STARTCHAR 0051
ENCODING 81
SWIDTH 612 0
DWIDTH 17 0
BBX 15 20 2 -1
BITMAP
03E0
07F0
0FF8
1FFC
1FFC
3E7E
3C3E
7C3E
7C3C
7C3C
FC7C
FFFC
FFF8
FFF8
FFF0
FFF8
7FFC
3FFC
04FE
00F8
ENDCHAR
STARTCHAR 0052
ENCODING 82
SWIDTH 576 0
DWIDTH 16 0
BBX 14 19 2 0
BITMAP
03E0
3FF8
3FFC
3F1C
3F1C
3F1C
7F1C
7F3C
7FF8
7FF0
7FE0
7FE0
7EF0
FEF0
FEF8
FE78
FE78
FE7C
FC78
ENDCHAR
STARTCHAR 0053
ENCODING 83
SWIDTH 504 0
DWIDTH 14 0
BBX 16 19 1 0
BITMAP
01FF
03FF
07FE
0FFE
0FFC
1FF8
1FF8
1F10
1F80
1FE0
0FF8
01F8
0078
20F8
FFF8
FFF8
FFF0
7FC0
3F80
ENDCHAR
STARTCHAR 0054
ENCODING 84
SWIDTH 576 0
DWIDTH 16 0
BBX 16 19 3 0
BITMAP
1FFE
7FFF
7FFF
7FFF
7FFF
FFFA
E3E0
03C0
07C0
0780
0780
0780
0F80
0F00
0F00
0F00
0F00
1E00
1E00
ENDCHAR
STARTCHAR 0055
ENCODING 85
SWIDTH 540 0
DWIDTH 15 0
BBX 16 18 2 1
BITMAP
0F0F
0F0F
1E0F
1E0F
3E1F
3C1F
7C1E
7C3E
7C3E
FC3E
FE7C
FFFC
FFF8
FFF8
FFF0
7FE0
7FC0
3F80
ENDCHAR
STARTCHAR 0056
ENCODING 86
SWIDTH 576 0
DWIDTH 16 0
BBX 16 17 4 1
BITMAP
F03F
7E3E
7E3E
7E7E
7E7C
7E7C
7EF8
3EF8
3EF0
3FF0
1FF0
1FE0
0FE0
0FC0
07C0
07C0
0380
ENDCHAR
STARTCHAR 0057
ENCODING 87
SWIDTH 720 0
DWIDTH 20 0
BBX 19 19 4 0
BITMAP
7001A0
F861E0
FC63E0
FC67C0
FCE7C0
FCEF80
FCFF80
FFFF80
7FFF00
7FFF00
7FFE00
7FFE00
3F7E00
3E7C00
3E7C00
3C7C00
1C7800
187000
080000
ENDCHAR
STARTCHAR 0058
ENCODING 88
SWIDTH 576 0
DWIDTH 16 0
BBX 17 19 2 0
BITMAP
000780
1E0F80
3F0F80
3F1F00
3F3E00
3F3E00
1FFC00
1FFC00
0FF800
0FF000
07F000
0FF000
1FF000
3FF000
3EF000
7CF000
FCF800
F86000
800000
ENDCHAR
STARTCHAR 0059
ENCODING 89
SWIDTH 612 0
DWIDTH 17 0
BBX 17 19 4 0
BITMAP
000F80
781F00
F81E00
FC3C00
FC7C00
7C7800
7CF000
7FF000
3FE000
3FC000
3FC000
1F8000
1F0000
1F0000
1F0000
1F0000
1E0000
1E0000
1E0000
ENDCHAR
STARTCHAR 005A
ENCODING 90
SWIDTH 576 0
DWIDTH 16 0
BBX 14 19 4 0
BITMAP
0FFC
7FF8
7FF0
FFE0
FFE0
03C0
0780
0780
0F00
1F00
1E00
3E00
3C00
7800
7FF8
FFF8
FFF0
3FE0
0F00
ENDCHAR
STARTCHAR 005B
ENCODING 91
SWIDTH 324 0
DWIDTH 9 0
BBX 14 26 0 -3
BITMAP
07FC
07FC
07FC
0780
0F00
0F00
0F00
0F00
1F00
1E00
1E00
1E00
1E00
3C00
3C00
3C00
3C00
3C00
7800
7800
7800
7800
FF80
FF80
FF80
FF80
ENDCHAR
STARTCHAR 005C
ENCODING 92
SWIDTH 432 0
DWIDTH 12 0
BBX 7 22 5 -2
BITMAP
F8
F8
F8
F8
F8
F8
F8
F8
F8
78
7C
7C
7C
7C
3C
3C
3C
3C
3E
1E
1E
1E
ENDCHAR
STARTCHAR 005D
ENCODING 93
SWIDTH 324 0
DWIDTH 9 0
BBX 14 27 0 -4
BITMAP
0010
07FC
07FC
07FC
0678
0078
0078
00F8
00F0
00F0
00F0
00F0
01F0
01E0
01E0
01E0
01E0
03C0
03C0
03C0
03C0
0780
0780
FF80
FF80
FF80
FF00
ENDCHAR
STARTCHAR 005E
ENCODING 94
SWIDTH 468 0
DWIDTH 13 0
BBX 13 11 2 9
BITMAP
00E0
01E0
03E0
07F0
0FF0
0FF0
1E70
3E78
7CF8
7CF8
F8F8
ENDCHAR
STARTCHAR 005F
ENCODING 95
SWIDTH 360 0
DWIDTH 10 0
BBX 10 3 0 -3
BITMAP
FFC0
FFC0
FFC0
ENDCHAR
STARTCHAR 0060
ENCODING 96
SWIDTH 216 0
DWIDTH 6 0
BBX 5 4 5 20
BITMAP
F0
78
38
38
ENDCHAR
STARTCHAR 0061
ENCODING 97
SWIDTH 612 0
DWIDTH 17 0
BBX 17 20 0 -1
BITMAP
000600
001E00
001E00
003E00
003E00
007E00
007E00
00FE00
01FE00
01FE00
03BE00
073F00
061F00
0FFF00
1FFF00
1F3F00
3E3F00
7C3F80
7C3F80
C00000
ENDCHAR
STARTCHAR 0062
ENCODING 98
SWIDTH 504 0
DWIDTH 14 0
BBX 12 19 3 0
BITMAP
1FC0
7FE0
7FE0
7FF0
7DF0
78F0
78E0
7DE0
7F80
7FE0
FFF0
FDF0
F8F0
F9F0
FBF0
FFE0
FFC0
FF80
F000
ENDCHAR
STARTCHAR 0063
ENCODING 99
SWIDTH 468 0
DWIDTH 13 0
BBX 15 19 2 0
BITMAP
00F0
07FC
0FFE
1FFC
3FFC
3FC0
7F00
7E00
7C00
7C00
FE10
FFF8
FFF0
FFF0
FFF0
7FF0
7FC0
7F80
0600
ENDCHAR
STARTCHAR 0064
ENCODING 100
SWIDTH 432 0
DWIDTH 12 0
BBX 12 19 3 0
BITMAP
3E00
7FC0
7FC0
7FE0
7FE0
FDF0
F8F0
F8F0
F8F0
F9E0
FBE0
FFC0
FF80
FF00
FF00
FE00
FC00
F000
8000
ENDCHAR
STARTCHAR 0065
ENCODING 101
SWIDTH 468 0
DWIDTH 13 0
BBX 11 19 4 0
BITMAP
7FE0
FFC0
FFC0
FF80
FF80
FE00
F800
F900
FF00
FF00
FC00
F800
FFC0
FFC0
FFC0
FFC0
FFC0
FF00
E000
ENDCHAR
STARTCHAR 0066
ENCODING 102
SWIDTH 504 0
DWIDTH 14 0
BBX 16 20 1 0
BITMAP
000C
07FF
1FFF
1FFF
1FFF
1F00
3F00
3E00
3FC0
3FC0
3FC0
7F80
7C00
7C00
7C00
F800
F800
F800
F800
F000
ENDCHAR
STARTCHAR 0067
ENCODING 103
SWIDTH 504 0
DWIDTH 14 0
BBX 15 19 1 0
BITMAP
00FC
01FE
03FE
07FE
0F8C
0F00
1E00
1C00
3C7E
3CFC
3CFC
7CFC
7CFC
7FFC
FFF8
FFF0
7FE0
3F80
1C00
ENDCHAR
STARTCHAR 0068
ENCODING 104
SWIDTH 540 0
DWIDTH 15 0
BBX 18 19 1 0
BITMAP
01E000
07E7C0
07E7C0
07C780
0FCF80
0FCF80
0F8F80
1FFF00
1FFF00
1FFF00
3FFF00
3FFF00
3FFE00
3E7E00
7E7E00
7E7C00
7E7C00
FC7C00
088000
ENDCHAR
STARTCHAR 0069
ENCODING 105
SWIDTH 324 0
DWIDTH 9 0
BBX 11 19 1 0
BITMAP
03C0
07E0
07E0
07E0
0FC0
0FC0
0FC0
1F80
1F80
1F80
1F80
3F00
3F00
3F00
3F00
7F00
7E00
FE00
F000
ENDCHAR
STARTCHAR 006A
ENCODING 106
SWIDTH 432 0
DWIDTH 12 0
BBX 15 19 1 0
BITMAP
007E
00FE
00FE
00FC
01FC
01FC
01FC
01FC
03FC
03F8
03F8
01F8
01F8
79F0
7BF0
FFE0
7FC0
7F80
1F00
ENDCHAR
STARTCHAR 006B
ENCODING 107
SWIDTH 540 0
DWIDTH 15 0
BBX 17 19 1 0
BITMAP
0FE300
0FE780
1FCF80
1FDF00
1FFE00
1FFC00
3FF800
3FF800
3FF000
3FE000
7FE000
7FF000
7FF000
7FF800
FF7800
FE7C00
FE7C00
FE3C00
FC2000
ENDCHAR
STARTCHAR 006C
ENCODING 108
SWIDTH 504 0
DWIDTH 14 0
BBX 14 19 1 0
BITMAP
01F8
03F8
07F0
07F0
07F0
0FE0
0FE0
0FC0
1FC0
1FC0
1F80
3F80
3F80
3FFC
7FF8
7FF8
7FF8
FFF8
FFE0
ENDCHAR
STARTCHAR 006D
ENCODING 109
SWIDTH 648 0
DWIDTH 18 0
BBX 18 19 1 0
BITMAP
020040
0301C0
0701C0
0783C0
0787C0
0FC7C0
0FCFC0
1FDFC0
1FFFC0
1FFFC0
3FFF80
3F6F80
3E1F80
7E1F80
7C1F80
7C3F80
F83F80
F83F80
F00400
ENDCHAR
STARTCHAR 006E
ENCODING 110
SWIDTH 540 0
DWIDTH 15 0
BBX 18 19 1 0
BITMAP
010100
07E7C0
07CFC0
0FCF80
0FCF80
1FCF80
1FDF00
1FDF00
3FDF00
3FDE00
3FFE00
3FFE00
7EFE00
7EFC00
7CFC00
FCFC00
FCFC00
F8F800
E02000
ENDCHAR
STARTCHAR 006F
ENCODING 111
SWIDTH 504 0
DWIDTH 14 0
BBX 14 19 2 0
BITMAP
03C0
07E0
0FF8
0FF8
1FFC
3FFC
3FFC
7E7C
7C7C
FC7C
FC7C
FCFC
FFFC
FFF8
FFF8
7FF0
7FF0
3FE0
1F80
ENDCHAR
STARTCHAR 0070
ENCODING 112
SWIDTH 468 0
DWIDTH 13 0
BBX 15 19 1 0
BITMAP
03F0
0FFC
0FFC
0FFE
1F3E
1F1E
1F1E
1F3E
3FFE
3FFC
3FF8
7FE0
7F00
7E00
FE00
FE00
FE00
FE00
FE00
ENDCHAR
STARTCHAR 0071
ENCODING 113
SWIDTH 612 0
DWIDTH 17 0
BBX 15 20 2 -1
BITMAP
03E0
07F0
0FF8
1FFC
1FFC
3E7E
3C3E
7C3E
7C3C
7C3C
FC7C
FFFC
FFF8
FFF8
FFF0
FFF8
7FFC
3FFC
04FE
00F8
ENDCHAR
STARTCHAR 0072
ENCODING 114
SWIDTH 576 0
DWIDTH 16 0
BBX 14 19 2 0
BITMAP
03E0
3FF8
3FFC
3F1C
3F1C
3F1C
7F1C
7F3C
7FF8
7FF0
7FE0
7FE0
7EF0
FEF0
FEF8
FE78
FE78
FE7C
FC78
ENDCHAR
STARTCHAR 0073
ENCODING 115
SWIDTH 504 0
DWIDTH 14 0
BBX 16 19 1 0
BITMAP
01FF
03FF
07FE
0FFE
0FFC
1FF8
1FF8
1F10
1F80
1FE0
0FF8
01F8
0078
20F8
FFF8
FFF8
FFF0
7FC0
3F80
ENDCHAR
STARTCHAR 0074
ENCODING 116
SWIDTH 576 0
DWIDTH 16 0
BBX 16 19 3 0
BITMAP
1FFE
7FFF
7FFF
7FFF
7FFF
FFFA
E3E0
03C0
07C0
0780
0780
0780
0F80
0F00
0F00
0F00
0F00
1E00
1E00
ENDCHAR
STARTCHAR 0075
ENCODING 117
SWIDTH 540 0
DWIDTH 15 0
BBX 16 18 2 1
BITMAP
0F0F
0F0F
1E0F
1E0F
3E1F
3C1F
7C1E
7C3E
7C3E
FC3E
FE7C
FFFC
FFF8
FFF8
FFF0
7FE0
7FC0
3F80
ENDCHAR
STARTCHAR 0076
ENCODING 118
SWIDTH 576 0
DWIDTH 16 0
BBX 16 17 4 1
BITMAP
F03F
7E3E
7E3E
7E7E
7E7C
7E7C
7EF8
3EF8
3EF0
3FF0
1FF0
1FE0
0FE0
0FC0
07C0
07C0
0380
ENDCHAR
STARTCHAR 0077
ENCODING 119
SWIDTH 720 0
DWIDTH 20 0
BBX 19 19 4 0
BITMAP
7001A0
F861E0
FC63E0
FC67C0
FCE7C0
FCEF80
FCFF80
FFFF80
7FFF00
7FFF00
7FFE00
7FFE00
3F7E00
3E7C00
3E7C00
3C7C00
1C7800
187000
080000
ENDCHAR
STARTCHAR 0078
ENCODING 120
SWIDTH 576 0
DWIDTH 16 0
BBX 17 19 2 0
BITMAP
000780
1E0F80
3F0F80
3F1F00
3F3E00
3F3E00
1FFC00
1FFC00
0FF800
0FF000
07F000
0FF000
1FF000
3FF000
3EF000
7CF000
FCF800
F86000
800000
ENDCHAR
STARTCHAR 0079
ENCODING 121
SWIDTH 612 0
DWIDTH 17 0
BBX 17 19 4 0
BITMAP
000F80
781F00
F81E00
FC3C00
FC7C00
7C7800
7CF000
7FF000
3FE000
3FC000
3FC000
1F8000
1F0000
1F0000
1F0000
1F0000
1E0000
1E0000
1E0000
ENDCHAR
STARTCHAR 007A
ENCODING 122
SWIDTH 576 0
DWIDTH 16 0
BBX 14 19 4 0
BITMAP
0FFC
7FF8
7FF0
FFE0
FFE0
03C0
0780
0780
0F00
1F00
1E00
3E00
3C00
7800
7FF8
FFF8
FFF0
3FE0
0F00
ENDCHAR
STARTCHAR 007B
ENCODING 123
SWIDTH 324 0
DWIDTH 9 0
BBX 11 26 3 -3
BITMAP
00C0
01C0
03E0
07C0
0780
0F00
0E00
0E00
1C00
3C00
3C00
F800
F800
F800
B800
3800
3800
7800
7800
7800
7800
7800
7800
7C00
3800
1800
ENDCHAR
STARTCHAR 007C
ENCODING 124
SWIDTH 180 0
DWIDTH 5 0
BBX 9 28 0 -4
BITMAP
0300
0380
0780
0780
0780
0F80
0F00
0F00
0F00
0F00
1F00
1E00
1E00
1E00
1E00
3E00
3C00
3C00
3C00
3C00
7800
7800
7800
7800
7800
F000
F000
F000
ENDCHAR
STARTCHAR 007D
ENCODING 125
SWIDTH 324 0
DWIDTH 9 0
BBX 11 26 1 -3
BITMAP
0700
0780
0F80
0780
0380
0780
0380
0780
0780
0780
0780
07C0
07E0
07C0
07C0
0F00
0F00
0E00
1E00
1C00
3C00
7800
F800
F000
E000
C000
ENDCHAR
STARTCHAR 007E
ENCODING 126
SWIDTH 468 0
DWIDTH 13 0
BBX 13 6 2 7
BITMAP
1C78
3E78
7FF8
7FF8
FFF0
E7E0
ENDCHAR
STARTCHAR 00A0
ENCODING 160
SWIDTH 288 0
DWIDTH 8 0
BBX 0 0 0 0
BITMAP
ENDCHAR
STARTCHAR 00A1
ENCODING 161
SWIDTH 288 0
DWIDTH 8 0
BBX 11 21 -1 -5
BITMAP
0080
03E0
03E0
07C0
07C0
0080
0000
0600
0F80
0F80
0F00
1F00
1F00
1F00
3F00
3F00
3F00
7F00
7F00
7F00
FF00
ENDCHAR
STARTCHAR 00A2
ENCODING 162
SWIDTH 468 0
DWIDTH 13 0
BBX 15 24 2 -3
BITMAP
001E
003C
007C
03FC
0FFC
1FFC
1FFC
3FFC
7FFC
7DE8
79C0
FBC0
FB80
F780
FF80
FF70
FFF0
FFF0
7FF0
3FE0
3F80
3C00
3800
0800
ENDCHAR
STARTCHAR 00A3
ENCODING 163
SWIDTH 540 0
DWIDTH 15 0
BBX 17 19 1 0
BITMAP
003C00
007F00
01FF00
01FF80
03EF80
07EF00
07C000
07C000
3FFC00
7FFC00
7FF800
0F8000
0F8000
1F8000
7FC000
FFFC00
FFFC00
FFFC00
3FF800
ENDCHAR
STARTCHAR 00A4
ENCODING 164
SWIDTH 432 0
DWIDTH 12 0
BBX 12 11 2 5
BITMAP
1C70
3FF0
7FF0
3DE0
38C0
39C0
39C0
7FE0
FFE0
7FC0
6080
ENDCHAR
STARTCHAR 00A5
ENCODING 165
SWIDTH 612 0
DWIDTH 17 0
BBX 18 19 3 0
BITMAP
0007C0
3C0F80
7C0F00
7E1E00
7E3E00
3E3C00
3E7800
3FF800
7FF800
7FF800
7FF800
FFF800
0F8000
FFF800
FFF000
FFF000
FF0000
0F0000
0F0000
ENDCHAR
STARTCHAR 00A6
ENCODING 166
SWIDTH 180 0
DWIDTH 5 0
BBX 9 28 0 -4
BITMAP
0380
0780
0780
0780
0780
0F80
0F00
0F00
0F00
0F00
0F00
1E00
1E00
0000
0000
0000
3C00
3C00
3C00
7C00
7800
7800
7800
7800
F800
F000
F000
F000
ENDCHAR
STARTCHAR 00A7
ENCODING 167
SWIDTH 468 0
DWIDTH 13 0
BBX 14 24 2 -2
BITMAP
0060
03F8
07FC
0FFC
0FF8
1F98
0F00
1F80
3FE0
3FF8
7FF8
7C7C
F87C
7FF8
7FF8
3FF0
0FE0
03E0
03E0
7FE0
7FC0
FFC0
7F00
3E00
ENDCHAR
STARTCHAR 00A8
ENCODING 168
SWIDTH 288 0
DWIDTH 8 0
BBX 8 4 5 19
BITMAP
02
E7
E6
40
ENDCHAR
STARTCHAR 00A9
ENCODING 169
SWIDTH 648 0
DWIDTH 18 0
BBX 19 18 2 1
BITMAP
003800
03FF00
0FFF80
1F87C0
1E03C0
38F9C0
71F9C0
71F9E0
6381C0
E381C0
E381C0
E3F180
F3F380
F1E300
780E00
7FFC00
3FF800
1FE000
ENDCHAR
STARTCHAR 00AA
ENCODING 170
SWIDTH 324 0
DWIDTH 9 0
BBX 8 10 3 9
BITMAP
06
06
0E
1E
1E
3E
6E
7E
CF
CF
ENDCHAR
STARTCHAR 00AB
ENCODING 171
SWIDTH 468 0
DWIDTH 13 0
BBX 13 13 2 0
BITMAP
0200
0618
0E38
3C78
7DF8
FBC0
C380
F3E0
FDF0
79E0
38E0
1860
0020
ENDCHAR
STARTCHAR 00AC
ENCODING 172
SWIDTH 468 0
DWIDTH 13 0
BBX 13 7 2 5
BITMAP
7FF8
7FF8
7FF8
FFF8
00F0
00F0
00F0
ENDCHAR
STARTCHAR 00AD
ENCODING 173
SWIDTH 360 0
DWIDTH 10 0
BBX 11 4 2 8
BITMAP
7FE0
7FE0
7FC0
FFC0
ENDCHAR
STARTCHAR 00AE
ENCODING 174
SWIDTH 432 0
DWIDTH 12 0
BBX 12 12 3 8
BITMAP
0380
1FE0
3870
7F30
6CB0
4F30
CF30
CD30
CD60
60E0
7FC0
1F00
ENDCHAR
STARTCHAR 00AF
ENCODING 175
SWIDTH 324 0
DWIDTH 9 0
BBX 8 2 5 20
BITMAP
FF
FF
ENDCHAR
STARTCHAR 00B0
ENCODING 176
SWIDTH 324 0
DWIDTH 9 0
BBX 8 9 4 11
BITMAP
1C
7F
7F
E7
C7
C7
EE
FC
78
ENDCHAR
STARTCHAR 00B1
ENCODING 177
SWIDTH 468 0
DWIDTH 13 0
BBX 14 16 1 0
BITMAP
01E0
01E0
03C0
03C0
3FFC
3FFC
7FFC
7FFC
0780
0780
0780
0700
0000
FFF0
FFF0
FFF0
ENDCHAR
STARTCHAR 00B2
ENCODING 178
SWIDTH 252 0
DWIDTH 7 0
BBX 7 9 3 10
BITMAP
3C
7C
2C
0C
18
1E
3E
7C
F8
ENDCHAR
STARTCHAR 00B3
ENCODING 179
SWIDTH 252 0
DWIDTH 7 0
BBX 6 10 3 9
BITMAP
38
38
18
38
7C
0C
0C
9C
F8
20
ENDCHAR
STARTCHAR 00B4
ENCODING 180
SWIDTH 216 0
DWIDTH 6 0
BBX 6 4 5 20
BITMAP
3C
78
70
E0
ENDCHAR
STARTCHAR 00B5
ENCODING 181
SWIDTH 540 0
DWIDTH 15 0
BBX 17 19 0 -4
BITMAP
0F0700
1F0F80
1F0F80
1E0F80
1E0F80
1E1F80
3E1F00
3E3F00
3FFF00
3FFE00
7FFE00
7FFC00
7FF800
7FF000
780000
F80000
F00000
F00000
F00000
ENDCHAR
STARTCHAR 00B6
ENCODING 182
SWIDTH 396 0
DWIDTH 11 0
BBX 11 22 3 -2
BITMAP
07E0
1FE0
3FE0
7FE0
7EE0
7CE0
FCC0
FDC0
FDC0
FDC0
F9C0
7B80
3B80
3B80
3B80
3300
7700
7700
7700
7700
E600
E600
ENDCHAR
STARTCHAR 00B7
ENCODING 183
SWIDTH 180 0
DWIDTH 5 0
BBX 6 5 2 7
BITMAP
38
7C
F8
78
20
ENDCHAR
STARTCHAR 00B8
ENCODING 184
SWIDTH 288 0
DWIDTH 8 0
BBX 8 6 0 -5
BITMAP
1C
1C
1E
CF
FE
30
ENDCHAR
STARTCHAR 00B9
ENCODING 185
SWIDTH 216 0
DWIDTH 6 0
BBX 5 9 4 10
BITMAP
18
78
F8
38
30
70
70
70
F0
ENDCHAR
STARTCHAR 00BA
ENCODING 186
SWIDTH 252 0
DWIDTH 7 0
BBX 8 9 3 10
BITMAP
1C
3E
7E
76
67
EE
FE
7C
7C
ENDCHAR
STARTCHAR 00BB
ENCODING 187
SWIDTH 468 0
DWIDTH 13 0
BBX 13 13 1 0
BITMAP
2000
30C0
38E0
3CF0
7CF8
1E78
0E18
3EF8
F9F0
F1E0
E3C0
8300
0200
ENDCHAR
STARTCHAR 00BC
ENCODING 188
SWIDTH 540 0
DWIDTH 15 0
BBX 16 19 2 0
BITMAP
0607
1E0E
3E0E
0E1C
0C38
1C78
1C70
1CE0
3DC0
0380
0798
0F30
0E30
1C7C
387C
7098
F030
E030
C070
ENDCHAR
STARTCHAR 00BD
ENCODING 189
SWIDTH 540 0
DWIDTH 15 0
BBX 16 19 2 0
BITMAP
0607
1E0E
3E0E
0E1C
0C38
1C78
1C70
1CE0
3DC0
03B0
07F8
0FF8
0E18
1C18
3830
707C
F07C
E1F8
C060
ENDCHAR
STARTCHAR 00BE
ENCODING 190
SWIDTH 540 0
DWIDTH 15 0
BBX 16 19 2 0
BITMAP
1C07
1C0E
0C0E
1C1C
3E38
0678
0670
4EE0
7DC0
1380
0798
0F30
0E30
1C7C
387C
7098
F030
E030
C070
ENDCHAR
STARTCHAR 00BF
ENCODING 191
SWIDTH 432 0
DWIDTH 12 0
BBX 12 20 0 -5
BITMAP
0020
00F0
01F0
01F0
00E0
0000
0000
01E0
03E0
07E0
1FC0
3F80
7C00
7800
7800
F870
FFF0
FFF0
FFE0
7FC0
ENDCHAR
STARTCHAR 00C0
ENCODING 192
SWIDTH 612 0
DWIDTH 17 0
BBX 17 25 0 -1
BITMAP
003C00
003C00
001C00
000C00
000000
000600
001E00
001E00
003E00
003E00
007E00
007E00
00FE00
01FE00
01FE00
03BE00
073F00
061F00
0FFF00
1FFF00
1F3F00
3E3F00
7C3F80
7C3F80
C00000
ENDCHAR
STARTCHAR 00C1
ENCODING 193
SWIDTH 612 0
DWIDTH 17 0
BBX 19 25 0 -1
BITMAP
0001E0
0003C0
000780
000700
000000
000600
001E00
001E00
003E00
003E00
007E00
007E00
00FE00
01FE00
01FE00
03BE00
073F00
061F00
0FFF00
1FFF00
1F3F00
3E3F00
7C3F80
7C3F80
C00000
ENDCHAR
STARTCHAR 00C2
ENCODING 194
SWIDTH 612 0
DWIDTH 17 0
BBX 18 25 0 -1
BITMAP
000700
001F80
003FC0
0079C0
000000
000600
001E00
001E00
003E00
003E00
007E00
007E00
00FE00
01FE00
01FE00
03BE00
073F00
061F00
0FFF00
1FFF00
1F3F00
3E3F00
7C3F80
7C3F80
C00000
ENDCHAR
STARTCHAR 00C3
ENCODING 195
SWIDTH 612 0
DWIDTH 17 0
BBX 18 25 0 -1
BITMAP
000CC0
003FC0
003FC0
003780
000000
000600
001E00
001E00
003E00
003E00
007E00
007E00
00FE00
01FE00
01FE00
03BE00
073F00
061F00
0FFF00
1FFF00
1F3F00
3E3F00
7C3F80
7C3F80
C00000
ENDCHAR
STARTCHAR 00C4
ENCODING 196
SWIDTH 612 0
DWIDTH 17 0
BBX 18 24 0 -1
BITMAP
000080
0039C0
003980
001000
000600
001E00
001E00
003E00
003E00
007E00
007E00
00FE00
01FE00
01FE00
03BE00
073F00
061F00
0FFF00
1FFF00
1F3F00
3E3F00
7C3F80
7C3F80
C00000
ENDCHAR
STARTCHAR 00C5
ENCODING 197
SWIDTH 612 0
DWIDTH 17 0
BBX 18 25 0 -1
BITMAP
000F00
001F80
0039C0
0071C0
007180
003F00
003E00
001E00
003E00
003E00
007E00
007E00
00FE00
01FE00
01FE00
03BE00
073F00
063F00
0FFF00
1FFF00
1F3F00
3E3F00
7C3F80
7C3F80
C00000
ENDCHAR
STARTCHAR 00C6
ENCODING 198
SWIDTH 720 0
DWIDTH 20 0
BBX 21 20 0 -1
BITMAP
000FF8
001FF8
001FF0
003FF0
003FF0
007FE0
00FF00
00FF20
01FFE0
01FFE0
03BF80
071E00
063FF0
0FFFF8
1FFFF8
1F3FF8
3E3FF8
7C3FE0
7C3C00
800000
ENDCHAR
STARTCHAR 00C7
ENCODING 199
SWIDTH 468 0
DWIDTH 13 0
BBX 15 24 2 -5
BITMAP
00F0
07FC
0FFE
1FFC
3FFC
3FC0
7F00
7E00
7C00
7C00
FE10
FFF8
FFF0
FFF0
FFF0
7FF0
7FC0
7FC0
1E00
1C00
0E00
CF00
FE00
3800
ENDCHAR
STARTCHAR 00C8
ENCODING 200
SWIDTH 468 0
DWIDTH 13 0
BBX 11 24 4 0
BITMAP
7800
3C00
1C00
0E00
0000
7FE0
FFC0
FFC0
FF80
FF80
FE00
F800
F900
FF00
FF00
FC00
F800
FFC0
FFC0
FFC0
FFC0
FFC0
FF00
E000
ENDCHAR
STARTCHAR 00C9
ENCODING 201
SWIDTH 468 0
DWIDTH 13 0
BBX 11 25 4 0
BITMAP
00C0
0380
0700
0F00
0E00
0000
7FE0
FFC0
FFC0
FF80
FF80
FE00
F800
F900
FF00
FF00
FC00
F800
FFC0
FFC0
FFC0
FFC0
FFC0
FF00
E000
ENDCHAR
STARTCHAR 00CA
ENCODING 202
SWIDTH 468 0
DWIDTH 13 0
BBX 11 24 4 0
BITMAP
0E00
1F80
3B80
7100
0000
7FE0
FFC0
FFC0
FF80
FF80
FE00
F800
F900
FF00
FF00
FC00
F800
FFC0
FFC0
FFC0
FFC0
FFC0
FF00
E000
ENDCHAR
STARTCHAR 00CB
ENCODING 203
SWIDTH 468 0
DWIDTH 13 0
BBX 11 23 4 0
BITMAP
0380
7380
7300
2000
7FE0
FFC0
FFC0
FF80
FF80
FE00
F800
F900
FF00
FF00
FC00
F800
FFC0
FFC0
FFC0
FFC0
FFC0
FF00
E000
ENDCHAR
STARTCHAR 00CC
ENCODING 204
SWIDTH 324 0
DWIDTH 9 0
BBX 11 24 1 0
BITMAP
03C0
03C0
01C0
00E0
0000
03C0
07E0
07E0
07E0
0FC0
0FC0
0FC0
1F80
1F80
1F80
1F80
3F00
3F00
3F00
3F00
7F00
7E00
FE00
F000
ENDCHAR
STARTCHAR 00CD
ENCODING 205
SWIDTH 324 0
DWIDTH 9 0
BBX 14 24 1 0
BITMAP
003C
0038
0070
00E0
0000
03C0
07E0
07E0
07E0
0FC0
0FC0
0FC0
1F80
1F80
1F80
1F80
3F00
3F00
3F00
3F00
7F00
7E00
FE00
F000
ENDCHAR
STARTCHAR 00CE
ENCODING 206
SWIDTH 324 0
DWIDTH 9 0
BBX 13 24 1 0
BITMAP
0060
01F0
03F8
0738
0000
03C0
07E0
07E0
07E0
0FC0
0FC0
0FC0
1F80
1F80
1F80
1F80
3F00
3F00
3F00
3F00
7F00
7E00
FE00
F000
ENDCHAR
STARTCHAR 00CF
ENCODING 207
SWIDTH 324 0
DWIDTH 9 0
BBX 13 23 1 0
BITMAP
0010
03B8
0738
0000
03C0
07E0
07E0
07E0
0FC0
0FC0
0FC0
1F80
1F80
1F80
1F80
3F00
3F00
3F00
3F00
7F00
7E00
FE00
F000
ENDCHAR
STARTCHAR 00D0
ENCODING 208
SWIDTH 468 0
DWIDTH 13 0
BBX 14 19 2 0
BITMAP
0F80
1FE0
1FF0
1FF8
3FF8
3F7C
3FBC
FFBC
FFBC
FFF8
FEF0
3FF0
3FE0
3FC0
3F80
3F80
3E00
3C00
2000
ENDCHAR
STARTCHAR 00D1
ENCODING 209
SWIDTH 540 0
DWIDTH 15 0
BBX 18 24 1 0
BITMAP
003380
007F80
007F80
00FE00
000000
010100
07E7C0
07CFC0
0FCF80
0FCF80
1FCF80
1FDF00
1FDF00
3FDF00
3FDE00
3FFE00
3FFE00
7EFE00
7EFC00
7CFC00
FCFC00
FCFC00
F8F800
E02000
ENDCHAR
STARTCHAR 00D2
ENCODING 210
SWIDTH 504 0
DWIDTH 14 0
BBX 14 24 2 0
BITMAP
0E00
0F00
0700
0700
0000
03C0
07E0
0FF8
0FF8
1FFC
3FFC
3FFC
7E7C
7C7C
FC7C
FC7C
FCFC
FFFC
FFF8
FFF8
7FF0
7FF0
3FE0
1F80
ENDCHAR
STARTCHAR 00D3
ENCODING 211
SWIDTH 504 0
DWIDTH 14 0
BBX 14 24 2 0
BITMAP
0078
00F0
00E0
01C0
0000
03C0
07E0
0FF8
0FF8
1FFC
3FFC
3FFC
7E7C
7C7C
FC7C
FC7C
FCFC
FFFC
FFF8
FFF8
7FF0
7FF0
3FE0
1F80
ENDCHAR
STARTCHAR 00D4
ENCODING 212
SWIDTH 504 0
DWIDTH 14 0
BBX 14 24 2 0
BITMAP
01C0
07E0
0FF0
0E70
0000
03C0
07E0
0FF8
0FF8
1FFC
3FFC
3FFC
7E7C
7C7C
FC7C
FC7C
FCFC
FFFC
FFF8
FFF8
7FF0
7FF0
3FE0
1F80
ENDCHAR
STARTCHAR 00D5
ENCODING 213
SWIDTH 504 0
DWIDTH 14 0
BBX 14 24 2 0
BITMAP
0270
0FF0
0FE0
0DC0
0000
03C0
07E0
0FF8
0FF8
1FFC
3FFC
3FFC
7E7C
7C7C
FC7C
FC7C
FCFC
FFFC
FFF8
FFF8
7FF0
7FF0
3FE0
1F80
ENDCHAR
STARTCHAR 00D6
ENCODING 214
SWIDTH 504 0
DWIDTH 14 0
BBX 14 23 2 0
BITMAP
0020
0E70
0E60
0400
03C0
07E0
0FF8
0FF8
1FFC
3FFC
3FFC
7E7C
7C7C
FC7C
FC7C
FCFC
FFFC
FFF8
FFF8
7FF0
7FF0
3FE0
1F80
ENDCHAR
STARTCHAR 00D7
ENCODING 215
SWIDTH 432 0
DWIDTH 12 0
BBX 12 11 2 4
BITMAP
1860
3CF0
7FF0
3FE0
1FC0
1F80
3FC0
7FE0
FBE0
71C0
2100
ENDCHAR
STARTCHAR 00D8
ENCODING 216
SWIDTH 504 0
DWIDTH 14 0
BBX 19 20 0 0
BITMAP
0001E0
00F3E0
01FFC0
03FF80
03FF00
07FF00
0FFF00
0FFF00
1F7F00
1EFF00
3DEF00
3FDF00
3F9F00
3FFF00
3FFE00
3FFE00
3FFC00
3FFC00
7FF800
F7E000
ENDCHAR
STARTCHAR 00D9
ENCODING 217
SWIDTH 540 0
DWIDTH 15 0
BBX 16 23 2 1
BITMAP
01E0
01E0
00F0
0070
0000
0F0F
0F0F
1E0F
1E0F
3E1F
3C1F
7C1E
7C3E
7C3E
FC3E
FE7C
FFFC
FFF8
FFF8
FFF0
7FE0
7FC0
3F80
ENDCHAR
STARTCHAR 00DA
ENCODING 218
SWIDTH 540 0
DWIDTH 15 0
BBX 16 23 2 1
BITMAP
000F
001E
001C
0038
0000
0F0F
0F0F
1E0F
1E0F
3E1F
3C1F
7C1E
7C3E
7C3E
FC3E
FE7C
FFFC
FFF8
FFF8
FFF0
7FE0
7FC0
3F80
ENDCHAR
STARTCHAR 00DB
ENCODING 219
SWIDTH 540 0
DWIDTH 15 0
BBX 16 23 2 1
BITMAP
0038
007C
01FE
01CE
0000
0F0F
0F0F
1E0F
1E0F
3E1F
3C1F
7C1E
7C3E
7C3E
FC3E
FE7C
FFFC
FFF8
FFF8
FFF0
7FE0
7FC0
3F80
ENDCHAR
STARTCHAR 00DC
ENCODING 220
SWIDTH 540 0
DWIDTH 15 0
BBX 16 22 2 1
BITMAP
0040
01CE
01CE
0000
0F0F
0F0F
1E0F
1E0F
3E1F
3C1F
7C1E
7C3E
7C3E
FC3E
FE7C
FFFC
FFF8
FFF8
FFF0
7FE0
7FC0
3F80
ENDCHAR
STARTCHAR 00DD
ENCODING 221
SWIDTH 612 0
DWIDTH 17 0
BBX 17 24 4 0
BITMAP
003C00
003800
007000
00E000
000000
000F80
781F00
F81E00
FC3C00
FC7C00
7C7800
7CF000
7FF000
3FE000
3FC000
3FC000
1F8000
1F0000
1F0000
1F0000
1F0000
1E0000
1E0000
1E0000
ENDCHAR
STARTCHAR 00DE
ENCODING 222
SWIDTH 504 0
DWIDTH 14 0
BBX 13 19 2 0
BITMAP
3E00
3E00
3F00
3FE0
3FF0
7FF8
7DF8
7C78
7C38
7C78
7C78
7CF8
7FF8
FFF0
FFE0
FC00
F800
F800
F800
ENDCHAR
STARTCHAR 00DF
ENCODING 223
SWIDTH 540 0
DWIDTH 15 0
BBX 15 21 1 -2
BITMAP
03F0
07F8
1FF8
1FF8
1E3C
3C38
3C78
3C70
3CE0
3CFC
3CFE
7CFE
7C3E
781E
783E
787E
79FC
79F8
79F0
F000
7000
ENDCHAR
STARTCHAR 00E0
ENCODING 224
SWIDTH 612 0
DWIDTH 17 0
BBX 17 25 0 -1
BITMAP
003C00
003C00
001C00
000C00
000000
000600
001E00
001E00
003E00
003E00
007E00
007E00
00FE00
01FE00
01FE00
03BE00
073F00
061F00
0FFF00
1FFF00
1F3F00
3E3F00
7C3F80
7C3F80
C00000
ENDCHAR
STARTCHAR 00E1
ENCODING 225
SWIDTH 612 0
DWIDTH 17 0
BBX 19 25 0 -1
BITMAP
0001E0
0003C0
000780
000700
000000
000600
001E00
001E00
003E00
003E00
007E00
007E00
00FE00
01FE00
01FE00
03BE00
073F00
061F00
0FFF00
1FFF00
1F3F00
3E3F00
7C3F80
7C3F80
C00000
ENDCHAR
STARTCHAR 00E2
ENCODING 226
SWIDTH 612 0
DWIDTH 17 0
BBX 18 25 0 -1
BITMAP
000700
001F80
003FC0
0079C0
000000
000600
001E00
001E00
003E00
003E00
007E00
007E00
00FE00
01FE00
01FE00
03BE00
073F00
061F00
0FFF00
1FFF00
1F3F00
3E3F00
7C3F80
7C3F80
C00000
ENDCHAR
STARTCHAR 00E3
ENCODING 227
SWIDTH 612 0
DWIDTH 17 0
BBX 18 25 0 -1
BITMAP
000CC0
003FC0
003FC0
003780
000000
000600
001E00
001E00
003E00
003E00
007E00
007E00
00FE00
01FE00
01FE00
03BE00
073F00
061F00
0FFF00
1FFF00
1F3F00
3E3F00
7C3F80
7C3F80
C00000
ENDCHAR
STARTCHAR 00E4
ENCODING 228
SWIDTH 612 0
DWIDTH 17 0
BBX 18 24 0 -1
BITMAP
000080
0039C0
003980
001000
000600
001E00
001E00
003E00
003E00
007E00
007E00
00FE00
01FE00
01FE00
03BE00
073F00
061F00
0FFF00
1FFF00
1F3F00
3E3F00
7C3F80
7C3F80
C00000
ENDCHAR
STARTCHAR 00E5
ENCODING 229
SWIDTH 612 0
DWIDTH 17 0
BBX 18 25 0 -1
BITMAP
000F00
001F80
0039C0
0071C0
007180
003F00
003E00
001E00
003E00
003E00
007E00
007E00
00FE00
01FE00
01FE00
03BE00
073F00
063F00
0FFF00
1FFF00
1F3F00
3E3F00
7C3F80
7C3F80
C00000
ENDCHAR
STARTCHAR 00E6
ENCODING 230
SWIDTH 720 0
DWIDTH 20 0
BBX 21 20 0 -1
BITMAP
000FF8
001FF8
001FF0
003FF0
003FF0
007FE0
00FF00
00FF20
01FFE0
01FFE0
03BF80
071E00
063FF0
0FFFF8
1FFFF8
1F3FF8
3E3FF8
7C3FE0
7C3C00
800000
ENDCHAR
STARTCHAR 00E7
ENCODING 231
SWIDTH 468 0
DWIDTH 13 0
BBX 15 24 2 -5
BITMAP
00F0
07FC
0FFE
1FFC
3FFC
3FC0
7F00
7E00
7C00
7C00
FE10
FFF8
FFF0
FFF0
FFF0
7FF0
7FC0
7FC0
1E00
1C00
0E00
CF00
FE00
3800
ENDCHAR
STARTCHAR 00E8
ENCODING 232
SWIDTH 468 0
DWIDTH 13 0
BBX 11 24 4 0
BITMAP
7800
3C00
1C00
0E00
0000
7FE0
FFC0
FFC0
FF80
FF80
FE00
F800
F900
FF00
FF00
FC00
F800
FFC0
FFC0
FFC0
FFC0
FFC0
FF00
E000
ENDCHAR
STARTCHAR 00E9
ENCODING 233
SWIDTH 468 0
DWIDTH 13 0
BBX 11 25 4 0
BITMAP
00C0
0380
0700
0F00
0E00
0000
7FE0
FFC0
FFC0
FF80
FF80
FE00
F800
F900
FF00
FF00
FC00
F800
FFC0
FFC0
FFC0
FFC0
FFC0
FF00
E000
ENDCHAR
STARTCHAR 00EA
ENCODING 234
SWIDTH 468 0
DWIDTH 13 0
BBX 11 24 4 0
BITMAP
0E00
1F80
3B80
7100
0000
7FE0
FFC0
FFC0
FF80
FF80
FE00
F800
F900
FF00
FF00
FC00
F800
FFC0
FFC0
FFC0
FFC0
FFC0
FF00
E000
ENDCHAR
STARTCHAR 00EB
ENCODING 235
SWIDTH 468 0
DWIDTH 13 0
BBX 11 23 4 0
BITMAP
0380
7380
7300
2000
7FE0
FFC0
FFC0
FF80
FF80
FE00
F800
F900
FF00
FF00
FC00
F800
FFC0
FFC0
FFC0
FFC0
FFC0
FF00
E000
ENDCHAR
STARTCHAR 00EC
ENCODING 236
SWIDTH 324 0
DWIDTH 9 0
BBX 11 24 1 0
BITMAP
03C0
03C0
01C0
00E0
0000
03C0
07E0
07E0
07E0
0FC0
0FC0
0FC0
1F80
1F80
1F80
1F80
3F00
3F00
3F00
3F00
7F00
7E00
FE00
F000
ENDCHAR
STARTCHAR 00ED
ENCODING 237
SWIDTH 324 0
DWIDTH 9 0
BBX 14 24 1 0
BITMAP
003C
0038
0070
00E0
0000
03C0
07E0
07E0
07E0
0FC0
0FC0
0FC0
1F80
1F80
1F80
1F80
3F00
3F00
3F00
3F00
7F00
7E00
FE00
F000
ENDCHAR
STARTCHAR 00EE
ENCODING 238
SWIDTH 324 0
DWIDTH 9 0
BBX 13 24 1 0
BITMAP
0060
01F0
03F8
0738
0000
03C0
07E0
07E0
07E0
0FC0
0FC0
0FC0
1F80
1F80
1F80
1F80
3F00
3F00
3F00
3F00
7F00
7E00
FE00
F000
ENDCHAR
STARTCHAR 00EF
ENCODING 239
SWIDTH 324 0
DWIDTH 9 0
BBX 13 23 1 0
BITMAP
0010
03B8
0738
0000
03C0
07E0
07E0
07E0
0FC0
0FC0
0FC0
1F80
1F80
1F80
1F80
3F00
3F00
3F00
3F00
7F00
7E00
FE00
F000
ENDCHAR
STARTCHAR 00F0
ENCODING 240
SWIDTH 468 0
DWIDTH 13 0
BBX 14 19 2 0
BITMAP
0F80
1FE0
1FF0
1FF8
3FF8
3F7C
3FBC
FFBC
FFBC
FFF8
FEF0
3FF0
3FE0
3FC0
3F80
3F80
3E00
3C00
2000
ENDCHAR
STARTCHAR 00F1
ENCODING 241
SWIDTH 540 0
DWIDTH 15 0
BBX 18 24 1 0
BITMAP
003380
007F80
007F80
00FE00
000000
010100
07E7C0
07CFC0
0FCF80
0FCF80
1FCF80
1FDF00
1FDF00
3FDF00
3FDE00
3FFE00
3FFE00
7EFE00
7EFC00
7CFC00
FCFC00
FCFC00
F8F800
E02000
ENDCHAR
STARTCHAR 00F2
ENCODING 242
SWIDTH 504 0
DWIDTH 14 0
BBX 14 24 2 0
BITMAP
0E00
0F00
0700
0700
0000
03C0
07E0
0FF8
0FF8
1FFC
3FFC
3FFC
7E7C
7C7C
FC7C
FC7C
FCFC
FFFC
FFF8
FFF8
7FF0
7FF0
3FE0
1F80
ENDCHAR
STARTCHAR 00F3
ENCODING 243
SWIDTH 504 0
DWIDTH 14 0
BBX 14 24 2 0
BITMAP
0078
00F0
00E0
01C0
0000
03C0
07E0
0FF8
0FF8
1FFC
3FFC
3FFC
7E7C
7C7C
FC7C
FC7C
FCFC
FFFC
FFF8
FFF8
7FF0
7FF0
3FE0
1F80
ENDCHAR
STARTCHAR 00F4
ENCODING 244
SWIDTH 504 0
DWIDTH 14 0
BBX 14 24 2 0
BITMAP
01C0
07E0
0FF0
0E70
0000
03C0
07E0
0FF8
0FF8
1FFC
3FFC
3FFC
7E7C
7C7C
FC7C
FC7C
FCFC
FFFC
FFF8
FFF8
7FF0
7FF0
3FE0
1F80
ENDCHAR
STARTCHAR 00F5
ENCODING 245
SWIDTH 504 0
DWIDTH 14 0
BBX 14 24 2 0
BITMAP
0270
0FF0
0FE0
0DC0
0000
03C0
07E0
0FF8
0FF8
1FFC
3FFC
3FFC
7E7C
7C7C
FC7C
FC7C
FCFC
FFFC
FFF8
FFF8
7FF0
7FF0
3FE0
1F80
ENDCHAR
STARTCHAR 00F6
ENCODING 246
SWIDTH 504 0
DWIDTH 14 0
BBX 14 23 2 0
BITMAP
0020
0E70
0E60
0400
03C0
07E0
0FF8
0FF8
1FFC
3FFC
3FFC
7E7C
7C7C
FC7C
FC7C
FCFC
FFFC
FFF8
FFF8
7FF0
7FF0
3FE0
1F80
ENDCHAR
STARTCHAR 00F7
ENCODING 247
SWIDTH 468 0
DWIDTH 13 0
BBX 13 15 2 2
BITMAP
01C0
03C0
07C0
0380
0000
7FF8
7FF8
7FF8
FFF8
0000
0600
0F00
1F00
1E00
0400
ENDCHAR
STARTCHAR 00F8
ENCODING 248
SWIDTH 504 0
DWIDTH 14 0
BBX 19 20 0 0
BITMAP
0001E0
00F3E0
01FFC0
03FF80
03FF00
07FF00
0FFF00
0FFF00
1F7F00
1EFF00
3DEF00
3FDF00
3F9F00
3FFF00
3FFE00
3FFE00
3FFC00
3FFC00
7FF800
F7E000
ENDCHAR
STARTCHAR 00F9
ENCODING 249
SWIDTH 540 0
DWIDTH 15 0
BBX 16 23 2 1
BITMAP
01E0
01E0
00F0
0070
0000
0F0F
0F0F
1E0F
1E0F
3E1F
3C1F
7C1E
7C3E
7C3E
FC3E
FE7C
FFFC
FFF8
FFF8
FFF0
7FE0
7FC0
3F80
ENDCHAR
STARTCHAR 00FA
ENCODING 250
SWIDTH 540 0
DWIDTH 15 0
BBX 16 23 2 1
BITMAP
000F
001E
001C
0038
0000
0F0F
0F0F
1E0F
1E0F
3E1F
3C1F
7C1E
7C3E
7C3E
FC3E
FE7C
FFFC
FFF8
FFF8
FFF0
7FE0
7FC0
3F80
ENDCHAR
STARTCHAR 00FB
ENCODING 251
SWIDTH 540 0
DWIDTH 15 0
BBX 16 23 2 1
BITMAP
0038
007C
01FE
01CE
0000
0F0F
0F0F
1E0F
1E0F
3E1F
3C1F
7C1E
7C3E
7C3E
FC3E
FE7C
FFFC
FFF8
FFF8
FFF0
7FE0
7FC0
3F80
ENDCHAR
STARTCHAR 00FC
ENCODING 252
SWIDTH 540 0
DWIDTH 15 0
BBX 16 22 2 1
BITMAP
0040
01CE
01CE
0000
0F0F
0F0F
1E0F
1E0F
3E1F
3C1F
7C1E
7C3E
7C3E
FC3E
FE7C
FFFC
FFF8
FFF8
FFF0
7FE0
7FC0
3F80
ENDCHAR
STARTCHAR 00FD
ENCODING 253
SWIDTH 612 0
DWIDTH 17 0
BBX 17 24 4 0
BITMAP
003C00
003800
007000
00E000
000000
000F80
781F00
F81E00
FC3C00
FC7C00
7C7800
7CF000
7FF000
3FE000
3FC000
3FC000
1F8000
1F0000
1F0000
1F0000
1F0000
1E0000
1E0000
1E0000
ENDCHAR
STARTCHAR 00FE
ENCODING 254
SWIDTH 504 0
DWIDTH 14 0
BBX 13 19 2 0
BITMAP
3E00
3E00
3F00
3FE0
3FF0
7FF8
7DF8
7C78
7C38
7C78
7C78
7CF8
7FF8
FFF0
FFE0
FC00
F800
F800
F800
ENDCHAR
STARTCHAR 00FF
ENCODING 255
SWIDTH 612 0
DWIDTH 17 0
BBX 17 23 4 0
BITMAP
001000
033800
073800
020000
000F80
781F00
F81E00
FC3C00
FC7C00
7C7800
7CF000
7FF000
3FE000
3FC000
3FC000
1F8000
1F0000
1F0000
1F0000
1F0000
1E0000
1E0000
1E0000
ENDCHAR
STARTCHAR 0100
ENCODING 256
SWIDTH 612 0
DWIDTH 17 0
BBX 18 23 0 -1
BITMAP
003FC0
003FC0
000000
000600
001E00
001E00
003E00
003E00
007E00
007E00
00FE00
01FE00
01FE00
03BE00
073F00
061F00
0FFF00
1FFF00
1F3F00
3E3F00
7C3F80
7C3F80
C00000
ENDCHAR
STARTCHAR 0101
ENCODING 257
SWIDTH 612 0
DWIDTH 17 0
BBX 18 23 0 -1
BITMAP
003FC0
003FC0
000000
000600
001E00
001E00
003E00
003E00
007E00
007E00
00FE00
01FE00
01FE00
03BE00
073F00
061F00
0FFF00
1FFF00
1F3F00
3E3F00
7C3F80
7C3F80
C00000
ENDCHAR
STARTCHAR 0102
ENCODING 258
SWIDTH 612 0
DWIDTH 17 0
BBX 18 25 0 -1
BITMAP
0030C0
003BC0
003F80
001F00
000000
000600
001E00
001E00
003E00
003E00
007E00
007E00
00FE00
01FE00
01FE00
03BE00
073F00
063F00
0FFF00
1FFF00
1F3F00
3E3F00
7C3F80
7C3F80
C00000
ENDCHAR
STARTCHAR 0103
ENCODING 259
SWIDTH 612 0
DWIDTH 17 0
BBX 18 25 0 -1
BITMAP
0030C0
003BC0
003F80
001F00
000000
000600
001E00
001E00
003E00
003E00
007E00
007E00
00FE00
01FE00
01FE00
03BE00
073F00
063F00
0FFF00
1FFF00
1F3F00
3E3F00
7C3F80
7C3F80
C00000
ENDCHAR
STARTCHAR 0104
ENCODING 260
SWIDTH 612 0
DWIDTH 17 0
BBX 17 24 0 -5
BITMAP
000600
001E00
001E00
003E00
003E00
007E00
007E00
00FE00
01FE00
01FE00
03BE00
073F00
063F00
0FFF00
1FFF00
1F3F00
3E3F00
7C3F80
7C3F80
C07000
006000
00FE00
00FE00
001800
ENDCHAR
STARTCHAR 0105
ENCODING 261
SWIDTH 612 0
DWIDTH 17 0
BBX 17 24 0 -5
BITMAP
000600
001E00
001E00
003E00
003E00
007E00
007E00
00FE00
01FE00
01FE00
03BE00
073F00
063F00
0FFF00
1FFF00
1F3F00
3E3F00
7C3F80
7C3F80
C07000
006000
00FE00
00FE00
001800
ENDCHAR
STARTCHAR 0106
ENCODING 262
SWIDTH 468 0
DWIDTH 13 0
BBX 16 24 2 0
BITMAP
000F
001E
003C
0038
0000
00F0
07FC
0FFE
1FFC
3FFC
3FC0
7F00
7E00
7C00
7C00
FE10
FFF8
FFF0
FFF0
FFF0
7FF0
7FC0
7F80
0600
ENDCHAR
STARTCHAR 0107
ENCODING 263
SWIDTH 468 0
DWIDTH 13 0
BBX 16 24 2 0
BITMAP
000F
001E
003C
0038
0000
00F0
07FC
0FFE
1FFC
3FFC
3FC0
7F00
7E00
7C00
7C00
FE10
FFF8
FFF0
FFF0
FFF0
7FF0
7FC0
7F80
0600
ENDCHAR
STARTCHAR 0108
ENCODING 264
SWIDTH 468 0
DWIDTH 13 0
BBX 15 24 2 0
BITMAP
0038
00FC
01FE
03CE
0000
00F0
07FC
0FFE
1FFC
3FFC
3FC0
7F00
7E00
7C00
7C00
FE10
FFF8
FFF0
FFF0
FFF0
7FF0
7FC0
7F80
0600
ENDCHAR
STARTCHAR 0109
ENCODING 265
SWIDTH 468 0
DWIDTH 13 0
BBX 15 24 2 0
BITMAP
0038
00FC
01FE
03CE
0000
00F0
07FC
0FFE
1FFC
3FFC
3FC0
7F00
7E00
7C00
7C00
FE10
FFF8
FFF0
FFF0
FFF0
7FF0
7FC0
7F80
0600
ENDCHAR
STARTCHAR 010A
ENCODING 266
SWIDTH 468 0
DWIDTH 13 0
BBX 15 22 2 0
BITMAP
0070
0070
0020
00F0
07FC
0FFE
1FFC
3FFC
3FC0
7F00
7E00
7C00
7C00
FE10
FFF8
FFF0
FFF0
FFF0
7FF0
7FC0
7F80
0600
ENDCHAR
STARTCHAR 010B
ENCODING 267
SWIDTH 468 0
DWIDTH 13 0
BBX 15 22 2 0
BITMAP
0070
0070
0020
00F0
07FC
0FFE
1FFC
3FFC
3FC0
7F00
7E00
7C00
7C00
FE10
FFF8
FFF0
FFF0
FFF0
7FF0
7FC0
7F80
0600
ENDCHAR
STARTCHAR 010C
ENCODING 268
SWIDTH 468 0
DWIDTH 13 0
BBX 15 24 2 0
BITMAP
01C6
01FE
00FC
0070
0000
00F0
07FC
0FFE
1FFC
3FFC
3FC0
7F00
7E00
7C00
7C00
FE10
FFF8
FFF0
FFF0
FFF0
7FF0
7FC0
7F80
0600
ENDCHAR
STARTCHAR 010D
ENCODING 269
SWIDTH 468 0
DWIDTH 13 0
BBX 15 24 2 0
BITMAP
01C6
01FE
00FC
0070
0000
00F0
07FC
0FFE
1FFC
3FFC
3FC0
7F00
7E00
7C00
7C00
FE10
FFF8
FFF0
FFF0
FFF0
7FF0
7FC0
7F80
0600
ENDCHAR
STARTCHAR 010E
ENCODING 270
SWIDTH 432 0
DWIDTH 12 0
BBX 12 24 3 0
BITMAP
19E0
3FC0
1F80
0F00
0000
3E00
7FC0
7FC0
7FE0
7FE0
FDF0
F8F0
F8F0
F8F0
F9E0
FBE0
FFC0
FF80
FF00
FF00
FE00
FC00
F000
8000
ENDCHAR
STARTCHAR 010F
ENCODING 271
SWIDTH 432 0
DWIDTH 12 0
BBX 12 24 3 0
BITMAP
19E0
3FC0
1F80
0F00
0000
3E00
7FC0
7FC0
7FE0
7FE0
FDF0
F8F0
F8F0
F8F0
F9E0
FBE0
FFC0
FF80
FF00
FF00
FE00
FC00
F000
8000
ENDCHAR
STARTCHAR 0110
ENCODING 272
SWIDTH 468 0
DWIDTH 13 0
BBX 14 19 2 0
BITMAP
0F80
1FE0
1FF0
1FF8
3FF8
3F7C
3FBC
FFBC
FFBC
FFF8
FEF0
3FF0
3FE0
3FC0
3F80
3F80
3E00
3C00
2000
ENDCHAR
STARTCHAR 0111
ENCODING 273
SWIDTH 468 0
DWIDTH 13 0
BBX 14 19 2 0
BITMAP
0F80
1FE0
1FF0
1FF8
3FF8
3F7C
3FBC
FFBC
FFBC
FFF8
FEF0
3FF0
3FE0
3FC0
3F80
3F80
3E00
3C00
2000
ENDCHAR
STARTCHAR 0112
ENCODING 274
SWIDTH 468 0
DWIDTH 13 0
BBX 11 23 4 0
BITMAP
0380
7F80
7F00
0000
7FE0
FFC0
FFC0
FF80
FF80
FE00
F800
F900
FF00
FF00
FC00
F800
FFC0
FFC0
FFC0
FFC0
FFC0
FF00
E000
ENDCHAR
STARTCHAR 0113
ENCODING 275
SWIDTH 468 0
DWIDTH 13 0
BBX 11 23 4 0
BITMAP
0380
7F80
7F00
0000
7FE0
FFC0
FFC0
FF80
FF80
FE00
F800
F900
FF00
FF00
FC00
F800
FFC0
FFC0
FFC0
FFC0
FFC0
FF00
E000
ENDCHAR
STARTCHAR 0114
ENCODING 276
SWIDTH 468 0
DWIDTH 13 0
BBX 11 25 4 0
BITMAP
0040
71C0
3F80
3F00
1E00
0000
7FE0
FFC0
FFC0
FF80
FF80
FE00
F800
F900
FF00
FF00
FC00
F800
FFC0
FFC0
FFC0
FFC0
FFC0
FF00
E000
ENDCHAR
STARTCHAR 0115
ENCODING 277
SWIDTH 468 0
DWIDTH 13 0
BBX 11 25 4 0
BITMAP
0040
71C0
3F80
3F00
1E00
0000
7FE0
FFC0
FFC0
FF80
FF80
FE00
F800
F900
FF00
FF00
FC00
F800
FFC0
FFC0
FFC0
FFC0
FFC0
FF00
E000
ENDCHAR
STARTCHAR 0116
ENCODING 278
SWIDTH 468 0
DWIDTH 13 0
BBX 11 23 4 0
BITMAP
0C00
0E00
0C00
0000
7FE0
FFC0
FFC0
FF80
FF80
FE00
F800
F900
FF00
FF00
FC00
F800
FFC0
FFC0
FFC0
FFC0
FFC0
FF00
E000
ENDCHAR
STARTCHAR 0117
ENCODING 279
SWIDTH 468 0
DWIDTH 13 0
BBX 11 23 4 0
BITMAP
0C00
0E00
0C00
0000
7FE0
FFC0
FFC0
FF80
FF80
FE00
F800
F900
FF00
FF00
FC00
F800
FFC0
FFC0
FFC0
FFC0
FFC0
FF00
E000
ENDCHAR
STARTCHAR 0118
ENCODING 280
SWIDTH 468 0
DWIDTH 13 0
BBX 11 23 4 -4
BITMAP
7FE0
FFC0
FFC0
FF80
FF80
FE00
F800
F900
FF00
FF00
FC00
F800
FFC0
FFC0
FFC0
FFC0
FFC0
FE00
F800
3800
3180
7F80
3F00
ENDCHAR
STARTCHAR 0119
ENCODING 281
SWIDTH 468 0
DWIDTH 13 0
BBX 11 23 4 -4
BITMAP
7FE0
FFC0
FFC0
FF80
FF80
FE00
F800
F900
FF00
FF00
FC00
F800
FFC0
FFC0
FFC0
FFC0
FFC0
FE00
F800
3800
3180
7F80
3F00
ENDCHAR
STARTCHAR 011A
ENCODING 282
SWIDTH 468 0
DWIDTH 13 0
BBX 11 24 4 0
BITMAP
33C0
7F80
3F00
1E00
0000
7FE0
FFC0
FFC0
FF80
FF80
FE00
F800
F900
FF00
FF00
FC00
F800
FFC0
FFC0
FFC0
FFC0
FFC0
FF00
E000
ENDCHAR
STARTCHAR 011B
ENCODING 283
SWIDTH 468 0
DWIDTH 13 0
BBX 11 24 4 0
BITMAP
33C0
7F80
3F00
1E00
0000
7FE0
FFC0
FFC0
FF80
FF80
FE00
F800
F900
FF00
FF00
FC00
F800
FFC0
FFC0
FFC0
FFC0
FFC0
FF00
E000
ENDCHAR
STARTCHAR 011C
ENCODING 284
SWIDTH 504 0
DWIDTH 14 0
BBX 15 24 1 0
BITMAP
0038
007C
00FE
01CE
0000
00FC
01FE
03FE
07FE
0F8C
0F00
1E00
1C00
3C7E
3CFC
3CFC
7CFC
7CFC
7FFC
FFF8
FFF0
7FE0
3F80
1C00
ENDCHAR
STARTCHAR 011D
ENCODING 285
SWIDTH 504 0
DWIDTH 14 0
BBX 15 24 1 0
BITMAP
0038
007C
00FE
01CE
0000
00FC
01FE
03FE
07FE
0F8C
0F00
1E00
1C00
3C7E
3CFC
3CFC
7CFC
7CFC
7FFC
FFF8
FFF0
7FE0
3F80
1C00
ENDCHAR
STARTCHAR 011E
ENCODING 286
SWIDTH 504 0
DWIDTH 14 0
BBX 16 24 1 0
BITMAP
01C7
00EE
00FE
00F8
0000
00FC
01FE
03FE
07FE
0F8C
0F00
1E00
1C00
3C7E
3CFC
3CFC
7CFC
7CFC
7FFC
FFF8
FFF0
7FE0
3F80
1C00
ENDCHAR
STARTCHAR 011F
ENCODING 287
SWIDTH 504 0
DWIDTH 14 0
BBX 16 24 1 0
BITMAP
01C7
00EE
00FE
00F8
0000
00FC
01FE
03FE
07FE
0F8C
0F00
1E00
1C00
3C7E
3CFC
3CFC
7CFC
7CFC
7FFC
FFF8
FFF0
7FE0
3F80
1C00
ENDCHAR
STARTCHAR 0120
ENCODING 288
SWIDTH 504 0
DWIDTH 14 0
BBX 15 22 1 0
BITMAP
0030
0070
0020
00FC
01FE
03FE
07FE
0F8C
0F00
1E00
1C00
3C7E
3CFC
3CFC
7CFC
7CFC
7FFC
FFF8
FFF0
7FE0
3F80
1C00
ENDCHAR
STARTCHAR 0121
ENCODING 289
SWIDTH 504 0
DWIDTH 14 0
BBX 15 22 1 0
BITMAP
0030
0070
0020
00FC
01FE
03FE
07FE
0F8C
0F00
1E00
1C00
3C7E
3CFC
3CFC
7CFC
7CFC
7FFC
FFF8
FFF0
7FE0
3F80
1C00
ENDCHAR
STARTCHAR 0122
ENCODING 290
SWIDTH 504 0
DWIDTH 14 0
BBX 15 24 1 -5
BITMAP
00FC
01FE
03FE
07FE
0F8C
0F00
1E00
1C00
3C7E
3CFC
3CFC
7CFC
7CFC
7FFC
FFF8
FFF0
7FE0
3F80
1C00
1C00
3C00
3C00
7800
3000
ENDCHAR
STARTCHAR 0123
ENCODING 291
SWIDTH 504 0
DWIDTH 14 0
BBX 15 24 1 -5
BITMAP
00FC
01FE
03FE
07FE
0F8C
0F00
1E00
1C00
3C7E
3CFC
3CFC
7CFC
7CFC
7FFC
FFF8
FFF0
7FE0
3F80
1C00
1C00
3C00
3C00
7800
3000
ENDCHAR
STARTCHAR 0124
ENCODING 292
SWIDTH 540 0
DWIDTH 15 0
BBX 18 24 1 0
BITMAP
000600
001F00
003F80
007380
000000
01E000
07E7C0
07E7C0
07C780
0FCF80
0FCF80
0F8F80
1FFF00
1FFF00
1FFF00
3FFF00
3FFF00
3FFE00
3E7E00
7E7E00
7E7C00
7E7C00
FC7C00
088000
ENDCHAR
STARTCHAR 0125
ENCODING 293
SWIDTH 540 0
DWIDTH 15 0
BBX 18 24 1 0
BITMAP
000600
001F00
003F80
007380
000000
01E000
07E7C0
07E7C0
07C780
0FCF80
0FCF80
0F8F80
1FFF00
1FFF00
1FFF00
3FFF00
3FFF00
3FFE00
3E7E00
7E7E00
7E7C00
7E7C00
FC7C00
088000
ENDCHAR
STARTCHAR 0126
ENCODING 294
SWIDTH 576 0
DWIDTH 16 0
BBX 18 19 1 0
BITMAP
01E000
07E7C0
1FFFC0
1FFFC0
1FFFC0
3FFFC0
0F8F80
1FFF00
1FFF00
1FFF00
3FFF00
3FFF00
3FFE00
3E7E00
7E7E00
7E7C00
7E7C00
FC7C00
288000
ENDCHAR
STARTCHAR 0127
ENCODING 295
SWIDTH 576 0
DWIDTH 16 0
BBX 18 19 1 0
BITMAP
01E000
07E7C0
1FFFC0
1FFFC0
1FFFC0
3FFFC0
0F8F80
1FFF00
1FFF00
1FFF00
3FFF00
3FFF00
3FFE00
3E7E00
7E7E00
7E7C00
7E7C00
FC7C00
288000
ENDCHAR
STARTCHAR 0128
ENCODING 296
SWIDTH 324 0
DWIDTH 9 0
BBX 14 24 1 0
BITMAP
019C
03FC
03FC
07F0
0000
03C0
07E0
07E0
07E0
0FC0
0FC0
0FC0
1F80
1F80
1F80
1F80
3F00
3F00
3F00
3F00
7F00
7E00
FE00
F000
ENDCHAR
STARTCHAR 0129
ENCODING 297
SWIDTH 324 0
DWIDTH 9 0
BBX 14 24 1 0
BITMAP
019C
03FC
03FC
07F0
0000
03C0
07E0
07E0
07E0
0FC0
0FC0
0FC0
1F80
1F80
1F80
1F80
3F00
3F00
3F00
3F00
7F00
7E00
FE00
F000
ENDCHAR
STARTCHAR 012A
ENCODING 298
SWIDTH 324 0
DWIDTH 9 0
BBX 14 22 1 0
BITMAP
07FC
07F8
0000
03C0
07E0
07E0
07E0
0FC0
0FC0
0FC0
1F80
1F80
1F80
1F80
3F00
3F00
3F00
3F00
7F00
7E00
FE00
F000
ENDCHAR
STARTCHAR 012B
ENCODING 299
SWIDTH 324 0
DWIDTH 9 0
BBX 14 22 1 0
BITMAP
07FC
07F8
0000
03C0
07E0
07E0
07E0
0FC0
0FC0
0FC0
1F80
1F80
1F80
1F80
3F00
3F00
3F00
3F00
7F00
7E00
FE00
F000
ENDCHAR
STARTCHAR 012C
ENCODING 300
SWIDTH 324 0
DWIDTH 9 0
BBX 14 24 1 0
BITMAP
030C
03BC
03F8
01F0
0000
03C0
07E0
07E0
07E0
0FC0
0FC0
0FC0
1F80
1F80
1F80
1F80
3F00
3F00
3F00
3F00
7F00
7E00
FE00
F000
ENDCHAR
STARTCHAR 012D
ENCODING 301
SWIDTH 324 0
DWIDTH 9 0
BBX 14 24 1 0
BITMAP
030C
03BC
03F8
01F0
0000
03C0
07E0
07E0
07E0
0FC0
0FC0
0FC0
1F80
1F80
1F80
1F80
3F00
3F00
3F00
3F00
7F00
7E00
FE00
F000
ENDCHAR
STARTCHAR 012E
ENCODING 302
SWIDTH 324 0
DWIDTH 9 0
BBX 11 24 1 -5
BITMAP
03C0
07E0
07E0
07E0
0FC0
0FC0
0FC0
1F80
1F80
1F80
1F80
3F00
3F00
3F00
3F00
7F00
7E00
FE00
F000
7000
E000
FE00
FE00
1800
ENDCHAR
STARTCHAR 012F
ENCODING 303
SWIDTH 324 0
DWIDTH 9 0
BBX 11 24 1 -5
BITMAP
03C0
07E0
07E0
07E0
0FC0
0FC0
0FC0
1F80
1F80
1F80
1F80
3F00
3F00
3F00
3F00
7F00
7E00
FE00
F000
7000
E000
FE00
FE00
1800
ENDCHAR
STARTCHAR 0130
ENCODING 304
SWIDTH 324 0
DWIDTH 9 0
BBX 11 23 1 0
BITMAP
0040
00E0
00E0
0000
03C0
07E0
07E0
07E0
0FC0
0FC0
0FC0
1F80
1F80
1F80
1F80
3F00
3F00
3F00
3F00
7F00
7E00
FE00
F000
ENDCHAR
STARTCHAR 0131
ENCODING 305
SWIDTH 324 0
DWIDTH 9 0
BBX 11 23 1 0
BITMAP
0040
00E0
00E0
0000
03C0
07E0
07E0
07E0
0FC0
0FC0
0FC0
1F80
1F80
1F80
1F80
3F00
3F00
3F00
3F00
7F00
7E00
FE00
F000
ENDCHAR
STARTCHAR 0132
ENCODING 306
SWIDTH 576 0
DWIDTH 16 0
BBX 19 19 1 0
BITMAP
0783E0
07C3E0
0787E0
0F87E0
0F87C0
0F0FC0
1F0FC0
1F0FC0
1F0FC0
1E0F80
3E0F80
3E0F80
3E0F80
3DEF00
7DFF00
7DFE00
79FE00
F9FC00
E07000
ENDCHAR
STARTCHAR 0133
ENCODING 307
SWIDTH 576 0
DWIDTH 16 0
BBX 19 19 1 0
BITMAP
0783E0
07C3E0
0787E0
0F87E0
0F87C0
0F0FC0
1F0FC0
1F0FC0
1F0FC0
1E0F80
3E0F80
3E0F80
3E0F80
3DEF00
7DFF00
7DFE00
79FE00
F9FC00
E07000
ENDCHAR
STARTCHAR 0134
ENCODING 308
SWIDTH 432 0
DWIDTH 12 0
BBX 16 24 1 0
BITMAP
001C
003E
007F
00E7
0000
007E
00FE
00FE
00FC
01FC
01FC
01FC
01FC
03FC
03F8
03F8
01F8
01F8
79F0
7BF0
FFE0
7FC0
7F80
1F00
ENDCHAR
STARTCHAR 0135
ENCODING 309
SWIDTH 432 0
DWIDTH 12 0
BBX 16 24 1 0
BITMAP
001C
003E
007F
00E7
0000
007E
00FE
00FE
00FC
01FC
01FC
01FC
01FC
03FC
03F8
03F8
01F8
01F8
79F0
7BF0
FFE0
7FC0
7F80
1F00
ENDCHAR
STARTCHAR 0136
ENCODING 310
SWIDTH 540 0
DWIDTH 15 0
BBX 17 24 1 -5
BITMAP
0FE300
0FE780
1FCF80
1FDF00
1FFE00
1FFC00
3FF800
3FF800
3FF000
3FE000
7FE000
7FF000
7FF000
7FF800
FF7800
FE7C00
FE7C00
FE3C00
FC2000
030000
078000
070000
0E0000
040000
ENDCHAR
STARTCHAR 0137
ENCODING 311
SWIDTH 540 0
DWIDTH 15 0
BBX 17 24 1 -5
BITMAP
0FE300
0FE780
1FCF80
1FDF00
1FFE00
1FFC00
3FF800
3FF800
3FF000
3FE000
7FE000
7FF000
7FF000
7FF800
FF7800
FE7C00
FE7C00
FE3C00
FC2000
030000
078000
070000
0E0000
040000
ENDCHAR
STARTCHAR 0138
ENCODING 312
SWIDTH 504 0
DWIDTH 14 0
BBX 16 15 1 0
BITMAP
1FC4
1FDF
3FBE
3FBC
3FF8
3FF0
3FE0
7FC0
7FC0
7FE0
FFF0
FEF8
FEF8
FE78
FE60
ENDCHAR
STARTCHAR 0139
ENCODING 313
SWIDTH 504 0
DWIDTH 14 0
BBX 15 24 1 0
BITMAP
000E
001C
0038
0070
0000
01F8
03F8
07F0
07F0
07F0
0FE0
0FE0
0FC0
1FC0
1FC0
1F80
3F80
3F80
3FFC
7FF8
7FF8
7FF8
FFF8
FFE0
ENDCHAR
STARTCHAR 013A
ENCODING 314
SWIDTH 504 0
DWIDTH 14 0
BBX 15 24 1 0
BITMAP
000E
001C
0038
0070
0000
01F8
03F8
07F0
07F0
07F0
0FE0
0FE0
0FC0
1FC0
1FC0
1F80
3F80
3F80
3FFC
7FF8
7FF8
7FF8
FFF8
FFE0
ENDCHAR
STARTCHAR 013B
ENCODING 315
SWIDTH 504 0
DWIDTH 14 0
BBX 14 24 1 -5
BITMAP
01F8
03F8
07F0
07F0
07F0
0FE0
0FE0
0FC0
1FC0
1FC0
1F80
3F80
3F80
3FFC
7FF8
7FF8
7FF8
FFF8
FFE0
0E00
0E00
1E00
1C00
0800
ENDCHAR
STARTCHAR 013C
ENCODING 316
SWIDTH 504 0
DWIDTH 14 0
BBX 14 24 1 -5
BITMAP
01F8
03F8
07F0
07F0
07F0
0FE0
0FE0
0FC0
1FC0
1FC0
1F80
3F80
3F80
3FFC
7FF8
7FF8
7FF8
FFF8
FFE0
0E00
0E00
1E00
1C00
0800
ENDCHAR
STARTCHAR 013D
ENCODING 317
SWIDTH 504 0
DWIDTH 14 0
BBX 17 20 1 0
BITMAP
000380
01FB80
03FB80
07F700
07F700
07F600
0FE400
0FE000
0FC000
1FC000
1FC000
1F8000
3F8000
3F8000
3FFC00
7FF800
7FF800
7FF800
FFF800
FFE000
ENDCHAR
STARTCHAR 013E
ENCODING 318
SWIDTH 504 0
DWIDTH 14 0
BBX 17 20 1 0
BITMAP
000380
01FB80
03FB80
07F700
07F700
07F600
0FE400
0FE000
0FC000
1FC000
1FC000
1F8000
3F8000
3F8000
3FFC00
7FF800
7FF800
7FF800
FFF800
FFE000
ENDCHAR
STARTCHAR 013F
ENCODING 319
SWIDTH 504 0
DWIDTH 14 0
BBX 14 19 1 0
BITMAP
01F8
03F8
07F0
07F0
07F0
0FE0
0FE0
0FC0
1FD8
1FF8
1F98
3F80
3F80
3FFC
7FF8
7FF8
7FF8
FFF8
FFE0
ENDCHAR
STARTCHAR 0140
ENCODING 320
SWIDTH 504 0
DWIDTH 14 0
BBX 14 19 1 0
BITMAP
01F8
03F8
07F0
07F0
07F0
0FE0
0FE0
0FC0
1FD8
1FF8
1F98
3F80
3F80
3FFC
7FF8
7FF8
7FF8
FFF8
FFE0
ENDCHAR
STARTCHAR 0141
ENCODING 321
SWIDTH 540 0
DWIDTH 15 0
BBX 16 19 1 0
BITMAP
00FC
01FC
03F8
03FB
07FF
07FF
07FE
07FC
0FF8
0FE0
1FC0
7FC0
FF80
FFFC
FFFC
3FFC
3FFC
7FFC
7FF0
ENDCHAR
STARTCHAR 0142
ENCODING 322
SWIDTH 540 0
DWIDTH 15 0
BBX 16 19 1 0
BITMAP
00FC
01FC
03F8
03FB
07FF
07FF
07FE
07FC
0FF8
0FE0
1FC0
7FC0
FF80
FFFC
FFFC
3FFC
3FFC
7FFC
7FF0
ENDCHAR
STARTCHAR 0143
ENCODING 323
SWIDTH 540 0
DWIDTH 15 0
BBX 18 24 1 0
BITMAP
0003C0
000780
000F00
000C00
000000
010100
07E7C0
07CFC0
0FCF80
0FCF80
1FCF80
1FDF00
1FDF00
3FDF00
3FDE00
3FFE00
3FFE00
7EFE00
7EFC00
7CFC00
FCFC00
FCFC00
F8F800
E02000
ENDCHAR
STARTCHAR 0144
ENCODING 324
SWIDTH 540 0
DWIDTH 15 0
BBX 18 24 1 0
BITMAP
0003C0
000780
000F00
000C00
000000
010100
07E7C0
07CFC0
0FCF80
0FCF80
1FCF80
1FDF00
1FDF00
3FDF00
3FDE00
3FFE00
3FFE00
7EFE00
7EFC00
7CFC00
FCFC00
FCFC00
F8F800
E02000
ENDCHAR
STARTCHAR 0145
ENCODING 325
SWIDTH 540 0
DWIDTH 15 0
BBX 18 24 1 -5
BITMAP
010100
07E7C0
07CFC0
0FCF80
0FCF80
1FCF80
1FDF00
1FDF00
3FDF00
3FDE00
3FFE00
3FFE00
7EFE00
7EFC00
7CFC00
FCFC00
FCFC00
F8F800
E02000
0E0000
0E0000
1E0000
1C0000
080000
ENDCHAR
STARTCHAR 0146
ENCODING 326
SWIDTH 540 0
DWIDTH 15 0
BBX 18 24 1 -5
BITMAP
010100
07E7C0
07CFC0
0FCF80
0FCF80
1FCF80
1FDF00
1FDF00
3FDF00
3FDE00
3FFE00
3FFE00
7EFE00
7EFC00
7CFC00
FCFC00
FCFC00
F8F800
E02000
0E0000
0E0000
1E0000
1C0000
080000
ENDCHAR
STARTCHAR 0147
ENCODING 327
SWIDTH 540 0
DWIDTH 15 0
BBX 18 24 1 0
BITMAP
006180
007780
007F00
003E00
001800
010100
07E7C0
07CFC0
0FCF80
0FCF80
1FCF80
1FDF00
1FDF00
3FDF00
3FDE00
3FFE00
3FFE00
7EFE00
7EFC00
7CFC00
FCFC00
FCFC00
F8F800
E02000
ENDCHAR
STARTCHAR 0148
ENCODING 328
SWIDTH 540 0
DWIDTH 15 0
BBX 18 24 1 0
BITMAP
006180
007780
007F00
003E00
001800
010100
07E7C0
07CFC0
0FCF80
0FCF80
1FCF80
1FDF00
1FDF00
3FDF00
3FDE00
3FFE00
3FFE00
7EFE00
7EFC00
7CFC00
FCFC00
FCFC00
F8F800
E02000
ENDCHAR
STARTCHAR 0149
ENCODING 329
SWIDTH 612 0
DWIDTH 17 0
BBX 18 20 3 0
BITMAP
3C0000
3C8100
3FE7C0
7BE7C0
7FE780
7FEF80
F7EF80
FFEF00
EFEF00
4FFF00
1FFF00
1FFE00
1FFE00
1FFE00
3EFC00
3EFC00
3E7C00
3E7C00
7CF800
702000
ENDCHAR
STARTCHAR 014A
ENCODING 330
SWIDTH 540 0
DWIDTH 15 0
BBX 16 23 1 -3
BITMAP
0400
1E7C
1FFE
1FFE
1FFF
1FFF
3FFF
3F3F
3E1F
3C1F
3C1F
7C1F
7C1E
783E
783E
783C
783C
F87C
F078
61F8
07F8
07F0
07C0
ENDCHAR
STARTCHAR 014B
ENCODING 331
SWIDTH 540 0
DWIDTH 15 0
BBX 16 23 1 -3
BITMAP
0400
1E7C
1FFE
1FFE
1FFF
1FFF
3FFF
3F3F
3E1F
3C1F
3C1F
7C1F
7C1E
783E
783E
783C
783C
F87C
F078
61F8
07F8
07F0
07C0
ENDCHAR
STARTCHAR 014C
ENCODING 332
SWIDTH 504 0
DWIDTH 14 0
BBX 14 22 2 0
BITMAP
0FF0
0FF0
0000
03C0
07E0
0FF8
0FF8
1FFC
3FFC
3FFC
7E7C
7C7C
FC7C
FC7C
FCFC
FFFC
FFF8
FFF8
7FF0
7FF0
3FE0
1F80
ENDCHAR
STARTCHAR 014D
ENCODING 333
SWIDTH 504 0
DWIDTH 14 0
BBX 14 22 2 0
BITMAP
0FF0
0FF0
0000
03C0
07E0
0FF8
0FF8
1FFC
3FFC
3FFC
7E7C
7C7C
FC7C
FC7C
FCFC
FFFC
FFF8
FFF8
7FF0
7FF0
3FE0
1F80
ENDCHAR
STARTCHAR 014E
ENCODING 334
SWIDTH 504 0
DWIDTH 14 0
BBX 14 24 2 0
BITMAP
0E38
0FF0
07E0
07C0
0000
03C0
07E0
0FF8
0FF8
1FFC
3FFC
3FFC
7E7C
7C7C
FC7C
FC7C
FCFC
FFFC
FFF8
FFF8
7FF0
7FF0
3FE0
1F80
ENDCHAR
STARTCHAR 014F
ENCODING 335
SWIDTH 504 0
DWIDTH 14 0
BBX 14 24 2 0
BITMAP
0E38
0FF0
07E0
07C0
0000
03C0
07E0
0FF8
0FF8
1FFC
3FFC
3FFC
7E7C
7C7C
FC7C
FC7C
FCFC
FFFC
FFF8
FFF8
7FF0
7FF0
3FE0
1F80
ENDCHAR
STARTCHAR 0150
ENCODING 336
SWIDTH 504 0
DWIDTH 14 0
BBX 15 24 2 0
BITMAP
03DE
039C
0738
0E70
0000
03C0
07E0
0FF8
0FF8
1FFC
3FFC
3FFC
7E7C
7C7C
FC7C
FC7C
FCFC
FFFC
FFF8
FFF8
7FF0
7FF0
3FE0
1F80
ENDCHAR
STARTCHAR 0151
ENCODING 337
SWIDTH 504 0
DWIDTH 14 0
BBX 15 24 2 0
BITMAP
03DE
039C
0738
0E70
0000
03C0
07E0
0FF8
0FF8
1FFC
3FFC
3FFC
7E7C
7C7C
FC7C
FC7C
FCFC
FFFC
FFF8
FFF8
7FF0
7FF0
3FE0
1F80
ENDCHAR
STARTCHAR 0152
ENCODING 338
SWIDTH 720 0
DWIDTH 20 0
BBX 19 19 2 0
BITMAP
007FE0
01FFE0
03FFC0
07FFC0
0FFFC0
1FFF80
3FFC00
7E7C80
7C7F80
7C7F80
FC7F00
FCF800
FFFFC0
FFFFE0
FFFFE0
FFFFE0
FFFFE0
FFFF80
3FF000
ENDCHAR
STARTCHAR 0153
ENCODING 339
SWIDTH 720 0
DWIDTH 20 0
BBX 19 19 2 0
BITMAP
007FE0
01FFE0
03FFC0
07FFC0
0FFFC0
1FFF80
3FFC00
7E7C80
7C7F80
7C7F80
FC7F00
FCF800
FFFFC0
FFFFE0
FFFFE0
FFFFE0
FFFFE0
FFFF80
3FF000
ENDCHAR
STARTCHAR 0154
ENCODING 340
SWIDTH 576 0
DWIDTH 16 0
BBX 14 24 2 0
BITMAP
00F0
01E0
03C0
0380
0000
03E0
3FF8
3FFC
3F1C
3F1C
3F1C
7F1C
7F3C
7FF8
7FF0
7FE0
7FE0
7EF0
FEF0
FEF8
FE78
FE78
FE7C
FC78
ENDCHAR
STARTCHAR 0155
ENCODING 341
SWIDTH 576 0
DWIDTH 16 0
BBX 14 24 2 0
BITMAP
00F0
01E0
03C0
0380
0000
03E0
3FF8
3FFC
3F1C
3F1C
3F1C
7F1C
7F3C
7FF8
7FF0
7FE0
7FE0
7EF0
FEF0
FEF8
FE78
FE78
FE7C
FC78
ENDCHAR
STARTCHAR 0156
ENCODING 342
SWIDTH 576 0
DWIDTH 16 0
BBX 14 24 2 -5
BITMAP
03E0
3FF8
3FFC
3F1C
3F1C
3F1C
7F1C
7F3C
7FF8
7FF0
7FE0
7FE0
7EF0
FEF0
FEF8
FE78
FE78
FE7C
FC78
0300
0780
0700
0F00
0400
ENDCHAR
STARTCHAR 0157
ENCODING 343
SWIDTH 576 0
DWIDTH 16 0
BBX 14 24 2 -5
BITMAP
03E0
3FF8
3FFC
3F1C
3F1C
3F1C
7F1C
7F3C
7FF8
7FF0
7FE0
7FE0
7EF0
FEF0
FEF8
FE78
FE78
FE7C
FC78
0300
0780
0700
0F00
0400
ENDCHAR
STARTCHAR 0158
ENCODING 344
SWIDTH 576 0
DWIDTH 16 0
BBX 14 24 2 0
BITMAP
0C70
1FE0
0FC0
0780
0000
03E0
3FF8
3FFC
3F1C
3F1C
3F1C
7F1C
7F3C
7FF8
7FF0
7FE0
7FE0
7EF0
FEF0
FEF8
FE78
FE78
FE7C
FC78
ENDCHAR
STARTCHAR 0159
ENCODING 345
SWIDTH 576 0
DWIDTH 16 0
BBX 14 24 2 0
BITMAP
0C70
1FE0
0FC0
0780
0000
03E0
3FF8
3FFC
3F1C
3F1C
3F1C
7F1C
7F3C
7FF8
7FF0
7FE0
7FE0
7EF0
FEF0
FEF8
FE78
FE78
FE7C
FC78
ENDCHAR
STARTCHAR 015A
ENCODING 346
SWIDTH 504 0
DWIDTH 14 0
BBX 16 24 1 0
BITMAP
000F
001E
001C
0038
0000
01FF
03FF
07FE
0FFE
0FFC
1FF8
1FF8
1F10
1F80
1FE0
0FF8
01F8
0078
20F8
FFF8
FFF8
FFF0
7FC0
3F80
ENDCHAR
STARTCHAR 015B
ENCODING 347
SWIDTH 504 0
DWIDTH 14 0
BBX 16 24 1 0
BITMAP
000F
001E
001C
0038
0000
01FF
03FF
07FE
0FFE
0FFC
1FF8
1FF8
1F10
1F80
1FE0
0FF8
01F8
0078
20F8
FFF8
FFF8
FFF0
7FC0
3F80
ENDCHAR
STARTCHAR 015C
ENCODING 348
SWIDTH 504 0
DWIDTH 14 0
BBX 16 24 1 0
BITMAP
0018
007C
00FE
01CE
0000
01FF
03FF
07FE
0FFE
0FFC
1FF8
1FF8
1F10
1F80
1FE0
0FF8
01F8
0078
20F8
FFF8
FFF8
FFF0
7FC0
3F80
ENDCHAR
STARTCHAR 015D
ENCODING 349
SWIDTH 504 0
DWIDTH 14 0
BBX 16 24 1 0
BITMAP
0018
007C
00FE
01CE
0000
01FF
03FF
07FE
0FFE
0FFC
1FF8
1FF8
1F10
1F80
1FE0
0FF8
01F8
0078
20F8
FFF8
FFF8
FFF0
7FC0
3F80
ENDCHAR
STARTCHAR 015E
ENCODING 350
SWIDTH 504 0
DWIDTH 14 0
BBX 16 24 1 -5
BITMAP
01FF
03FF
07FE
0FFE
0FFC
1FF8
1FF8
1F10
1F80
1FE0
0FF8
01F8
0078
20F8
FFF8
FFF8
FFF0
7FC0
3F80
0E00
0700
6780
7F00
1C00
ENDCHAR
STARTCHAR 015F
ENCODING 351
SWIDTH 504 0
DWIDTH 14 0
BBX 16 24 1 -5
BITMAP
01FF
03FF
07FE
0FFE
0FFC
1FF8
1FF8
1F10
1F80
1FE0
0FF8
01F8
0078
20F8
FFF8
FFF8
FFF0
7FC0
3F80
0E00
0700
6780
7F00
1C00
ENDCHAR
STARTCHAR 0160
ENCODING 352
SWIDTH 504 0
DWIDTH 14 0
BBX 16 24 1 0
BITMAP
00C7
00FF
00FC
0078
0000
01FF
03FF
07FE
0FFE
0FFC
1FF8
1FF8
1F10
1F80
1FE0
0FF8
01F8
0078
20F8
FFF8
FFF8
FFF0
7FC0
3F80
ENDCHAR
STARTCHAR 0161
ENCODING 353
SWIDTH 504 0
DWIDTH 14 0
BBX 16 24 1 0
BITMAP
00C7
00FF
00FC
0078
0000
01FF
03FF
07FE
0FFE
0FFC
1FF8
1FF8
1F10
1F80
1FE0
0FF8
01F8
0078
20F8
FFF8
FFF8
FFF0
7FC0
3F80
ENDCHAR
STARTCHAR 0162
ENCODING 354
SWIDTH 576 0
DWIDTH 16 0
BBX 16 24 3 -5
BITMAP
1FFE
7FFF
7FFF
7FFF
7FFF
FFFA
E3E0
03C0
07C0
0780
0780
0780
0F80
0F00
0F00
0F00
0F00
1E00
1E00
0E00
0700
6780
7F00
1E00
ENDCHAR
STARTCHAR 0163
ENCODING 355
SWIDTH 576 0
DWIDTH 16 0
BBX 16 24 3 -5
BITMAP
1FFE
7FFF
7FFF
7FFF
7FFF
FFFA
E3E0
03C0
07C0
0780
0780
0780
0F80
0F00
0F00
0F00
0F00
1E00
1E00
0E00
0700
6780
7F00
1E00
ENDCHAR
STARTCHAR 0164
ENCODING 356
SWIDTH 576 0
DWIDTH 16 0
BBX 16 24 3 0
BITMAP
038C
03FC
01F8
00E0
0000
1FFE
7FFF
7FFF
7FFF
7FFF
FFFA
E3E0
03C0
07C0
0780
0780
0780
0F80
0F00
0F00
0F00
0F00
1E00
1E00
ENDCHAR
STARTCHAR 0165
ENCODING 357
SWIDTH 576 0
DWIDTH 16 0
BBX 16 24 3 0
BITMAP
038C
03FC
01F8
00E0
0000
1FFE
7FFF
7FFF
7FFF
7FFF
FFFA
E3E0
03C0
07C0
0780
0780
0780
0F80
0F00
0F00
0F00
0F00
1E00
1E00
ENDCHAR
STARTCHAR 0166
ENCODING 358
SWIDTH 576 0
DWIDTH 16 0
BBX 16 19 3 0
BITMAP
1FFE
7FFF
7FFF
7FFF
7FFF
FFFA
E3E0
03C0
07C0
7FF8
7FF8
7FF8
0F80
0F00
0F00
0F00
0F00
1E00
1E00
ENDCHAR
STARTCHAR 0167
ENCODING 359
SWIDTH 576 0
DWIDTH 16 0
BBX 16 19 3 0
BITMAP
1FFE
7FFF
7FFF
7FFF
7FFF
FFFA
E3E0
03C0
07C0
7FF8
7FF8
7FF8
0F80
0F00
0F00
0F00
0F00
1E00
1E00
ENDCHAR
STARTCHAR 0168
ENCODING 360
SWIDTH 540 0
DWIDTH 15 0
BBX 16 23 2 1
BITMAP
0067
00FF
00FF
01FC
0000
0F0F
0F0F
1E0F
1E0F
3E1F
3C1F
7C1E
7C3E
7C3E
FC3E
FE7C
FFFC
FFF8
FFF8
FFF0
7FE0
7FC0
3F80
ENDCHAR
STARTCHAR 0169
ENCODING 361
SWIDTH 540 0
DWIDTH 15 0
BBX 16 23 2 1
BITMAP
0067
00FF
00FF
01FC
0000
0F0F
0F0F
1E0F
1E0F
3E1F
3C1F
7C1E
7C3E
7C3E
FC3E
FE7C
FFFC
FFF8
FFF8
FFF0
7FE0
7FC0
3F80
ENDCHAR
STARTCHAR 016A
ENCODING 362
SWIDTH 540 0
DWIDTH 15 0
BBX 16 21 2 1
BITMAP
01FE
01FE
0000
0F0F
0F0F
1E0F
1E0F
3E1F
3C1F
7C1E
7C3E
7C3E
FC3E
FE7C
FFFC
FFF8
FFF8
FFF0
7FE0
7FC0
3F80
ENDCHAR
STARTCHAR 016B
ENCODING 363
SWIDTH 540 0
DWIDTH 15 0
BBX 16 21 2 1
BITMAP
01FE
01FE
0000
0F0F
0F0F
1E0F
1E0F
3E1F
3C1F
7C1E
7C3E
7C3E
FC3E
FE7C
FFFC
FFF8
FFF8
FFF0
7FE0
7FC0
3F80
ENDCHAR
STARTCHAR 016C
ENCODING 364
SWIDTH 540 0
DWIDTH 15 0
BBX 16 23 2 1
BITMAP
00C3
00E7
00FE
007C
0000
0F0F
0F0F
1E0F
1E0F
3E1F
3C1F
7C1E
7C3E
7C3E
FC3E
FE7C
FFFC
FFF8
FFF8
FFF0
7FE0
7FC0
3F80
ENDCHAR
STARTCHAR 016D
ENCODING 365
SWIDTH 540 0
DWIDTH 15 0
BBX 16 23 2 1
BITMAP
00C3
00E7
00FE
007C
0000
0F0F
0F0F
1E0F
1E0F
3E1F
3C1F
7C1E
7C3E
7C3E
FC3E
FE7C
FFFC
FFF8
FFF8
FFF0
7FE0
7FC0
3F80
ENDCHAR
STARTCHAR 016E
ENCODING 366
SWIDTH 540 0
DWIDTH 15 0
BBX 16 24 2 1
BITMAP
007C
00EE
01C6
01CE
01DE
00F8
0F0F
0F0F
1E0F
1E0F
3E1F
3C1F
7C1E
7C3E
7C3E
FC3E
FE7C
FFFC
FFF8
FFF8
FFF0
7FE0
7FC0
3F80
ENDCHAR
STARTCHAR 016F
ENCODING 367
SWIDTH 540 0
DWIDTH 15 0
BBX 16 24 2 1
BITMAP
007C
00EE
01C6
01CE
01DE
00F8
0F0F
0F0F
1E0F
1E0F
3E1F
3C1F
7C1E
7C3E
7C3E
FC3E
FE7C
FFFC
FFF8
FFF8
FFF0
7FE0
7FC0
3F80
ENDCHAR
STARTCHAR 0170
ENCODING 368
SWIDTH 540 0
DWIDTH 15 0
BBX 18 23 2 1
BITMAP
003BC0
007380
00E700
01CE00
000000
0F0F00
0F0F00
1E0F00
1E0F00
3E1F00
3C1F00
7C1E00
7C3E00
7C3E00
FC3E00
FE7C00
FFFC00
FFF800
FFF800
FFF000
7FE000
7FC000
3F8000
ENDCHAR
STARTCHAR 0171
ENCODING 369
SWIDTH 540 0
DWIDTH 15 0
BBX 18 23 2 1
BITMAP
003BC0
007380
00E700
01CE00
000000
0F0F00
0F0F00
1E0F00
1E0F00
3E1F00
3C1F00
7C1E00
7C3E00
7C3E00
FC3E00
FE7C00
FFFC00
FFF800
FFF800
FFF000
7FE000
7FC000
3F8000
ENDCHAR
STARTCHAR 0172
ENCODING 370
SWIDTH 540 0
DWIDTH 15 0
BBX 16 23 2 -5
BITMAP
0F0F
0F0F
1E0F
1E0F
3E1F
3C1F
7C1E
7C3E
7C3E
FC3E
FE7C
FFFC
FFF8
FFF8
FFF0
7FE0
7FC0
3F80
0C00
1800
3800
3F80
3F80
ENDCHAR
STARTCHAR 0173
ENCODING 371
SWIDTH 540 0
DWIDTH 15 0
BBX 16 23 2 -5
BITMAP
0F0F
0F0F
1E0F
1E0F
3E1F
3C1F
7C1E
7C3E
7C3E
FC3E
FE7C
FFFC
FFF8
FFF8
FFF0
7FE0
7FC0
3F80
0C00
1800
3800
3F80
3F80
ENDCHAR
STARTCHAR 0174
ENCODING 372
SWIDTH 720 0
DWIDTH 20 0
BBX 19 24 4 0
BITMAP
007000
00FC00
01FE00
038C00
000000
7001A0
F861E0
FC63E0
FC67C0
FCE7C0
FCEF80
FCFF80
FFFF80
7FFF00
7FFF00
7FFE00
7FFE00
3F7E00
3E7C00
3E7C00
3C7C00
1C7800
187000
080000
ENDCHAR
STARTCHAR 0175
ENCODING 373
SWIDTH 720 0
DWIDTH 20 0
BBX 19 24 4 0
BITMAP
007000
00FC00
01FE00
038C00
000000
7001A0
F861E0
FC63E0
FC67C0
FCE7C0
FCEF80
FCFF80
FFFF80
7FFF00
7FFF00
7FFE00
7FFE00
3F7E00
3E7C00
3E7C00
3C7C00
1C7800
187000
080000
ENDCHAR
STARTCHAR 0176
ENCODING 374
SWIDTH 612 0
DWIDTH 17 0
BBX 17 24 4 0
BITMAP
00E000
03F000
07F800
0F3000
000000
000F80
781F00
F81E00
FC3C00
FC7C00
7C7800
7CF000
7FF000
3FE000
3FC000
3FC000
1F8000
1F0000
1F0000
1F0000
1F0000
1E0000
1E0000
1E0000
ENDCHAR
STARTCHAR 0177
ENCODING 375
SWIDTH 612 0
DWIDTH 17 0
BBX 17 24 4 0
BITMAP
00E000
03F000
07F800
0F3000
000000
000F80
781F00
F81E00
FC3C00
FC7C00
7C7800
7CF000
7FF000
3FE000
3FC000
3FC000
1F8000
1F0000
1F0000
1F0000
1F0000
1E0000
1E0000
1E0000
ENDCHAR
STARTCHAR 0178
ENCODING 376
SWIDTH 612 0
DWIDTH 17 0
BBX 17 23 4 0
BITMAP
001000
033800
073800
020000
000F80
781F00
F81E00
FC3C00
FC7C00
7C7800
7CF000
7FF000
3FE000
3FC000
3FC000
1F8000
1F0000
1F0000
1F0000
1F0000
1E0000
1E0000
1E0000
ENDCHAR
STARTCHAR 0179
ENCODING 377
SWIDTH 576 0
DWIDTH 16 0
BBX 14 24 4 0
BITMAP
0078
00F0
01E0
01C0
0000
0FFC
7FF8
7FF0
FFE0
FFE0
03C0
0780
0780
0F00
1F00
1E00
3E00
3C00
7800
7FF8
FFF8
FFF0
3FE0
0F00
ENDCHAR
STARTCHAR 017A
ENCODING 378
SWIDTH 576 0
DWIDTH 16 0
BBX 14 24 4 0
BITMAP
0078
00F0
01E0
01C0
0000
0FFC
7FF8
7FF0
FFE0
FFE0
03C0
0780
0780
0F00
1F00
1E00
3E00
3C00
7800
7FF8
FFF8
FFF0
3FE0
0F00
ENDCHAR
STARTCHAR 017B
ENCODING 379
SWIDTH 576 0
DWIDTH 16 0
BBX 14 23 4 0
BITMAP
0100
0380
0380
0000
0FFC
7FF8
7FF0
FFE0
FFE0
03C0
0780
0780
0F00
1F00
1E00
3E00
3C00
7800
7FF8
FFF8
FFF0
3FE0
0F00
ENDCHAR
STARTCHAR 017C
ENCODING 380
SWIDTH 576 0
DWIDTH 16 0
BBX 14 23 4 0
BITMAP
0100
0380
0380
0000
0FFC
7FF8
7FF0
FFE0
FFE0
03C0
0780
0780
0F00
1F00
1E00
3E00
3C00
7800
7FF8
FFF8
FFF0
3FE0
0F00
ENDCHAR
STARTCHAR 017D
ENCODING 381
SWIDTH 576 0
DWIDTH 16 0
BBX 14 24 4 0
BITMAP
0E30
0FF0
07E0
03C0
0000
0FFC
7FF8
7FF0
FFE0
FFE0
03C0
0780
0780
0F00
1F00
1E00
3E00
3C00
7800
7FF8
FFF8
FFF0
3FE0
0F00
ENDCHAR
STARTCHAR 017E
ENCODING 382
SWIDTH 576 0
DWIDTH 16 0
BBX 14 24 4 0
BITMAP
0E30
0FF0
07E0
03C0
0000
0FFC
7FF8
7FF0
FFE0
FFE0
03C0
0780
0780
0F00
1F00
1E00
3E00
3C00
7800
7FF8
FFF8
FFF0
3FE0
0F00
ENDCHAR
STARTCHAR 017F
ENCODING 383
SWIDTH 432 0
DWIDTH 12 0
BBX 14 23 1 -4
BITMAP
03F8
07FC
0FFC
1FBC
1E10
3E00
3E00
3C00
3C00
3C00
3C00
3C00
7C00
7C00
7C00
7800
7800
7800
F800
F800
F000
F000
F000
ENDCHAR
STARTCHAR 0180
ENCODING 384
SWIDTH 504 0
DWIDTH 14 0
BBX 14 19 1 0
BITMAP
07F0
1FF8
1FF8
1FFC
1F7C
1E3C
1E38
1F78
1FE0
1FF8
3FFC
3F7C
7FBC
7FBC
FF7C
3FF8
3FF0
3FE0
3C00
ENDCHAR
STARTCHAR 0181
ENCODING 385
SWIDTH 648 0
DWIDTH 18 0
BBX 17 19 3 0
BITMAP
07FC00
1FFE00
3FFF00
7FFF00
7FCF00
F7CF00
E7CE00
E7DE00
F7FC00
F7FE00
77FF00
77CF00
07CF80
0FCF80
0FFF00
0FFF00
0FFC00
0FF800
078000
ENDCHAR
STARTCHAR 0186
ENCODING 390
SWIDTH 468 0
DWIDTH 13 0
BBX 14 19 2 0
BITMAP
0780
1FF0
3FF8
3FF8
3FFC
07FC
01FC
00FC
00FC
00F8
41F8
FFF8
FFF0
FFF0
FFE0
FFE0
FFC0
7F80
1800
ENDCHAR
STARTCHAR 0187
ENCODING 391
SWIDTH 468 0
DWIDTH 13 0
BBX 16 24 2 0
BITMAP
000F
001F
007F
007F
00F8
00F8
03FC
0FFE
1FFC
3FFC
3FC0
7F00
7E00
7C00
7C00
FE10
FFF8
FFF0
FFF0
FFF0
7FF0
7FC0
7FC0
0600
ENDCHAR
STARTCHAR 0188
ENCODING 392
SWIDTH 468 0
DWIDTH 13 0
BBX 16 24 2 0
BITMAP
000F
001F
007F
007F
00F8
00F8
03FC
0FFE
1FFC
3FFC
3FC0
7F00
7E00
7C00
7C00
FE10
FFF8
FFF0
FFF0
FFF0
7FF0
7FC0
7FC0
0600
ENDCHAR
STARTCHAR 0189
ENCODING 393
SWIDTH 468 0
DWIDTH 13 0
BBX 14 19 2 0
BITMAP
0F80
1FE0
1FF0
1FF8
3FF8
3F7C
3FBC
FFBC
FFBC
FFF8
FEF0
3FF0
3FE0
3FC0
3F80
3F80
3E00
3C00
2000
ENDCHAR
STARTCHAR 018A
ENCODING 394
SWIDTH 612 0
DWIDTH 17 0
BBX 17 19 3 0
BITMAP
07F000
1FFC00
3FFE00
7FFF00
7FFF00
F7EF00
E7C780
E7C780
F7C780
F7CF00
77DE00
77FE00
07FC00
07F800
07F000
07E000
07C000
070000
040000
ENDCHAR
STARTCHAR 018F
ENCODING 399
SWIDTH 468 0
DWIDTH 13 0
BBX 13 19 2 0
BITMAP
07E0
1FF0
3FF0
3FF8
18F8
0078
0038
3FF8
7FF8
7FF8
7FF8
F8F8
F9F0
FFF0
FFF0
FFF0
7FE0
3FC0
0700
ENDCHAR
STARTCHAR 0190
ENCODING 400
SWIDTH 468 0
DWIDTH 13 0
BBX 13 19 2 0
BITMAP
07F0
0FF8
1FF8
3F98
3E00
7C00
7C00
3E00
3FE0
1FE0
3FC0
7C00
7C00
7800
FC70
FFF0
7FE0
7FE0
1F80
ENDCHAR
STARTCHAR 0191
ENCODING 401
SWIDTH 504 0
DWIDTH 14 0
BBX 19 24 -2 -4
BITMAP
000180
00FFE0
03FFE0
03FFE0
03FFE0
03E000
07E000
07C000
07F800
07F800
07F800
0FF000
0F8000
0F8000
0F8000
1F0000
1F0000
1F0000
1F0000
3E0000
FE0000
FC0000
F80000
800000
ENDCHAR
STARTCHAR 0192
ENCODING 402
SWIDTH 504 0
DWIDTH 14 0
BBX 19 24 -2 -4
BITMAP
000180
00FFE0
03FFE0
03FFE0
03FFE0
03E000
07E000
07C000
07F800
07F800
07F800
0FF000
0F8000
0F8000
0F8000
1F0000
1F0000
1F0000
1F0000
3E0000
FE0000
FC0000
F80000
800000
ENDCHAR
STARTCHAR 0193
ENCODING 403
SWIDTH 504 0
DWIDTH 14 0
BBX 18 24 1 0
BITMAP
0003C0
000F80
001F80
003F80
003E00
00FC00
01FE00
03FE00
07FE00
0F8C00
0F0000
1E0000
1C0000
3C7E00
3CFC00
3CFC00
7CFC00
7CFC00
7FFC00
FFF800
FFF000
7FE000
3F8000
1C0000
ENDCHAR
STARTCHAR 0194
ENCODING 404
SWIDTH 612 0
DWIDTH 17 0
BBX 16 23 4 -4
BITMAP
F000
F81E
781F
783E
783E
787C
78F8
78F8
7DF0
3DE0
3FE0
1FC0
1F80
1F00
3F80
7F80
7780
E380
E700
FF00
FE00
7C00
1000
ENDCHAR
STARTCHAR 0197
ENCODING 407
SWIDTH 360 0
DWIDTH 10 0
BBX 12 19 1 0
BITMAP
03E0
03F0
03E0
07E0
07E0
0FC0
0FC0
0FC0
3FE0
7FE0
7FC0
3F80
3F80
3F00
3F00
3F00
7E00
7E00
F000
ENDCHAR
STARTCHAR 0198
ENCODING 408
SWIDTH 576 0
DWIDTH 16 0
BBX 19 19 1 0
BITMAP
0FE380
0FE7C0
1FCFC0
1FDFE0
1FFDE0
1FF9C0
3FF9C0
3FF780
3FE780
3FE700
7FE000
7FF000
7FF000
7FF800
FF7800
FE7C00
FE7C00
FE3C00
FC2000
ENDCHAR
STARTCHAR 0199
ENCODING 409
SWIDTH 576 0
DWIDTH 16 0
BBX 19 19 1 0
BITMAP
0FE380
0FE7C0
1FCFC0
1FDFE0
1FFDE0
1FF9C0
3FF9C0
3FF780
3FE780
3FE700
7FE000
7FF000
7FF000
7FF800
FF7800
FE7C00
FE7C00
FE3C00
FC2000
ENDCHAR
STARTCHAR 019D
ENCODING 413
SWIDTH 540 0
DWIDTH 15 0
BBX 21 23 -2 -4
BITMAP
002020
00FCF8
00F9F8
01F9F0
01F9F0
03F9F0
03FBE0
03FBE0
07FBE0
07FBC0
07FFC0
07FFC0
0FDFC0
0FDF80
0F9F80
1F9F80
1F1F80
1F1F00
3F0400
FE0000
FC0000
F80000
800000
ENDCHAR
STARTCHAR 01A0
ENCODING 416
SWIDTH 540 0
DWIDTH 15 0
BBX 17 20 2 0
BITMAP
000380
03C380
07E380
0FFB00
0FFB00
1FFF00
3FFF00
3FFE00
7E7C00
7C7C00
FC7C00
FC7C00
FCFC00
FFFC00
FFF800
FFF800
7FF000
7FF000
3FE000
1F8000
ENDCHAR
STARTCHAR 01A1
ENCODING 417
SWIDTH 540 0
DWIDTH 15 0
BBX 17 20 2 0
BITMAP
000380
03C380
07E380
0FFB00
0FFB00
1FFF00
3FFF00
3FFE00
7E7C00
7C7C00
FC7C00
FC7C00
FCFC00
FFFC00
FFF800
FFF800
7FF000
7FF000
3FE000
1F8000
ENDCHAR
STARTCHAR 01AF
ENCODING 431
SWIDTH 576 0
DWIDTH 16 0
BBX 18 20 2 0
BITMAP
0001C0
000DC0
3E3CC0
3C3CC0
3C3CC0
3C3F80
7C3F80
783F00
787C00
787C00
F87C00
F8F800
FFF800
7FF800
7FF000
7FF000
7FE000
3FE000
3FC000
1E0000
ENDCHAR
STARTCHAR 01B0
ENCODING 432
SWIDTH 576 0
DWIDTH 16 0
BBX 18 20 2 0
BITMAP
0001C0
000DC0
3E3CC0
3C3CC0
3C3CC0
3C3F80
7C3F80
783F00
787C00
787C00
F87C00
F8F800
FFF800
7FF800
7FF000
7FF000
7FE000
3FE000
3FC000
1E0000
ENDCHAR
STARTCHAR 01B1
ENCODING 433
SWIDTH 612 0
DWIDTH 17 0
BBX 19 19 2 0
BITMAP
3F8FE0
3F8FC0
3F9FC0
3F9FC0
0F0F00
1E0F00
3C0F00
3C0700
780780
780F00
780F00
F81F00
F83E00
FFFE00
FFFC00
FFFC00
7FF800
7FE000
3F8000
ENDCHAR
STARTCHAR 01B2
ENCODING 434
SWIDTH 540 0
DWIDTH 15 0
BBX 15 18 3 1
BITMAP
38F0
79F8
78F8
787C
787C
F83C
F83E
F83C
F87C
F87C
F8FC
FFFC
FFF8
FFF8
FFF0
7FE0
3FE0
3F80
ENDCHAR
STARTCHAR 01B3
ENCODING 435
SWIDTH 648 0
DWIDTH 18 0
BBX 17 19 4 0
BITMAP
000F00
781F80
F83F80
FC3F80
FC7F80
7CFB80
7CF380
7FF780
3FEF00
3FCF00
3FDE00
1F9C00
1F0000
1F0000
1F0000
1F0000
1E0000
1E0000
1E0000
ENDCHAR
STARTCHAR 01B4
ENCODING 436
SWIDTH 648 0
DWIDTH 18 0
BBX 17 19 4 0
BITMAP
000F00
781F80
F83F80
FC3F80
FC7F80
7CFB80
7CF380
7FF780
3FEF00
3FCF00
3FDE00
1F9C00
1F0000
1F0000
1F0000
1F0000
1E0000
1E0000
1E0000
ENDCHAR
STARTCHAR 01B5
ENCODING 437
SWIDTH 576 0
DWIDTH 16 0
BBX 15 19 3 0
BITMAP
07FE
3FFC
3FF8
7FF0
7FF0
01E0
03C0
03F8
7FF8
7FF8
FFF8
1F00
1E00
3C00
3FFC
7FFC
7FF8
1FF0
07C0
ENDCHAR
STARTCHAR 01B6
ENCODING 438
SWIDTH 576 0
DWIDTH 16 0
BBX 15 19 3 0
BITMAP
07FE
3FFC
3FF8
7FF0
7FF0
01E0
03C0
03F8
7FF8
7FF8
FFF8
1F00
1E00
3C00
3FFC
7FFC
7FF8
1FF0
07C0
ENDCHAR
STARTCHAR 01B7
ENCODING 439
SWIDTH 468 0
DWIDTH 13 0
BBX 15 19 1 0
BITMAP
07FC
0FFE
0FFC
0018
0070
01F0
03E0
07F8
1FF8
0FFC
003C
003C
003C
403C
FCF8
FFF8
FFF0
7FE0
1F80
ENDCHAR
STARTCHAR 01BB
ENCODING 443
SWIDTH 504 0
DWIDTH 14 0
BBX 14 19 2 0
BITMAP
07C0
0FF0
1FF0
3FF0
3DF0
18F0
00E0
3FFC
3FFC
3FFC
3F80
0FF8
0FF8
1FF8
3FF0
7FF0
FFE0
FF80
1C00
ENDCHAR
STARTCHAR 01C0
ENCODING 448
SWIDTH 180 0
DWIDTH 5 0
BBX 8 19 1 0
BITMAP
0F
1E
1E
1E
1E
3E
3C
3C
3C
3C
78
78
78
78
F8
F0
F0
F0
F0
ENDCHAR
STARTCHAR 01C1
ENCODING 449
SWIDTH 288 0
DWIDTH 8 0
BBX 11 19 1 0
BITMAP
0EE0
1EE0
1DE0
1DE0
1DC0
3DC0
3FC0
3BC0
3B80
3B80
7B80
7380
7780
7700
F700
F700
EF00
EE00
EE00
ENDCHAR
STARTCHAR 01C2
ENCODING 450
SWIDTH 324 0
DWIDTH 9 0
BBX 11 19 1 0
BITMAP
0380
0780
0780
0780
07E0
3FE0
3FC0
3FC0
0F00
0F00
1F00
1E00
7F80
7F80
FF80
7C00
3C00
3C00
3C00
ENDCHAR
STARTCHAR 01C3
ENCODING 451
SWIDTH 180 0
DWIDTH 5 0
BBX 8 19 1 0
BITMAP
0F
1F
1F
1F
1F
1E
3E
3E
3C
3C
3C
78
20
00
30
F8
F8
F0
60
ENDCHAR
STARTCHAR 01CA
ENCODING 458
SWIDTH 720 0
DWIDTH 20 0
BBX 22 19 1 0
BITMAP
00003C
0FBC3C
0F3C3C
0F387C
1F787C
1F787C
1F70FC
1F70F8
3FF0F8
3FF0F8
3FE0F8
7BE0F8
7BE0F0
7BEEF0
7BCEF0
F3DFE0
F3CFC0
F3CF80
C10700
ENDCHAR
STARTCHAR 01CB
ENCODING 459
SWIDTH 720 0
DWIDTH 20 0
BBX 22 19 1 0
BITMAP
00003C
0FBC3C
0F3C3C
0F387C
1F787C
1F787C
1F70FC
1F70F8
3FF0F8
3FF0F8
3FE0F8
7BE0F8
7BE0F0
7BEEF0
7BCEF0
F3DFE0
F3CFC0
F3CF80
C10700
ENDCHAR
STARTCHAR 01CC
ENCODING 460
SWIDTH 720 0
DWIDTH 20 0
BBX 22 19 1 0
BITMAP
00003C
0FBC3C
0F3C3C
0F387C
1F787C
1F787C
1F70FC
1F70F8
3FF0F8
3FF0F8
3FE0F8
7BE0F8
7BE0F0
7BEEF0
7BCEF0
F3DFE0
F3CFC0
F3CF80
C10700
ENDCHAR
STARTCHAR 01CD
ENCODING 461
SWIDTH 612 0
DWIDTH 17 0
BBX 18 25 0 -1
BITMAP
0038C0
003FC0
001F80
000E00
000000
000600
001E00
001E00
003E00
003E00
007E00
007E00
00FE00
01FE00
01FE00
03BE00
073F00
061F00
0FFF00
1FFF00
1F3F00
3E3F00
7C3F80
7C3F80
C00000
ENDCHAR
STARTCHAR 01CE
ENCODING 462
SWIDTH 612 0
DWIDTH 17 0
BBX 18 25 0 -1
BITMAP
0038C0
003FC0
001F80
000E00
000000
000600
001E00
001E00
003E00
003E00
007E00
007E00
00FE00
01FE00
01FE00
03BE00
073F00
061F00
0FFF00
1FFF00
1F3F00
3E3F00
7C3F80
7C3F80
C00000
ENDCHAR
STARTCHAR 01CF
ENCODING 463
SWIDTH 324 0
DWIDTH 9 0
BBX 14 24 1 0
BITMAP
039C
03BC
01F8
00E0
0000
03C0
07E0
07E0
07E0
0FC0
0FC0
0FC0
1F80
1F80
1F80
1F80
3F00
3F00
3F00
3F00
7F00
7E00
FE00
F000
ENDCHAR
STARTCHAR 01D0
ENCODING 464
SWIDTH 324 0
DWIDTH 9 0
BBX 14 24 1 0
BITMAP
039C
03BC
01F8
00E0
0000
03C0
07E0
07E0
07E0
0FC0
0FC0
0FC0
1F80
1F80
1F80
1F80
3F00
3F00
3F00
3F00
7F00
7E00
FE00
F000
ENDCHAR
STARTCHAR 01D1
ENCODING 465
SWIDTH 504 0
DWIDTH 14 0
BBX 14 24 2 0
BITMAP
0E70
0FF0
07C0
0380
0000
03C0
07E0
0FF8
0FF8
1FFC
3FFC
3FFC
7E7C
7C7C
FC7C
FC7C
FCFC
FFFC
FFF8
FFF8
7FF0
7FF0
3FE0
1F80
ENDCHAR
STARTCHAR 01D2
ENCODING 466
SWIDTH 504 0
DWIDTH 14 0
BBX 14 24 2 0
BITMAP
0E70
0FF0
07C0
0380
0000
03C0
07E0
0FF8
0FF8
1FFC
3FFC
3FFC
7E7C
7C7C
FC7C
FC7C
FCFC
FFFC
FFF8
FFF8
7FF0
7FF0
3FE0
1F80
ENDCHAR
STARTCHAR 01D3
ENCODING 467
SWIDTH 540 0
DWIDTH 15 0
BBX 16 23 2 1
BITMAP
00E7
00EF
007E
0038
0000
0F0F
0F0F
1E0F
1E0F
3E1F
3C1F
7C1E
7C3E
7C3E
FC3E
FE7C
FFFC
FFF8
FFF8
FFF0
7FE0
7FC0
3F80
ENDCHAR
STARTCHAR 01D4
ENCODING 468
SWIDTH 540 0
DWIDTH 15 0
BBX 16 23 2 1
BITMAP
00E7
00EF
007E
0038
0000
0F0F
0F0F
1E0F
1E0F
3E1F
3C1F
7C1E
7C3E
7C3E
FC3E
FE7C
FFFC
FFF8
FFF8
FFF0
7FE0
7FC0
3F80
ENDCHAR
STARTCHAR 01D5
ENCODING 469
SWIDTH 540 0
DWIDTH 15 0
BBX 16 24 2 1
BITMAP
00FF
00FF
0000
00CE
01CE
008C
0F0F
0F0F
1E0F
1E0F
3E1F
3C1F
7C1E
7C3E
7C3E
FC3E
FE7C
FFFC
FFF8
FFF8
FFF0
7FE0
7FC0
3F80
ENDCHAR
STARTCHAR 01D6
ENCODING 470
SWIDTH 540 0
DWIDTH 15 0
BBX 16 24 2 1
BITMAP
00FF
00FF
0000
00CE
01CE
008C
0F0F
0F0F
1E0F
1E0F
3E1F
3C1F
7C1E
7C3E
7C3E
FC3E
FE7C
FFFC
FFF8
FFF8
FFF0
7FE0
7FC0
3F80
ENDCHAR
STARTCHAR 01D7
ENCODING 471
SWIDTH 540 0
DWIDTH 15 0
BBX 16 24 2 1
BITMAP
000F
001E
0038
00CE
01CE
008C
0F0F
0F0F
1E0F
1E0F
3E1F
3C1F
7C1E
7C3E
7C3E
FC3E
FE7C
FFFC
FFF8
FFF8
FFF0
7FE0
7FC0
3F80
ENDCHAR
STARTCHAR 01D8
ENCODING 472
SWIDTH 540 0
DWIDTH 15 0
BBX 16 24 2 1
BITMAP
000F
001E
0038
00CE
01CE
008C
0F0F
0F0F
1E0F
1E0F
3E1F
3C1F
7C1E
7C3E
7C3E
FC3E
FE7C
FFFC
FFF8
FFF8
FFF0
7FE0
7FC0
3F80
ENDCHAR
STARTCHAR 01D9
ENCODING 473
SWIDTH 540 0
DWIDTH 15 0
BBX 16 24 2 1
BITMAP
00E7
007E
0038
00CE
01CE
008C
0F0F
0F0F
1E0F
1E0F
3E1F
3C1F
7C1E
7C3E
7C3E
FC3E
FE7C
FFFC
FFF8
FFF8
FFF0
7FE0
7FC0
3F80
ENDCHAR
STARTCHAR 01DA
ENCODING 474
SWIDTH 540 0
DWIDTH 15 0
BBX 16 24 2 1
BITMAP
00E7
007E
0038
00CE
01CE
008C
0F0F
0F0F
1E0F
1E0F
3E1F
3C1F
7C1E
7C3E
7C3E
FC3E
FE7C
FFFC
FFF8
FFF8
FFF0
7FE0
7FC0
3F80
ENDCHAR
STARTCHAR 01DB
ENCODING 475
SWIDTH 540 0
DWIDTH 15 0
BBX 16 24 2 1
BITMAP
00F0
0078
0038
00CE
01CE
008C
0F0F
0F0F
1E0F
1E0F
3E1F
3C1F
7C1E
7C3E
7C3E
FC3E
FE7C
FFFC
FFF8
FFF8
FFF0
7FE0
7FC0
3F80
ENDCHAR
STARTCHAR 01DC
ENCODING 476
SWIDTH 540 0
DWIDTH 15 0
BBX 16 24 2 1
BITMAP
00F0
0078
0038
00CE
01CE
008C
0F0F
0F0F
1E0F
1E0F
3E1F
3C1F
7C1E
7C3E
7C3E
FC3E
FE7C
FFFC
FFF8
FFF8
FFF0
7FE0
7FC0
3F80
ENDCHAR
STARTCHAR 01DE
ENCODING 478
SWIDTH 612 0
DWIDTH 17 0
BBX 19 26 0 -1
BITMAP
001FE0
003FE0
000000
0039C0
0039C0
001000
000600
001E00
001E00
003E00
003E00
007E00
007E00
00FE00
01FE00
01FE00
03BE00
073F00
061F00
0FFF00
1FFF00
1F3F00
3E3F00
7C3F80
7C3F80
C00000
ENDCHAR
STARTCHAR 01DF
ENCODING 479
SWIDTH 612 0
DWIDTH 17 0
BBX 19 26 0 -1
BITMAP
001FE0
003FE0
000000
0039C0
0039C0
001000
000600
001E00
001E00
003E00
003E00
007E00
007E00
00FE00
01FE00
01FE00
03BE00
073F00
061F00
0FFF00
1FFF00
1F3F00
3E3F00
7C3F80
7C3F80
C00000
ENDCHAR
STARTCHAR 01E0
ENCODING 480
SWIDTH 612 0
DWIDTH 17 0
BBX 19 26 0 -1
BITMAP
001FE0
003FE0
000000
000600
000E00
000000
000600
001E00
001E00
003E00
003E00
007E00
007E00
00FE00
01FE00
01FE00
03BE00
073F00
061F00
0FFF00
1FFF00
1F3F00
3E3F00
7C3F80
7C3F80
C00000
ENDCHAR
STARTCHAR 01E1
ENCODING 481
SWIDTH 612 0
DWIDTH 17 0
BBX 19 26 0 -1
BITMAP
001FE0
003FE0
000000
000600
000E00
000000
000600
001E00
001E00
003E00
003E00
007E00
007E00
00FE00
01FE00
01FE00
03BE00
073F00
061F00
0FFF00
1FFF00
1F3F00
3E3F00
7C3F80
7C3F80
C00000
ENDCHAR
STARTCHAR 01E2
ENCODING 482
SWIDTH 720 0
DWIDTH 20 0
BBX 21 23 0 -1
BITMAP
0007F8
0007F8
000000
000FF8
001FF8
001FF0
003FF0
003FF0
007FE0
00FF00
00FF20
01FFE0
01FFE0
03BF80
071E00
063FF0
0FFFF8
1FFFF8
1F3FF8
3E3FF8
7C3FE0
7C3C00
800000
ENDCHAR
STARTCHAR 01E3
ENCODING 483
SWIDTH 720 0
DWIDTH 20 0
BBX 21 23 0 -1
BITMAP
0007F8
0007F8
000000
000FF8
001FF8
001FF0
003FF0
003FF0
007FE0
00FF00
00FF20
01FFE0
01FFE0
03BF80
071E00
063FF0
0FFFF8
1FFFF8
1F3FF8
3E3FF8
7C3FE0
7C3C00
800000
ENDCHAR
STARTCHAR 01E4
ENCODING 484
SWIDTH 540 0
DWIDTH 15 0
BBX 15 19 3 0
BITMAP
00F8
03FC
07FE
0FFE
0F98
1E00
FF00
FF00
FE7C
FEFC
78FC
78F8
F9F8
FFF8
FFF8
FFF0
FFC0
7F00
3800
ENDCHAR
STARTCHAR 01E5
ENCODING 485
SWIDTH 540 0
DWIDTH 15 0
BBX 15 19 3 0
BITMAP
00F8
03FC
07FE
0FFE
0F98
1E00
FF00
FF00
FE7C
FEFC
78FC
78F8
F9F8
FFF8
FFF8
FFF0
FFC0
7F00
3800
ENDCHAR
STARTCHAR 01E6
ENCODING 486
SWIDTH 504 0
DWIDTH 14 0
BBX 16 24 1 0
BITMAP
00C7
01FE
00FC
0078
0000
00FC
01FE
03FE
07FE
0F8C
0F00
1E00
1C00
3C7E
3CFC
3CFC
7CFC
7CFC
7FFC
FFF8
FFF0
7FE0
3F80
1C00
ENDCHAR
STARTCHAR 01E7
ENCODING 487
SWIDTH 504 0
DWIDTH 14 0
BBX 16 24 1 0
BITMAP
00C7
01FE
00FC
0078
0000
00FC
01FE
03FE
07FE
0F8C
0F00
1E00
1C00
3C7E
3CFC
3CFC
7CFC
7CFC
7FFC
FFF8
FFF0
7FE0
3F80
1C00
ENDCHAR
STARTCHAR 01E8
ENCODING 488
SWIDTH 540 0
DWIDTH 15 0
BBX 17 24 1 0
BITMAP
007180
007F80
003F00
001C00
000000
0FE300
0FE780
1FCF80
1FDF00
1FFE00
1FFC00
3FF800
3FF800
3FF000
3FE000
7FE000
7FF000
7FF000
7FF800
FF7800
FE7C00
FE7C00
FE3C00
FC2000
ENDCHAR
STARTCHAR 01E9
ENCODING 489
SWIDTH 540 0
DWIDTH 15 0
BBX 17 24 1 0
BITMAP
007180
007F80
003F00
001C00
000000
0FE300
0FE780
1FCF80
1FDF00
1FFE00
1FFC00
3FF800
3FF800
3FF000
3FE000
7FE000
7FF000
7FF000
7FF800
FF7800
FE7C00
FE7C00
FE3C00
FC2000
ENDCHAR
STARTCHAR 01EA
ENCODING 490
SWIDTH 504 0
DWIDTH 14 0
BBX 14 23 2 -5
BITMAP
03C0
07E0
0FF8
0FF8
1FFC
3FFC
3FFC
7E7C
7C7C
FC7C
FC7C
FCFC
FFFC
FFF8
FFF8
7FF0
7FF0
3FE0
1F80
0E00
0C00
1FE0
1FC0
ENDCHAR
STARTCHAR 01EB
ENCODING 491
SWIDTH 504 0
DWIDTH 14 0
BBX 14 23 2 -5
BITMAP
03C0
07E0
0FF8
0FF8
1FFC
3FFC
3FFC
7E7C
7C7C
FC7C
FC7C
FCFC
FFFC
FFF8
FFF8
7FF0
7FF0
3FE0
1F80
0E00
0C00
1FE0
1FC0
ENDCHAR
STARTCHAR 01EC
ENCODING 492
SWIDTH 504 0
DWIDTH 14 0
BBX 14 26 2 -5
BITMAP
0FF0
0FF0
0000
03C0
07E0
0FF8
0FF8
1FFC
3FFC
3FFC
7E7C
7C7C
FC7C
FC7C
FCFC
FFFC
FFF8
FFF8
7FF0
7FF0
3FE0
1F80
0E00
0C00
1FE0
1FC0
ENDCHAR
STARTCHAR 01ED
ENCODING 493
SWIDTH 504 0
DWIDTH 14 0
BBX 14 26 2 -5
BITMAP
0FF0
0FF0
0000
03C0
07E0
0FF8
0FF8
1FFC
3FFC
3FFC
7E7C
7C7C
FC7C
FC7C
FCFC
FFFC
FFF8
FFF8
7FF0
7FF0
3FE0
1F80
0E00
0C00
1FE0
1FC0
ENDCHAR
STARTCHAR 01EE
ENCODING 494
SWIDTH 468 0
DWIDTH 13 0
BBX 15 24 1 0
BITMAP
018C
03FC
01F8
00F0
0000
07FC
0FFE
0FFC
0018
0070
01F0
03E0
07F8
1FF8
0FFC
003C
003C
003C
403C
FCF8
FFF8
FFF0
7FE0
1F80
ENDCHAR
STARTCHAR 01EF
ENCODING 495
SWIDTH 468 0
DWIDTH 13 0
BBX 15 24 1 0
BITMAP
018C
03FC
01F8
00F0
0000
07FC
0FFE
0FFC
0018
0070
01F0
03E0
07F8
1FF8
0FFC
003C
003C
003C
403C
FCF8
FFF8
FFF0
7FE0
1F80
ENDCHAR
STARTCHAR 01F0
ENCODING 496
SWIDTH 432 0
DWIDTH 12 0
BBX 17 24 1 0
BITMAP
006380
007F80
007E00
003C00
000000
007E00
00FE00
00FE00
00FC00
01FC00
01FC00
01FC00
01FC00
03FC00
03F800
03F800
01F800
01F800
79F000
7BF000
FFE000
7FC000
7F8000
1F0000
ENDCHAR
STARTCHAR 01F4
ENCODING 500
SWIDTH 504 0
DWIDTH 14 0
BBX 16 24 1 0
BITMAP
000F
001E
003C
0038
0000
00FC
01FE
03FE
07FE
0F8C
0F00
1E00
1C00
3C7E
3CFC
3CFC
7CFC
7CFC
7FFC
FFF8
FFF0
7FE0
3F80
1C00
ENDCHAR
STARTCHAR 01F5
ENCODING 501
SWIDTH 504 0
DWIDTH 14 0
BBX 16 24 1 0
BITMAP
000F
001E
003C
0038
0000
00FC
01FE
03FE
07FE
0F8C
0F00
1E00
1C00
3C7E
3CFC
3CFC
7CFC
7CFC
7FFC
FFF8
FFF0
7FE0
3F80
1C00
ENDCHAR
STARTCHAR 01F8
ENCODING 504
SWIDTH 540 0
DWIDTH 15 0
BBX 18 24 1 0
BITMAP
007000
007800
003800
003800
000000
010100
07E7C0
07CFC0
0FCF80
0FCF80
1FCF80
1FDF00
1FDF00
3FDF00
3FDE00
3FFE00
3FFE00
7EFE00
7EFC00
7CFC00
FCFC00
FCFC00
F8F800
E02000
ENDCHAR
STARTCHAR 01F9
ENCODING 505
SWIDTH 540 0
DWIDTH 15 0
BBX 18 24 1 0
BITMAP
007000
007800
003800
003800
000000
010100
07E7C0
07CFC0
0FCF80
0FCF80
1FCF80
1FDF00
1FDF00
3FDF00
3FDE00
3FFE00
3FFE00
7EFE00
7EFC00
7CFC00
FCFC00
FCFC00
F8F800
E02000
ENDCHAR
STARTCHAR 01FE
ENCODING 510
SWIDTH 504 0
DWIDTH 14 0
BBX 19 24 0 0
BITMAP
001E00
003C00
003800
007000
0001E0
00F3E0
01FFC0
03FF80
03FF00
07FF00
0FFF00
0FFF00
1F7F00
1EFF00
3DEF00
3FDF00
3F9F00
3FFF00
3FFE00
3FFE00
3FFC00
3FFC00
7FF800
F7E000
ENDCHAR
STARTCHAR 01FF
ENCODING 511
SWIDTH 504 0
DWIDTH 14 0
BBX 19 24 0 0
BITMAP
001E00
003C00
003800
007000
0001E0
00F3E0
01FFC0
03FF80
03FF00
07FF00
0FFF00
0FFF00
1F7F00
1EFF00
3DEF00
3FDF00
3F9F00
3FFF00
3FFE00
3FFE00
3FFC00
3FFC00
7FF800
F7E000
ENDCHAR
STARTCHAR 0218
ENCODING 536
SWIDTH 504 0
DWIDTH 14 0
BBX 16 24 1 -5
BITMAP
01FF
03FF
07FE
0FFE
0FFC
1FF8
1FF8
1F10
1F80
1FE0
0FF8
01F8
0078
20F8
FFF8
FFF8
FFF0
7FC0
3F80
0C00
1E00
1C00
3800
1000
ENDCHAR
STARTCHAR 0219
ENCODING 537
SWIDTH 504 0
DWIDTH 14 0
BBX 16 24 1 -5
BITMAP
01FF
03FF
07FE
0FFE
0FFC
1FF8
1FF8
1F10
1F80
1FE0
0FF8
01F8
0078
20F8
FFF8
FFF8
FFF0
7FC0
3F80
0C00
1E00
1C00
3800
1000
ENDCHAR
STARTCHAR 021A
ENCODING 538
SWIDTH 576 0
DWIDTH 16 0
BBX 16 24 3 -5
BITMAP
1FFE
7FFF
7FFF
7FFF
7FFF
FFFA
E3E0
03C0
07C0
0780
0780
0780
0F80
0F00
0F00
0F00
0F00
1E00
1E00
0C00
1E00
3C00
3800
1000
ENDCHAR
STARTCHAR 021B
ENCODING 539
SWIDTH 576 0
DWIDTH 16 0
BBX 16 24 3 -5
BITMAP
1FFE
7FFF
7FFF
7FFF
7FFF
FFFA
E3E0
03C0
07C0
0780
0780
0780
0F80
0F00
0F00
0F00
0F00
1E00
1E00
0C00
1E00
3C00
3800
1000
ENDCHAR
STARTCHAR 021E
ENCODING 542
SWIDTH 540 0
DWIDTH 15 0
BBX 18 24 1 0
BITMAP
0031C0
003FC0
003F00
001E00
000000
01E000
07E7C0
07E7C0
07C780
0FCF80
0FCF80
0F8F80
1FFF00
1FFF00
1FFF00
3FFF00
3FFF00
3FFE00
3E7E00
7E7E00
7E7C00
7E7C00
FC7C00
088000
ENDCHAR
STARTCHAR 021F
ENCODING 543
SWIDTH 540 0
DWIDTH 15 0
BBX 18 24 1 0
BITMAP
0031C0
003FC0
003F00
001E00
000000
01E000
07E7C0
07E7C0
07C780
0FCF80
0FCF80
0F8F80
1FFF00
1FFF00
1FFF00
3FFF00
3FFF00
3FFE00
3E7E00
7E7E00
7E7C00
7E7C00
FC7C00
088000
ENDCHAR
STARTCHAR 0224
ENCODING 548
SWIDTH 576 0
DWIDTH 16 0
BBX 15 23 3 -4
BITMAP
07FE
3FFC
3FF8
7FF0
7FF0
01E0
03C0
03C0
0780
0F80
0F00
1F00
1E00
3C00
3FFC
7FFC
7FFC
FFFC
00F8
03F8
03F0
07E0
0600
ENDCHAR
STARTCHAR 0225
ENCODING 549
SWIDTH 576 0
DWIDTH 16 0
BBX 15 23 3 -4
BITMAP
07FE
3FFC
3FF8
7FF0
7FF0
01E0
03C0
03C0
0780
0F80
0F00
1F00
1E00
3C00
3FFC
7FFC
7FFC
FFFC
00F8
03F8
03F0
07E0
0600
ENDCHAR
STARTCHAR 0226
ENCODING 550
SWIDTH 612 0
DWIDTH 17 0
BBX 17 23 0 -1
BITMAP
000600
000E00
000400
000600
001E00
001E00
003E00
003E00
007E00
007E00
00FE00
01FE00
01FE00
03BE00
073F00
061F00
0FFF00
1FFF00
1F3F00
3E3F00
7C3F80
7C3F80
C00000
ENDCHAR
STARTCHAR 0227
ENCODING 551
SWIDTH 612 0
DWIDTH 17 0
BBX 17 23 0 -1
BITMAP
000600
000E00
000400
000600
001E00
001E00
003E00
003E00
007E00
007E00
00FE00
01FE00
01FE00
03BE00
073F00
061F00
0FFF00
1FFF00
1F3F00
3E3F00
7C3F80
7C3F80
C00000
ENDCHAR
STARTCHAR 0228
ENCODING 552
SWIDTH 468 0
DWIDTH 13 0
BBX 11 24 4 -5
BITMAP
7FE0
FFC0
FFC0
FF80
FF80
FE00
F800
F900
FF00
FF00
FC00
F800
FFC0
FFC0
FFC0
FFC0
FFC0
FE00
FC00
1C00
0E00
CF00
FE00
3C00
ENDCHAR
STARTCHAR 0229
ENCODING 553
SWIDTH 468 0
DWIDTH 13 0
BBX 11 24 4 -5
BITMAP
7FE0
FFC0
FFC0
FF80
FF80
FE00
F800
F900
FF00
FF00
FC00
F800
FFC0
FFC0
FFC0
FFC0
FFC0
FE00
FC00
1C00
0E00
CF00
FE00
3C00
ENDCHAR
STARTCHAR 022A
ENCODING 554
SWIDTH 504 0
DWIDTH 14 0
BBX 14 25 2 0
BITMAP
07F8
0FF8
0000
0E60
0E70
0460
03C0
07E0
0FF8
0FF8
1FFC
3FFC
3FFC
7E7C
7C7C
FC7C
FC7C
FCFC
FFFC
FFF8
FFF8
7FF0
7FF0
3FE0
1F80
ENDCHAR
STARTCHAR 022B
ENCODING 555
SWIDTH 504 0
DWIDTH 14 0
BBX 14 25 2 0
BITMAP
07F8
0FF8
0000
0E60
0E70
0460
03C0
07E0
0FF8
0FF8
1FFC
3FFC
3FFC
7E7C
7C7C
FC7C
FC7C
FCFC
FFFC
FFF8
FFF8
7FF0
7FF0
3FE0
1F80
ENDCHAR
STARTCHAR 022C
ENCODING 556
SWIDTH 504 0
DWIDTH 14 0
BBX 14 25 2 0
BITMAP
07F8
0FF8
0000
0FF0
0FE0
0000
03C0
07E0
0FF8
0FF8
1FFC
3FFC
3FFC
7E7C
7C7C
FC7C
FC7C
FCFC
FFFC
FFF8
FFF8
7FF0
7FF0
3FE0
1F80
ENDCHAR
STARTCHAR 022D
ENCODING 557
SWIDTH 504 0
DWIDTH 14 0
BBX 14 25 2 0
BITMAP
07F8
0FF8
0000
0FF0
0FE0
0000
03C0
07E0
0FF8
0FF8
1FFC
3FFC
3FFC
7E7C
7C7C
FC7C
FC7C
FCFC
FFFC
FFF8
FFF8
7FF0
7FF0
3FE0
1F80
ENDCHAR
STARTCHAR 022E
ENCODING 558
SWIDTH 504 0
DWIDTH 14 0
BBX 14 23 2 0
BITMAP
0180
0380
0380
0000
03C0
07E0
0FF8
0FF8
1FFC
3FFC
3FFC
7E7C
7C7C
FC7C
FC7C
FCFC
FFFC
FFF8
FFF8
7FF0
7FF0
3FE0
1F80
ENDCHAR
STARTCHAR 022F
ENCODING 559
SWIDTH 504 0
DWIDTH 14 0
BBX 14 23 2 0
BITMAP
0180
0380
0380
0000
03C0
07E0
0FF8
0FF8
1FFC
3FFC
3FFC
7E7C
7C7C
FC7C
FC7C
FCFC
FFFC
FFF8
FFF8
7FF0
7FF0
3FE0
1F80
ENDCHAR
STARTCHAR 0230
ENCODING 560
SWIDTH 504 0
DWIDTH 14 0
BBX 14 25 2 0
BITMAP
07F8
0FF8
0080
01C0
0180
0000
03C0
07E0
0FF8
0FF8
1FFC
3FFC
3FFC
7E7C
7C7C
FC7C
FC7C
FCFC
FFFC
FFF8
FFF8
7FF0
7FF0
3FE0
1F80
ENDCHAR
STARTCHAR 0231
ENCODING 561
SWIDTH 504 0
DWIDTH 14 0
BBX 14 25 2 0
BITMAP
07F8
0FF8
0080
01C0
0180
0000
03C0
07E0
0FF8
0FF8
1FFC
3FFC
3FFC
7E7C
7C7C
FC7C
FC7C
FCFC
FFFC
FFF8
FFF8
7FF0
7FF0
3FE0
1F80
ENDCHAR
STARTCHAR 0232
ENCODING 562
SWIDTH 612 0
DWIDTH 17 0
BBX 17 22 4 0
BITMAP
07F800
07F800
000000
000F80
781F00
F81E00
FC3C00
FC7C00
7C7800
7CF000
7FF000
3FE000
3FC000
3FC000
1F8000
1F0000
1F0000
1F0000
1F0000
1E0000
1E0000
1E0000
ENDCHAR
STARTCHAR 0233
ENCODING 563
SWIDTH 612 0
DWIDTH 17 0
BBX 17 22 4 0
BITMAP
07F800
07F800
000000
000F80
781F00
F81E00
FC3C00
FC7C00
7C7800
7CF000
7FF000
3FE000
3FC000
3FC000
1F8000
1F0000
1F0000
1F0000
1F0000
1E0000
1E0000
1E0000
ENDCHAR
STARTCHAR 0241
ENCODING 577
SWIDTH 432 0
DWIDTH 12 0
BBX 12 19 4 0
BITMAP
3FE0
7FF0
FFF0
FFF0
E1F0
01E0
01E0
03E0
07C0
1FC0
3F00
7E00
7C00
7800
F800
F000
F000
F000
F000
ENDCHAR
STARTCHAR 0242
ENCODING 578
SWIDTH 432 0
DWIDTH 12 0
BBX 12 19 4 0
BITMAP
3FE0
7FF0
FFF0
FFF0
E1F0
01E0
01E0
03E0
07C0
1FC0
3F00
7E00
7C00
7800
F800
F000
F000
F000
F000
ENDCHAR
STARTCHAR 0243
ENCODING 579
SWIDTH 504 0
DWIDTH 14 0
BBX 14 19 1 0
BITMAP
07F0
1FF8
1FF8
1FFC
1F7C
1E3C
1E38
1F78
1FE0
1FF8
3FFC
3F7C
7FBC
7FBC
FF7C
3FF8
3FF0
3FE0
3C00
ENDCHAR
STARTCHAR 0244
ENCODING 580
SWIDTH 576 0
DWIDTH 16 0
BBX 16 18 3 1
BITMAP
0E0F
1E1F
1E1F
3E1E
7FFF
FFFF
FFFE
FFFE
F87C
FC7C
FC7C
FFF8
FFF8
FFF0
FFF0
FFE0
FFC0
7F80
ENDCHAR
STARTCHAR 0253
ENCODING 595
SWIDTH 648 0
DWIDTH 18 0
BBX 17 19 3 0
BITMAP
07FC00
1FFE00
3FFF00
7FFF00
7FCF00
F7CF00
E7CE00
E7DE00
F7FC00
F7FE00
77FF00
77CF00
07CF80
0FCF80
0FFF00
0FFF00
0FFC00
0FF800
078000
ENDCHAR
STARTCHAR 0254
ENCODING 596
SWIDTH 468 0
DWIDTH 13 0
BBX 14 19 2 0
BITMAP
0780
1FF0
3FF8
3FF8
3FFC
07FC
01FC
00FC
00FC
00F8
41F8
FFF8
FFF0
FFF0
FFE0
FFE0
FFC0
7F80
1800
ENDCHAR
STARTCHAR 0256
ENCODING 598
SWIDTH 468 0
DWIDTH 13 0
BBX 14 19 2 0
BITMAP
0F80
1FE0
1FF0
1FF8
3FF8
3F7C
3FBC
FFBC
FFBC
FFF8
FEF0
3FF0
3FE0
3FC0
3F80
3F80
3E00
3C00
2000
ENDCHAR
STARTCHAR 0257
ENCODING 599
SWIDTH 612 0
DWIDTH 17 0
BBX 17 19 3 0
BITMAP
07F000
1FFC00
3FFE00
7FFF00
7FFF00
F7EF00
E7C780
E7C780
F7C780
F7CF00
77DE00
77FE00
07FC00
07F800
07F000
07E000
07C000
070000
040000
ENDCHAR
STARTCHAR 0259
ENCODING 601
SWIDTH 468 0
DWIDTH 13 0
BBX 13 19 2 0
BITMAP
07E0
1FF0
3FF0
3FF8
18F8
0078
0038
3FF8
7FF8
7FF8
7FF8
F8F8
F9F0
FFF0
FFF0
FFF0
7FE0
3FC0
0700
ENDCHAR
STARTCHAR 025B
ENCODING 603
SWIDTH 468 0
DWIDTH 13 0
BBX 13 19 2 0
BITMAP
07F0
0FF8
1FF8
3F98
3E00
7C00
7C00
3E00
3FE0
1FE0
3FC0
7C00
7C00
7800
FC70
FFF0
7FE0
7FE0
1F80
ENDCHAR
STARTCHAR 0260
ENCODING 608
SWIDTH 504 0
DWIDTH 14 0
BBX 18 24 1 0
BITMAP
0003C0
000F80
001F80
003F80
003E00
00FC00
01FE00
03FE00
07FE00
0F8C00
0F0000
1E0000
1C0000
3C7E00
3CFC00
3CFC00
7CFC00
7CFC00
7FFC00
FFF800
FFF000
7FE000
3F8000
1C0000
ENDCHAR
STARTCHAR 0263
ENCODING 611
SWIDTH 612 0
DWIDTH 17 0
BBX 16 23 4 -4
BITMAP
F000
F81E
781F
783E
783E
787C
78F8
78F8
7DF0
3DE0
3FE0
1FC0
1F80
1F00
3F80
7F80
7780
E380
E700
FF00
FE00
7C00
1000
ENDCHAR
STARTCHAR 0268
ENCODING 616
SWIDTH 360 0
DWIDTH 10 0
BBX 12 19 1 0
BITMAP
03E0
03F0
03E0
07E0
07E0
0FC0
0FC0
0FC0
3FE0
7FE0
7FC0
3F80
3F80
3F00
3F00
3F00
7E00
7E00
F000
ENDCHAR
STARTCHAR 0272
ENCODING 626
SWIDTH 540 0
DWIDTH 15 0
BBX 21 23 -2 -4
BITMAP
002020
00FCF8
00F9F8
01F9F0
01F9F0
03F9F0
03FBE0
03FBE0
07FBE0
07FBC0
07FFC0
07FFC0
0FDFC0
0FDF80
0F9F80
1F9F80
1F1F80
1F1F00
3F0400
FE0000
FC0000
F80000
800000
ENDCHAR
STARTCHAR 0278
ENCODING 632
SWIDTH 648 0
DWIDTH 18 0
BBX 19 22 2 -1
BITMAP
003000
007C00
007C00
07FFC0
1FFFC0
1FFFC0
3FFFE0
3FFFE0
7EF7C0
7DF7C0
79F7C0
F9F7C0
FBE7C0
FBEF80
FFDF80
FFFF00
FFFE00
FFFC00
FFF800
0FF000
0F0000
0F0000
ENDCHAR
STARTCHAR 0289
ENCODING 649
SWIDTH 576 0
DWIDTH 16 0
BBX 16 18 3 1
BITMAP
0E0F
1E1F
1E1F
3E1E
7FFF
FFFF
FFFE
FFFE
F87C
FC7C
FC7C
FFF8
FFF8
FFF0
FFF0
FFE0
FFC0
7F80
ENDCHAR
STARTCHAR 028B
ENCODING 651
SWIDTH 540 0
DWIDTH 15 0
BBX 15 18 3 1
BITMAP
38F0
79F8
78F8
787C
787C
F83C
F83E
F83C
F87C
F87C
F8FC
FFFC
FFF8
FFF8
FFF0
7FE0
3FE0
3F80
ENDCHAR
STARTCHAR 0292
ENCODING 658
SWIDTH 468 0
DWIDTH 13 0
BBX 15 19 1 0
BITMAP
07FC
0FFE
0FFC
0018
0070
01F0
03E0
07F8
1FF8
0FFC
003C
003C
003C
403C
FCF8
FFF8
FFF0
7FE0
1F80
ENDCHAR
STARTCHAR 0294
ENCODING 660
SWIDTH 432 0
DWIDTH 12 0
BBX 12 19 4 0
BITMAP
3FE0
7FF0
FFF0
FFF0
E1F0
01E0
01E0
03E0
07C0
1FC0
3F00
7E00
7C00
7800
F800
F000
F000
F000
F000
ENDCHAR
STARTCHAR 0295
ENCODING 661
SWIDTH 432 0
DWIDTH 12 0
BBX 13 19 3 0
BITMAP
1FF0
3FF0
7FF8
7FF8
7870
F800
F800
F800
F800
FC00
7F00
3F00
1F00
1F00
1E00
1E00
1E00
1E00
3C00
ENDCHAR
STARTCHAR 0296
ENCODING 662
SWIDTH 432 0
DWIDTH 12 0
BBX 13 19 1 0
BITMAP
03E0
03C0
03C0
03C0
03C0
07C0
07C0
07E0
03F0
01F8
00F8
00F8
00F8
20F8
F9F0
FFF0
FFF0
7FE0
3F00
ENDCHAR
STARTCHAR 02B9
ENCODING 697
SWIDTH 180 0
DWIDTH 5 0
BBX 7 10 3 10
BITMAP
1E
1C
3C
38
38
70
70
E0
E0
C0
ENDCHAR
STARTCHAR 02BA
ENCODING 698
SWIDTH 396 0
DWIDTH 11 0
BBX 12 10 3 10
BITMAP
1EF0
1CF0
3CE0
39C0
39C0
7380
7380
E700
E700
C200
ENDCHAR
STARTCHAR 02BB
ENCODING 699
SWIDTH 180 0
DWIDTH 5 0
BBX 6 10 3 10
BITMAP
0C
1C
3C
3C
78
78
F8
F8
F0
F0
ENDCHAR
STARTCHAR 02BC
ENCODING 700
SWIDTH 180 0
DWIDTH 5 0
BBX 6 10 3 10
BITMAP
3C
3C
3C
7C
78
78
F0
F0
E0
40
ENDCHAR
STARTCHAR 02BD
ENCODING 701
SWIDTH 180 0
DWIDTH 5 0
BBX 5 10 4 10
BITMAP
78
F8
F8
F0
F0
F0
F0
F0
60
40
ENDCHAR
STARTCHAR 02C6
ENCODING 710
SWIDTH 324 0
DWIDTH 9 0
BBX 8 4 5 20
BITMAP
1C
3E
7F
E7
ENDCHAR
STARTCHAR 02C7
ENCODING 711
SWIDTH 324 0
DWIDTH 9 0
BBX 9 4 5 20
BITMAP
6380
FF00
7E00
3C00
ENDCHAR
STARTCHAR 02C8
ENCODING 712
SWIDTH 108 0
DWIDTH 3 0
BBX 3 4 5 20
BITMAP
E0
E0
C0
C0
ENDCHAR
STARTCHAR 02C9
ENCODING 713
SWIDTH 324 0
DWIDTH 9 0
BBX 8 2 5 20
BITMAP
FF
FF
ENDCHAR
STARTCHAR 02CA
ENCODING 714
SWIDTH 216 0
DWIDTH 6 0
BBX 6 4 5 20
BITMAP
3C
78
70
E0
ENDCHAR
STARTCHAR 02CB
ENCODING 715
SWIDTH 216 0
DWIDTH 6 0
BBX 5 4 5 20
BITMAP
F0
78
38
38
ENDCHAR
STARTCHAR 02CC
ENCODING 716
SWIDTH 108 0
DWIDTH 3 0
BBX 3 5 0 -5
BITMAP
E0
C0
C0
C0
C0
ENDCHAR
STARTCHAR 02CD
ENCODING 717
SWIDTH 324 0
DWIDTH 9 0
BBX 8 3 0 -4
BITMAP
FF
FF
DE
ENDCHAR
STARTCHAR 02D0
ENCODING 720
SWIDTH 180 0
DWIDTH 5 0
BBX 7 14 1 0
BITMAP
1E
3E
3E
3C
18
10
00
00
00
30
70
70
F8
F8
ENDCHAR
STARTCHAR 02D1
ENCODING 721
SWIDTH 180 0
DWIDTH 5 0
BBX 5 6 3 8
BITMAP
78
F8
F8
F0
60
40
ENDCHAR
STARTCHAR 02D8
ENCODING 728
SWIDTH 324 0
DWIDTH 9 0
BBX 9 4 5 20
BITMAP
E380
F700
7F00
7C00
ENDCHAR
STARTCHAR 02D9
ENCODING 729
SWIDTH 108 0
DWIDTH 3 0
BBX 3 3 5 19
BITMAP
E0
E0
40
ENDCHAR
STARTCHAR 02DA
ENCODING 730
SWIDTH 324 0
DWIDTH 9 0
BBX 8 7 5 17
BITMAP
3E
7F
E7
C7
E7
FE
7C
ENDCHAR
STARTCHAR 02DB
ENCODING 731
SWIDTH 288 0
DWIDTH 8 0
BBX 7 7 0 -5
BITMAP
10
30
60
E0
FE
FE
78
ENDCHAR
STARTCHAR 02DC
ENCODING 732
SWIDTH 324 0
DWIDTH 9 0
BBX 9 4 5 20
BITMAP
3380
7F00
FF00
DE00
ENDCHAR
STARTCHAR 02DD
ENCODING 733
SWIDTH 396 0
DWIDTH 11 0
BBX 11 4 5 20
BITMAP
3DE0
7BC0
7780
E700
ENDCHAR
STARTCHAR 0300
ENCODING 768
SWIDTH 0 0
DWIDTH 0 0
BBX 4 4 -6 20
BITMAP
E0
F0
70
70
ENDCHAR
STARTCHAR 0301
ENCODING 769
SWIDTH 0 0
DWIDTH 0 0
BBX 6 4 -3 20
BITMAP
3C
78
F0
E0
ENDCHAR
STARTCHAR 0302
ENCODING 770
SWIDTH 0 0
DWIDTH 0 0
BBX 8 4 -7 20
BITMAP
1C
7E
FF
E7
ENDCHAR
STARTCHAR 0303
ENCODING 771
SWIDTH 0 0
DWIDTH 0 0
BBX 8 4 -7 20
BITMAP
23
FF
FF
DE
ENDCHAR
STARTCHAR 0304
ENCODING 772
SWIDTH 0 0
DWIDTH 0 0
BBX 8 2 -7 20
BITMAP
FF
FF
ENDCHAR
STARTCHAR 0305
ENCODING 773
SWIDTH 0 0
DWIDTH 0 0
BBX 10 3 -8 19
BITMAP
FFC0
FFC0
FFC0
ENDCHAR
STARTCHAR 0306
ENCODING 774
SWIDTH 0 0
DWIDTH 0 0
BBX 8 4 -7 20
BITMAP
E3
F7
7E
7C
ENDCHAR
STARTCHAR 0307
ENCODING 775
SWIDTH 0 0
DWIDTH 0 0
BBX 3 3 -5 19
BITMAP
60
E0
40
ENDCHAR
STARTCHAR 0308
ENCODING 776
SWIDTH 0 0
DWIDTH 0 0
BBX 8 3 -7 20
BITMAP
E7
E7
04
ENDCHAR
STARTCHAR 030A
ENCODING 778
SWIDTH 0 0
DWIDTH 0 0
BBX 8 6 -7 19
BITMAP
3E
77
E7
E7
EE
7C
ENDCHAR
STARTCHAR 030B
ENCODING 779
SWIDTH 0 0
DWIDTH 0 0
BBX 11 4 -6 20
BITMAP
3DE0
7BC0
F780
EE00
ENDCHAR
STARTCHAR 030C
ENCODING 780
SWIDTH 0 0
DWIDTH 0 0
BBX 8 4 -7 20
BITMAP
E3
FF
7E
38
ENDCHAR
STARTCHAR 030D
ENCODING 781
SWIDTH 0 0
DWIDTH 0 0
BBX 4 4 -5 20
BITMAP
70
60
60
E0
ENDCHAR
STARTCHAR 0311
ENCODING 785
SWIDTH 0 0
DWIDTH 0 0
BBX 8 4 -7 20
BITMAP
1C
7E
FF
C7
ENDCHAR
STARTCHAR 0323
ENCODING 803
SWIDTH 0 0
DWIDTH 0 0
BBX 3 3 -10 -4
BITMAP
60
E0
E0
ENDCHAR
STARTCHAR 0326
ENCODING 806
SWIDTH 0 0
DWIDTH 0 0
BBX 5 5 -11 -5
BITMAP
30
78
F0
E0
40
ENDCHAR
STARTCHAR 0327
ENCODING 807
SWIDTH 0 0
DWIDTH 0 0
BBX 8 7 -13 -5
BITMAP
0C
1C
1E
0F
67
FF
38
ENDCHAR
STARTCHAR 0328
ENCODING 808
SWIDTH 0 0
DWIDTH 0 0
BBX 8 7 -12 -5
BITMAP
08
18
30
70
FF
7F
08
ENDCHAR
STARTCHAR 0329
ENCODING 809
SWIDTH 0 0
DWIDTH 0 0
BBX 3 5 -10 -5
BITMAP
60
60
60
E0
C0
ENDCHAR
STARTCHAR 0331
ENCODING 817
SWIDTH 0 0
DWIDTH 0 0
BBX 8 3 -12 -4
BITMAP
FF
FF
DC
ENDCHAR
STARTCHAR 0342
ENCODING 834
SWIDTH 0 0
DWIDTH 0 0
BBX 8 4 -7 20
BITMAP
23
FF
FF
DE
ENDCHAR
STARTCHAR 0344
ENCODING 836
SWIDTH 0 0
DWIDTH 0 0
BBX 8 6 -7 19
BITMAP
06
0C
18
E7
E6
40
ENDCHAR
STARTCHAR 0345
ENCODING 837
SWIDTH 0 0
DWIDTH 0 0
BBX 4 5 -9 -5
BITMAP
C0
C0
C0
F0
70
ENDCHAR
STARTCHAR 0374
ENCODING 884
SWIDTH 180 0
DWIDTH 5 0
BBX 6 4 4 15
BITMAP
3C
78
70
E0
ENDCHAR
STARTCHAR 0375
ENCODING 885
SWIDTH 180 0
DWIDTH 5 0
BBX 5 5 0 -5
BITMAP
18
38
70
E0
E0
ENDCHAR
STARTCHAR 037A
ENCODING 890
SWIDTH 180 0
DWIDTH 5 0
BBX 5 5 0 -5
BITMAP
E0
C0
E0
F8
70
ENDCHAR
STARTCHAR 037B
ENCODING 891
SWIDTH 468 0
DWIDTH 13 0
BBX 14 19 2 0
BITMAP
0780
1FF0
3FF8
3FF8
3FFC
07FC
01FC
00FC
00FC
00F8
41F8
FFF8
FFF0
FFF0
FFE0
FFE0
FFC0
7F80
1800
ENDCHAR
STARTCHAR 037E
ENCODING 894
SWIDTH 180 0
DWIDTH 5 0
BBX 8 19 0 -5
BITMAP
06
0F
1F
1F
1E
00
00
00
00
3C
3C
3C
7C
78
78
F0
F0
E0
40
ENDCHAR
STARTCHAR 037F
ENCODING 895
SWIDTH 432 0
DWIDTH 12 0
BBX 15 19 1 0
BITMAP
007E
00FE
00FE
00FC
01FC
01FC
01FC
01FC
03FC
03F8
03F8
01F8
01F8
79F0
7BF0
FFE0
7FC0
7F80
1F00
ENDCHAR
STARTCHAR 0384
ENCODING 900
SWIDTH 144 0
DWIDTH 4 0
BBX 5 4 4 16
BITMAP
38
70
60
C0
ENDCHAR
STARTCHAR 0385
ENCODING 901
SWIDTH 288 0
DWIDTH 8 0
BBX 8 6 5 19
BITMAP
06
0C
18
E7
E6
40
ENDCHAR
STARTCHAR 0386
ENCODING 902
SWIDTH 612 0
DWIDTH 17 0
BBX 17 21 0 -1
BITMAP
00E000
00E600
01DE00
019E00
003E00
003E00
007E00
007E00
00FE00
01FE00
01FE00
03BE00
073F00
061F00
0FFF00
1FFF00
1F3F00
3E3F00
7C3F80
7C3F80
C00000
ENDCHAR
STARTCHAR 0387
ENCODING 903
SWIDTH 180 0
DWIDTH 5 0
BBX 5 5 3 9
BITMAP
30
78
F8
F8
F0
ENDCHAR
STARTCHAR 0388
ENCODING 904
SWIDTH 576 0
DWIDTH 16 0
BBX 13 20 4 0
BITMAP
7000
6FF8
FFF8
DFF0
1FF0
1FF0
1FA0
1E00
1F20
1FE0
1FC0
1F80
1E00
1FF0
1FF0
3FF0
3FF0
3FF0
3FC0
3C00
ENDCHAR
STARTCHAR 0389
ENCODING 905
SWIDTH 576 0
DWIDTH 16 0
BBX 18 20 2 0
BITMAP
1C0000
19E000
3FE3C0
37E7C0
07E7C0
07CF80
0FCF80
0FCF80
0FFF80
1FFF00
1FFF00
1FFF00
3FFF00
3FFF00
3F3E00
3F3E00
7E7E00
7E7C00
FE7C00
0C8000
ENDCHAR
STARTCHAR 038A
ENCODING 906
SWIDTH 360 0
DWIDTH 10 0
BBX 12 20 2 0
BITMAP
1C00
1BE0
3BF0
37E0
07E0
07C0
0FC0
0FC0
0FC0
1F80
1F80
1F80
1F80
3F00
3F00
3F00
3F00
7E00
7E00
F000
ENDCHAR
STARTCHAR 038C
ENCODING 908
SWIDTH 540 0
DWIDTH 15 0
BBX 14 20 3 0
BITMAP
3800
3780
7FE0
6FF0
1FF8
3FF8
3FF8
7FFC
7C7C
F87C
F87C
F8FC
FDF8
FFF8
FFF8
FFF0
FFF0
FFE0
7FC0
1F80
ENDCHAR
STARTCHAR 038E
ENCODING 910
SWIDTH 684 0
DWIDTH 19 0
BBX 19 20 4 0
BITMAP
700000
6003E0
FE03C0
FF0780
3F0F80
1F1F00
1F1E00
1FBE00
0FFC00
0FF800
0FF000
0FF000
07E000
07C000
07C000
03C000
07C000
07C000
07C000
078000
ENDCHAR
STARTCHAR 038F
ENCODING 911
SWIDTH 612 0
DWIDTH 17 0
BBX 19 20 1 0
BITMAP
0E0000
0DFF00
1FFF80
1FFFC0
07FFC0
0FFFE0
0FC7E0
1F03E0
1F03E0
1E03E0
1E03C0
1E03C0
1E0380
1E0780
1E0F00
0F1E00
7F1F80
7F3F80
7F3F80
FF3F80
ENDCHAR
STARTCHAR 0390
ENCODING 912
SWIDTH 324 0
DWIDTH 9 0
BBX 13 25 1 0
BITMAP
0038
0070
0060
03B8
0738
0000
03C0
07E0
07E0
07E0
0FC0
0FC0
0FC0
1F80
1F80
1F80
1F80
3F00
3F00
3F00
3F00
7F00
7E00
FE00
F000
ENDCHAR
STARTCHAR 0391
ENCODING 913
SWIDTH 612 0
DWIDTH 17 0
BBX 17 20 0 -1
BITMAP
000600
001E00
001E00
003E00
003E00
007E00
007E00
00FE00
01FE00
01FE00
03BE00
073F00
061F00
0FFF00
1FFF00
1F3F00
3E3F00
7C3F80
7C3F80
C00000
ENDCHAR
STARTCHAR 0392
ENCODING 914
SWIDTH 504 0
DWIDTH 14 0
BBX 12 19 3 0
BITMAP
1FC0
7FE0
7FE0
7FF0
7DF0
78F0
78E0
7DE0
7F80
7FE0
FFF0
FDF0
F8F0
F9F0
FBF0
FFE0
FFC0
FF80
F000
ENDCHAR
STARTCHAR 0393
ENCODING 915
SWIDTH 504 0
DWIDTH 14 0
BBX 16 20 1 0
BITMAP
000C
07FF
1FFF
1FFF
1FFF
1F00
3F00
3E00
3E00
3E00
3C00
7C00
7C00
7C00
7C00
F800
F800
F800
F800
F000
ENDCHAR
STARTCHAR 0394
ENCODING 916
SWIDTH 576 0
DWIDTH 16 0
BBX 15 18 1 1
BITMAP
003E
007E
00FE
01FE
01FE
03FE
07FE
0FFE
0FBE
1FBE
1F3E
3E3E
3E3E
7C3E
FFFE
FFFE
FFFE
FFFE
ENDCHAR
STARTCHAR 0395
ENCODING 917
SWIDTH 468 0
DWIDTH 13 0
BBX 11 19 4 0
BITMAP
7FE0
FFC0
FFC0
FF80
FF80
FE00
F800
F900
FF00
FF00
FC00
F800
FFC0
FFC0
FFC0
FFC0
FFC0
FF00
E000
ENDCHAR
STARTCHAR 0396
ENCODING 918
SWIDTH 576 0
DWIDTH 16 0
BBX 14 19 4 0
BITMAP
0FFC
7FF8
7FF0
FFE0
FFE0
03C0
0780
0780
0F00
1F00
1E00
3E00
3C00
7800
7FF8
FFF8
FFF0
3FE0
0F00
ENDCHAR
STARTCHAR 0397
ENCODING 919
SWIDTH 540 0
DWIDTH 15 0
BBX 18 19 1 0
BITMAP
01E000
07E7C0
07E7C0
07C780
0FCF80
0FCF80
0F8F80
1FFF00
1FFF00
1FFF00
3FFF00
3FFF00
3FFE00
3E7E00
7E7E00
7E7C00
7E7C00
FC7C00
088000
ENDCHAR
STARTCHAR 0398
ENCODING 920
SWIDTH 504 0
DWIDTH 14 0
BBX 15 19 2 0
BITMAP
03F0
0FF8
1FFC
1FFC
3FFE
3FFE
7FFE
7C7E
7FFE
7FFE
FFFC
F87C
7CF8
7FF8
7FF0
7FF0
3FE0
1FE0
0FC0
ENDCHAR
STARTCHAR 0399
ENCODING 921
SWIDTH 324 0
DWIDTH 9 0
BBX 11 19 1 0
BITMAP
03C0
07E0
07E0
07E0
0FC0
0FC0
0FC0
1F80
1F80
1F80
1F80
3F00
3F00
3F00
3F00
7F00
7E00
FE00
F000
ENDCHAR
STARTCHAR 039A
ENCODING 922
SWIDTH 540 0
DWIDTH 15 0
BBX 17 19 1 0
BITMAP
0FE300
0FE780
1FCF80
1FDF00
1FFE00
1FFC00
3FF800
3FF800
3FF000
3FE000
7FE000
7FF000
7FF000
7FF800
FF7800
FE7C00
FE7C00
FE3C00
FC2000
ENDCHAR
STARTCHAR 039B
ENCODING 923
SWIDTH 576 0
DWIDTH 16 0
BBX 15 19 1 0
BITMAP
00C0
03C0
03E0
03E0
07F0
07F0
0FF0
0FF8
0FF8
1FFC
1FFC
3EFC
3EFE
7EFE
7CFE
FCFE
FCFE
F81E
6000
ENDCHAR
STARTCHAR 039C
ENCODING 924
SWIDTH 648 0
DWIDTH 18 0
BBX 18 19 1 0
BITMAP
020040
0301C0
0701C0
0783C0
0787C0
0FC7C0
0FCFC0
1FDFC0
1FFFC0
1FFFC0
3FFF80
3F6F80
3E1F80
7E1F80
7C1F80
7C3F80
F83F80
F83F80
F00400
ENDCHAR
STARTCHAR 039D
ENCODING 925
SWIDTH 540 0
DWIDTH 15 0
BBX 18 19 1 0
BITMAP
010100
07E7C0
07CFC0
0FCF80
0FCF80
1FCF80
1FDF00
1FDF00
3FDF00
3FDE00
3FFE00
3FFE00
7EFE00
7EFC00
7CFC00
FCFC00
FCFC00
F8F800
E02000
ENDCHAR
STARTCHAR 039E
ENCODING 926
SWIDTH 468 0
DWIDTH 13 0
BBX 16 19 1 0
BITMAP
0FE0
1FFF
1FFE
1FFE
07FE
0000
0000
1FF8
1FF8
1FF8
1FF0
0000
0000
0000
FFF8
FFF8
FFF0
FFF0
07F0
ENDCHAR
STARTCHAR 039F
ENCODING 927
SWIDTH 504 0
DWIDTH 14 0
BBX 14 19 2 0
BITMAP
03C0
07E0
0FF8
0FF8
1FFC
3FFC
3FFC
7E7C
7C7C
FC7C
FC7C
FCFC
FFFC
FFF8
FFF8
7FF0
7FF0
3FE0
1F80
ENDCHAR
STARTCHAR 03A0
ENCODING 928
SWIDTH 540 0
DWIDTH 15 0
BBX 16 19 2 0
BITMAP
1FFF
3FFF
3FFF
3FFF
3FFF
7C1F
7C3E
7C3E
7C3E
7C3E
7C3C
FC7C
F87C
F87C
F87C
F878
F8F8
F0F8
F078
ENDCHAR
STARTCHAR 03A1
ENCODING 929
SWIDTH 468 0
DWIDTH 13 0
BBX 15 19 1 0
BITMAP
03F0
0FFC
0FFC
0FFE
1F3E
1F1E
1F1E
1F3E
3FFE
3FFC
3FF8
7FE0
7F00
7E00
FE00
FE00
FE00
FE00
FE00
ENDCHAR
STARTCHAR 03A3
ENCODING 931
SWIDTH 468 0
DWIDTH 13 0
BBX 16 19 1 0
BITMAP
1FFF
1FFF
1FFE
1FFE
1FC0
1F80
0FC0
07E0
03F0
01F0
01F0
07C0
0F80
3F00
7FD0
FFF8
FFF0
FFF0
FFF0
ENDCHAR
STARTCHAR 03A4
ENCODING 932
SWIDTH 576 0
DWIDTH 16 0
BBX 16 19 3 0
BITMAP
1FFE
7FFF
7FFF
7FFF
7FFF
FFFA
E3E0
03C0
07C0
0780
0780
0780
0F80
0F00
0F00
0F00
0F00
1E00
1E00
ENDCHAR
STARTCHAR 03A5
ENCODING 933
SWIDTH 612 0
DWIDTH 17 0
BBX 17 19 4 0
BITMAP
000F80
781F00
F81E00
FC3C00
FC7C00
7C7800
7CF000
7FF000
3FE000
3FC000
3FC000
1F8000
1F0000
1F0000
1F0000
1F0000
1E0000
1E0000
1E0000
ENDCHAR
STARTCHAR 03A6
ENCODING 934
SWIDTH 648 0
DWIDTH 18 0
BBX 19 22 2 -1
BITMAP
003000
007C00
007C00
07FFC0
1FFFC0
1FFFC0
3FFFE0
3FFFE0
7EF7C0
7DF7C0
79F7C0
F9F7C0
FBE7C0
FBEF80
FFDF80
FFFF00
FFFE00
FFFC00
FFF800
0FF000
0F0000
0F0000
ENDCHAR
STARTCHAR 03A7
ENCODING 935
SWIDTH 576 0
DWIDTH 16 0
BBX 17 19 2 0
BITMAP
000780
1E0F80
3F0F80
3F1F00
3F3E00
3F3E00
1FFC00
1FFC00
0FF800
0FF000
07F000
0FF000
1FF000
3FF000
3EF000
7CF000
FCF800
F86000
800000
ENDCHAR
STARTCHAR 03A8
ENCODING 936
SWIDTH 720 0
DWIDTH 20 0
BBX 20 19 3 0
BITMAP
380070
7C78F0
78F9F0
78F9F0
78F1F0
F8F1E0
F9F3E0
F1F3E0
F1E3C0
FDEFC0
FFFF80
7FFF00
7FFF00
3FFC00
07F000
03C000
07C000
07C000
07C000
ENDCHAR
STARTCHAR 03A9
ENCODING 937
SWIDTH 612 0
DWIDTH 17 0
BBX 18 19 1 0
BITMAP
03FE00
07FF00
0FFF80
0FFF80
1FFFC0
1F8FC0
3E07C0
3E07C0
3C07C0
3C0780
3C0780
3C0780
3C0F00
3E1E00
1E3C00
FE3F00
FE7F00
FE7F00
FE7F00
ENDCHAR
STARTCHAR 03AA
ENCODING 938
SWIDTH 324 0
DWIDTH 9 0
BBX 13 23 1 0
BITMAP
0010
03B8
0738
0000
03C0
07E0
07E0
07E0
0FC0
0FC0
0FC0
1F80
1F80
1F80
1F80
3F00
3F00
3F00
3F00
7F00
7E00
FE00
F000
ENDCHAR
STARTCHAR 03AB
ENCODING 939
SWIDTH 612 0
DWIDTH 17 0
BBX 17 23 4 0
BITMAP
001000
033800
073800
020000
000F80
781F00
F81E00
FC3C00
FC7C00
7C7800
7CF000
7FF000
3FE000
3FC000
3FC000
1F8000
1F0000
1F0000
1F0000
1F0000
1E0000
1E0000
1E0000
ENDCHAR
STARTCHAR 03AC
ENCODING 940
SWIDTH 612 0
DWIDTH 17 0
BBX 17 21 0 -1
BITMAP
00E000
00E600
01DE00
019E00
003E00
003E00
007E00
007E00
00FE00
01FE00
01FE00
03BE00
073F00
061F00
0FFF00
1FFF00
1F3F00
3E3F00
7C3F80
7C3F80
C00000
ENDCHAR
STARTCHAR 03AD
ENCODING 941
SWIDTH 576 0
DWIDTH 16 0
BBX 13 20 4 0
BITMAP
7000
6FF8
FFF8
DFF0
1FF0
1FF0
1FA0
1E00
1F20
1FE0
1FC0
1F80
1E00
1FF0
1FF0
3FF0
3FF0
3FF0
3FC0
3C00
ENDCHAR
STARTCHAR 03AE
ENCODING 942
SWIDTH 576 0
DWIDTH 16 0
BBX 18 20 2 0
BITMAP
1C0000
19E000
3FE3C0
37E7C0
07E7C0
07CF80
0FCF80
0FCF80
0FFF80
1FFF00
1FFF00
1FFF00
3FFF00
3FFF00
3F3E00
3F3E00
7E7E00
7E7C00
FE7C00
0C8000
ENDCHAR
STARTCHAR 03AF
ENCODING 943
SWIDTH 360 0
DWIDTH 10 0
BBX 12 20 2 0
BITMAP
1C00
1BE0
3BF0
37E0
07E0
07C0
0FC0
0FC0
0FC0
1F80
1F80
1F80
1F80
3F00
3F00
3F00
3F00
7E00
7E00
F000
ENDCHAR
STARTCHAR 03B0
ENCODING 944
SWIDTH 612 0
DWIDTH 17 0
BBX 17 25 4 0
BITMAP
003800
007000
00E000
033800
073800
020000
000F80
781F00
F81E00
FC3C00
FC7C00
7C7800
7CF000
7FF000
3FE000
3FC000
3FC000
1F8000
1F0000
1F0000
1F0000
1F0000
1E0000
1E0000
1E0000
ENDCHAR
STARTCHAR 03B1
ENCODING 945
SWIDTH 612 0
DWIDTH 17 0
BBX 17 20 0 -1
BITMAP
000600
001E00
001E00
003E00
003E00
007E00
007E00
00FE00
01FE00
01FE00
03BE00
073F00
061F00
0FFF00
1FFF00
1F3F00
3E3F00
7C3F80
7C3F80
C00000
ENDCHAR
STARTCHAR 03B2
ENCODING 946
SWIDTH 504 0
DWIDTH 14 0
BBX 12 19 3 0
BITMAP
1FC0
7FE0
7FE0
7FF0
7DF0
78F0
78E0
7DE0
7F80
7FE0
FFF0
FDF0
F8F0
F9F0
FBF0
FFE0
FFC0
FF80
F000
ENDCHAR
STARTCHAR 03B3
ENCODING 947
SWIDTH 504 0
DWIDTH 14 0
BBX 16 20 1 0
BITMAP
000C
07FF
1FFF
1FFF
1FFF
1F00
3F00
3E00
3E00
3E00
3C00
7C00
7C00
7C00
7C00
F800
F800
F800
F800
F000
ENDCHAR
STARTCHAR 03B4
ENCODING 948
SWIDTH 576 0
DWIDTH 16 0
BBX 15 18 1 1
BITMAP
003E
007E
00FE
01FE
01FE
03FE
07FE
0FFE
0FBE
1FBE
1F3E
3E3E
3E3E
7C3E
FFFE
FFFE
FFFE
FFFE
ENDCHAR
STARTCHAR 03B5
ENCODING 949
SWIDTH 468 0
DWIDTH 13 0
BBX 11 19 4 0
BITMAP
7FE0
FFC0
FFC0
FF80
FF80
FE00
F800
F900
FF00
FF00
FC00
F800
FFC0
FFC0
FFC0
FFC0
FFC0
FF00
E000
ENDCHAR
STARTCHAR 03B6
ENCODING 950
SWIDTH 576 0
DWIDTH 16 0
BBX 14 19 4 0
BITMAP
0FFC
7FF8
7FF0
FFE0
FFE0
03C0
0780
0780
0F00
1F00
1E00
3E00
3C00
7800
7FF8
FFF8
FFF0
3FE0
0F00
ENDCHAR
STARTCHAR 03B7
ENCODING 951
SWIDTH 540 0
DWIDTH 15 0
BBX 18 19 1 0
BITMAP
01E000
07E7C0
07E7C0
07C780
0FCF80
0FCF80
0F8F80
1FFF00
1FFF00
1FFF00
3FFF00
3FFF00
3FFE00
3E7E00
7E7E00
7E7C00
7E7C00
FC7C00
088000
ENDCHAR
STARTCHAR 03B8
ENCODING 952
SWIDTH 504 0
DWIDTH 14 0
BBX 15 19 2 0
BITMAP
03F0
0FF8
1FFC
1FFC
3FFE
3FFE
7FFE
7C7E
7FFE
7FFE
FFFC
F87C
7CF8
7FF8
7FF0
7FF0
3FE0
1FE0
0FC0
ENDCHAR
STARTCHAR 03B9
ENCODING 953
SWIDTH 324 0
DWIDTH 9 0
BBX 11 19 1 0
BITMAP
03C0
07E0
07E0
07E0
0FC0
0FC0
0FC0
1F80
1F80
1F80
1F80
3F00
3F00
3F00
3F00
7F00
7E00
FE00
F000
ENDCHAR
STARTCHAR 03BA
ENCODING 954
SWIDTH 540 0
DWIDTH 15 0
BBX 17 19 1 0
BITMAP
0FE300
0FE780
1FCF80
1FDF00
1FFE00
1FFC00
3FF800
3FF800
3FF000
3FE000
7FE000
7FF000
7FF000
7FF800
FF7800
FE7C00
FE7C00
FE3C00
FC2000
ENDCHAR
STARTCHAR 03BB
ENCODING 955
SWIDTH 576 0
DWIDTH 16 0
BBX 15 19 1 0
BITMAP
00C0
03C0
03E0
03E0
07F0
07F0
0FF0
0FF8
0FF8
1FFC
1FFC
3EFC
3EFE
7EFE
7CFE
FCFE
FCFE
F81E
6000
ENDCHAR
STARTCHAR 03BC
ENCODING 956
SWIDTH 648 0
DWIDTH 18 0
BBX 18 19 1 0
BITMAP
020040
0301C0
0701C0
0783C0
0787C0
0FC7C0
0FCFC0
1FDFC0
1FFFC0
1FFFC0
3FFF80
3F6F80
3E1F80
7E1F80
7C1F80
7C3F80
F83F80
F83F80
F00400
ENDCHAR
STARTCHAR 03BD
ENCODING 957
SWIDTH 540 0
DWIDTH 15 0
BBX 18 19 1 0
BITMAP
010100
07E7C0
07CFC0
0FCF80
0FCF80
1FCF80
1FDF00
1FDF00
3FDF00
3FDE00
3FFE00
3FFE00
7EFE00
7EFC00
7CFC00
FCFC00
FCFC00
F8F800
E02000
ENDCHAR
STARTCHAR 03BE
ENCODING 958
SWIDTH 468 0
DWIDTH 13 0
BBX 16 19 1 0
BITMAP
0FE0
1FFF
1FFE
1FFE
07FE
0000
0000
1FF8
1FF8
1FF8
1FF0
0000
0000
0000
FFF8
FFF8
FFF0
FFF0
07F0
ENDCHAR
STARTCHAR 03BF
ENCODING 959
SWIDTH 504 0
DWIDTH 14 0
BBX 14 19 2 0
BITMAP
03C0
07E0
0FF8
0FF8
1FFC
3FFC
3FFC
7E7C
7C7C
FC7C
FC7C
FCFC
FFFC
FFF8
FFF8
7FF0
7FF0
3FE0
1F80
ENDCHAR
STARTCHAR 03C0
ENCODING 960
SWIDTH 540 0
DWIDTH 15 0
BBX 16 19 2 0
BITMAP
1FFF
3FFF
3FFF
3FFF
3FFF
7C1F
7C3E
7C3E
7C3E
7C3E
7C3C
FC7C
F87C
F87C
F87C
F878
F8F8
F0F8
F078
ENDCHAR
STARTCHAR 03C1
ENCODING 961
SWIDTH 468 0
DWIDTH 13 0
BBX 15 19 1 0
BITMAP
03F0
0FFC
0FFC
0FFE
1F3E
1F1E
1F1E
1F3E
3FFE
3FFC
3FF8
7FE0
7F00
7E00
FE00
FE00
FE00
FE00
FE00
ENDCHAR
STARTCHAR 03C2
ENCODING 962
SWIDTH 468 0
DWIDTH 13 0
BBX 15 23 2 -4
BITMAP
0070
03FC
0FFE
1FFE
3FFC
3FFC
7C00
7800
7800
F800
F800
F800
FE00
FFC0
7FF0
7FF0
3FF0
03E0
03E0
0FE0
0FC0
1F80
1E00
ENDCHAR
STARTCHAR 03C3
ENCODING 963
SWIDTH 468 0
DWIDTH 13 0
BBX 16 19 1 0
BITMAP
1FFF
1FFF
1FFE
1FFE
1FC0
1F80
0FC0
07E0
03F0
01F0
01F0
07C0
0F80
3F00
7FD0
FFF8
FFF0
FFF0
FFF0
ENDCHAR
STARTCHAR 03C4
ENCODING 964
SWIDTH 576 0
DWIDTH 16 0
BBX 16 19 3 0
BITMAP
1FFE
7FFF
7FFF
7FFF
7FFF
FFFA
E3E0
03C0
07C0
0780
0780
0780
0F80
0F00
0F00
0F00
0F00
1E00
1E00
ENDCHAR
STARTCHAR 03C5
ENCODING 965
SWIDTH 612 0
DWIDTH 17 0
BBX 17 19 4 0
BITMAP
000F80
781F00
F81E00
FC3C00
FC7C00
7C7800
7CF000
7FF000
3FE000
3FC000
3FC000
1F8000
1F0000
1F0000
1F0000
1F0000
1E0000
1E0000
1E0000
ENDCHAR
STARTCHAR 03C6
ENCODING 966
SWIDTH 648 0
DWIDTH 18 0
BBX 19 22 2 -1
BITMAP
003000
007C00
007C00
07FFC0
1FFFC0
1FFFC0
3FFFE0
3FFFE0
7EF7C0
7DF7C0
79F7C0
F9F7C0
FBE7C0
FBEF80
FFDF80
FFFF00
FFFE00
FFFC00
FFF800
0FF000
0F0000
0F0000
ENDCHAR
STARTCHAR 03C7
ENCODING 967
SWIDTH 576 0
DWIDTH 16 0
BBX 17 19 2 0
BITMAP
000780
1E0F80
3F0F80
3F1F00
3F3E00
3F3E00
1FFC00
1FFC00
0FF800
0FF000
07F000
0FF000
1FF000
3FF000
3EF000
7CF000
FCF800
F86000
800000
ENDCHAR
STARTCHAR 03C8
ENCODING 968
SWIDTH 720 0
DWIDTH 20 0
BBX 20 19 3 0
BITMAP
380070
7C78F0
78F9F0
78F9F0
78F1F0
F8F1E0
F9F3E0
F1F3E0
F1E3C0
FDEFC0
FFFF80
7FFF00
7FFF00
3FFC00
07F000
03C000
07C000
07C000
07C000
ENDCHAR
STARTCHAR 03C9
ENCODING 969
SWIDTH 612 0
DWIDTH 17 0
BBX 18 19 1 0
BITMAP
03FE00
07FF00
0FFF80
0FFF80
1FFFC0
1F8FC0
3E07C0
3E07C0
3C07C0
3C0780
3C0780
3C0780
3C0F00
3E1E00
1E3C00
FE3F00
FE7F00
FE7F00
FE7F00
ENDCHAR
STARTCHAR 03CA
ENCODING 970
SWIDTH 324 0
DWIDTH 9 0
BBX 13 23 1 0
BITMAP
0010
03B8
0738
0000
03C0
07E0
07E0
07E0
0FC0
0FC0
0FC0
1F80
1F80
1F80
1F80
3F00
3F00
3F00
3F00
7F00
7E00
FE00
F000
ENDCHAR
STARTCHAR 03CB
ENCODING 971
SWIDTH 612 0
DWIDTH 17 0
BBX 17 23 4 0
BITMAP
001000
033800
073800
020000
000F80
781F00
F81E00
FC3C00
FC7C00
7C7800
7CF000
7FF000
3FE000
3FC000
3FC000
1F8000
1F0000
1F0000
1F0000
1F0000
1E0000
1E0000
1E0000
ENDCHAR
STARTCHAR 03CC
ENCODING 972
SWIDTH 540 0
DWIDTH 15 0
BBX 14 20 3 0
BITMAP
3800
3780
7FE0
6FF0
1FF8
3FF8
3FF8
7FFC
7C7C
F87C
F87C
F8FC
FDF8
FFF8
FFF8
FFF0
FFF0
FFE0
7FC0
1F80
ENDCHAR
STARTCHAR 03CD
ENCODING 973
SWIDTH 684 0
DWIDTH 19 0
BBX 19 20 4 0
BITMAP
700000
6003E0
FE03C0
FF0780
3F0F80
1F1F00
1F1E00
1FBE00
0FFC00
0FF800
0FF000
0FF000
07E000
07C000
07C000
03C000
07C000
07C000
07C000
078000
ENDCHAR
STARTCHAR 03CE
ENCODING 974
SWIDTH 612 0
DWIDTH 17 0
BBX 19 20 1 0
BITMAP
0E0000
0DFF00
1FFF80
1FFFC0
07FFC0
0FFFE0
0FC7E0
1F03E0
1F03E0
1E03E0
1E03C0
1E03C0
1E0380
1E0780
1E0F00
0F1E00
7F1F80
7F3F80
7F3F80
FF3F80
ENDCHAR
STARTCHAR 03D2
ENCODING 978
SWIDTH 612 0
DWIDTH 17 0
BBX 17 19 4 0
BITMAP
600600
F80F80
FC1F80
FC3F80
FC7F00
1EFF00
1EE600
1FE000
1FC000
1FC000
1F8000
1F0000
1F0000
1F0000
1E0000
1E0000
3E0000
3E0000
3E0000
ENDCHAR
STARTCHAR 03D3
ENCODING 979
SWIDTH 720 0
DWIDTH 20 0
BBX 19 20 4 0
BITMAP
700000
6C00C0
FF03E0
DF87E0
1F87E0
1F8FE0
03DFC0
03DC80
03F800
03B800
03F000
03F000
03E000
03E000
03C000
03C000
07C000
07C000
07C000
078000
ENDCHAR
STARTCHAR 03D4
ENCODING 980
SWIDTH 612 0
DWIDTH 17 0
BBX 17 23 4 0
BITMAP
001000
033800
073800
020000
600600
F80F80
FC1F80
FC3F80
FC7F00
1EFF00
1EE600
1FE000
1FC000
1FC000
1F8000
1F0000
1F0000
1F0000
1E0000
1E0000
3E0000
3E0000
3E0000
ENDCHAR
STARTCHAR 03D5
ENCODING 981
SWIDTH 648 0
DWIDTH 18 0
BBX 19 22 2 -1
BITMAP
003000
007C00
007C00
07FFC0
1FFFC0
1FFFC0
3FFFE0
3FFFE0
7EF7C0
7DF7C0
79F7C0
F9F7C0
FBE7C0
FBEF80
FFDF80
FFFF00
FFFE00
FFFC00
FFF800
0FF000
0F0000
0F0000
ENDCHAR
STARTCHAR 03D8
ENCODING 984
SWIDTH 504 0
DWIDTH 14 0
BBX 15 22 2 -4
BITMAP
01FC
03FC
0FFC
0FFE
1FFE
3FFE
3E7E
7C3E
7C3E
FC3E
F87C
FC7C
FFF8
FFF8
FFF0
FFF0
FFE0
7FC0
3F00
1E00
1E00
1E00
ENDCHAR
STARTCHAR 03D9
ENCODING 985
SWIDTH 504 0
DWIDTH 14 0
BBX 15 22 2 -4
BITMAP
01FC
03FC
0FFC
0FFE
1FFE
3FFE
3E7E
7C3E
7C3E
FC3E
F87C
FC7C
FFF8
FFF8
FFF0
FFF0
FFE0
7FC0
3F00
1E00
1E00
1E00
ENDCHAR
STARTCHAR 03DA
ENCODING 986
SWIDTH 468 0
DWIDTH 13 0
BBX 15 23 2 -4
BITMAP
01FE
07FE
0FFE
1FFE
3FFC
3E00
7C00
7800
7800
F800
F800
F800
FC00
FF00
FFE0
7FF0
3FF0
1FE0
03E0
0FE0
0FC0
1F80
1E00
ENDCHAR
STARTCHAR 03DB
ENCODING 987
SWIDTH 468 0
DWIDTH 13 0
BBX 15 23 2 -4
BITMAP
01FE
07FE
0FFE
1FFE
3FFC
3E00
7C00
7800
7800
F800
F800
F800
FC00
FF00
FFE0
7FF0
3FF0
1FE0
03E0
0FE0
0FC0
1F80
1E00
ENDCHAR
STARTCHAR 03F2
ENCODING 1010
SWIDTH 468 0
DWIDTH 13 0
BBX 15 19 2 0
BITMAP
00F0
07FC
0FFE
1FFC
3FFC
3FC0
7F00
7E00
7C00
7C00
FE10
FFF8
FFF0
FFF0
FFF0
7FF0
7FC0
7F80
0600
ENDCHAR
STARTCHAR 03F3
ENCODING 1011
SWIDTH 432 0
DWIDTH 12 0
BBX 15 19 1 0
BITMAP
007E
00FE
00FE
00FC
01FC
01FC
01FC
01FC
03FC
03F8
03F8
01F8
01F8
79F0
7BF0
FFE0
7FC0
7F80
1F00
ENDCHAR
STARTCHAR 03F4
ENCODING 1012
SWIDTH 504 0
DWIDTH 14 0
BBX 15 19 2 0
BITMAP
07F0
0FF8
1FFC
1FFC
3FFC
3FFC
7E7E
7C3E
7FFE
FFFC
FE7C
FC7C
FFFC
FFF8
FFF8
7FF0
7FF0
3FE0
0F80
ENDCHAR
STARTCHAR 03F7
ENCODING 1015
SWIDTH 504 0
DWIDTH 14 0
BBX 13 19 2 0
BITMAP
3E00
3E00
3F00
3FE0
3FF0
7FF8
7DF8
7C78
7C38
7C78
7C78
7CF8
7FF8
FFF0
FFE0
FC00
F800
F800
F800
ENDCHAR
STARTCHAR 03F8
ENCODING 1016
SWIDTH 504 0
DWIDTH 14 0
BBX 13 19 2 0
BITMAP
3E00
3E00
3F00
3FE0
3FF0
7FF8
7DF8
7C78
7C38
7C78
7C78
7CF8
7FF8
FFF0
FFE0
FC00
F800
F800
F800
ENDCHAR
STARTCHAR 03F9
ENCODING 1017
SWIDTH 468 0
DWIDTH 13 0
BBX 15 19 2 0
BITMAP
00F0
07FC
0FFE
1FFC
3FFC
3FC0
7F00
7E00
7C00
7C00
FE10
FFF8
FFF0
FFF0
FFF0
7FF0
7FC0
7F80
0600
ENDCHAR
STARTCHAR 03FA
ENCODING 1018
SWIDTH 612 0
DWIDTH 17 0
BBX 17 19 1 0
BITMAP
040180
0E0780
0F0F80
1FFF80
1FFF80
1FFF80
3FFF80
3FDF80
3E1F80
3E1F80
7E1F00
7E1F00
7E1F00
7E1F00
FC1F00
FC1F00
FC1F00
FC1F00
F80B00
ENDCHAR
STARTCHAR 03FB
ENCODING 1019
SWIDTH 612 0
DWIDTH 17 0
BBX 17 19 1 0
BITMAP
040180
0E0780
0F0F80
1FFF80
1FFF80
1FFF80
3FFF80
3FDF80
3E1F80
3E1F80
7E1F00
7E1F00
7E1F00
7E1F00
FC1F00
FC1F00
FC1F00
FC1F00
F80B00
ENDCHAR
STARTCHAR 03FD
ENCODING 1021
SWIDTH 468 0
DWIDTH 13 0
BBX 14 19 2 0
BITMAP
0780
1FF0
3FF8
3FF8
3FFC
07FC
01FC
00FC
00FC
00F8
41F8
FFF8
FFF0
FFF0
FFE0
FFE0
FFC0
7F80
1800
ENDCHAR
STARTCHAR 0400
ENCODING 1024
SWIDTH 468 0
DWIDTH 13 0
BBX 11 24 4 0
BITMAP
7800
3C00
1C00
0E00
0000
7FE0
FFC0
FFC0
FF80
FF80
FE00
F800
F900
FF00
FF00
FC00
F800
FFC0
FFC0
FFC0
FFC0
FFC0
FF00
E000
ENDCHAR
STARTCHAR 0401
ENCODING 1025
SWIDTH 468 0
DWIDTH 13 0
BBX 11 23 4 0
BITMAP
0380
7380
7300
2000
7FE0
FFC0
FFC0
FF80
FF80
FE00
F800
F900
FF00
FF00
FC00
F800
FFC0
FFC0
FFC0
FFC0
FFC0
FF00
E000
ENDCHAR
STARTCHAR 0402
ENCODING 1026
SWIDTH 648 0
DWIDTH 18 0
BBX 16 22 4 -3
BITMAP
7FFE
FFFE
FFFE
FFFE
07C0
0780
0FBC
0FFE
0FFF
0FFF
0F9F
0F1F
1F1F
1F1F
1E1E
1E1E
1E1E
3E1E
3C3C
00FC
00FC
00F8
ENDCHAR
STARTCHAR 0403
ENCODING 1027
SWIDTH 504 0
DWIDTH 14 0
BBX 16 24 1 0
BITMAP
001E
003C
0078
0070
000C
07FF
1FFF
1FFF
1FFF
1F00
3F00
3E00
3E00
3E00
3C00
7C00
7C00
7C00
7C00
F800
F800
F800
F800
F000
ENDCHAR
STARTCHAR 0404
ENCODING 1028
SWIDTH 468 0
DWIDTH 13 0
BBX 15 19 2 0
BITMAP
01F0
07FC
0FFE
1FFE
1FFC
3FFC
7E7C
7C00
7FE0
FFE0
FFE0
FFE0
F800
FFF0
FFF0
FFF0
7FF0
3FE0
0700
ENDCHAR
STARTCHAR 0405
ENCODING 1029
SWIDTH 504 0
DWIDTH 14 0
BBX 16 19 1 0
BITMAP
01FF
03FF
07FE
0FFE
0FFC
1FF8
1FF8
1F10
1F80
1FE0
0FF8
01F8
0078
20F8
FFF8
FFF8
FFF0
7FC0
3F80
ENDCHAR
STARTCHAR 0406
ENCODING 1030
SWIDTH 324 0
DWIDTH 9 0
BBX 11 19 1 0
BITMAP
03C0
07E0
07E0
07E0
0FC0
0FC0
0FC0
1F80
1F80
1F80
1F80
3F00
3F00
3F00
3F00
7F00
7E00
FE00
F000
ENDCHAR
STARTCHAR 0407
ENCODING 1031
SWIDTH 324 0
DWIDTH 9 0
BBX 13 23 1 0
BITMAP
0010
03B8
0738
0000
03C0
07E0
07E0
07E0
0FC0
0FC0
0FC0
1F80
1F80
1F80
1F80
3F00
3F00
3F00
3F00
7F00
7E00
FE00
F000
ENDCHAR
STARTCHAR 0408
ENCODING 1032
SWIDTH 432 0
DWIDTH 12 0
BBX 15 19 1 0
BITMAP
007E
00FE
00FE
00FC
01FC
01FC
01FC
01FC
03FC
03F8
03F8
01F8
01F8
79F0
7BF0
FFE0
7FC0
7F80
1F00
ENDCHAR
STARTCHAR 0409
ENCODING 1033
SWIDTH 720 0
DWIDTH 20 0
BBX 20 19 1 0
BITMAP
003E00
00FF00
01FF00
01FF00
03FF00
03FE00
07FF00
07FFE0
0FBFE0
0FBFF0
1F3CF0
1F3C70
3E7870
3E78F0
7C78F0
FCFBE0
FCFFE0
F8FFC0
60FF80
ENDCHAR
STARTCHAR 040A
ENCODING 1034
SWIDTH 720 0
DWIDTH 20 0
BBX 20 19 1 0
BITMAP
01CE00
07CF00
07CF00
0F8F00
0F9F00
0F9E00
1F9F00
1FFFE0
1FFFE0
1FFFF0
3FFCF0
3FFC70
3FF870
7E78F0
7E78F0
7CFBE0
7CFFE0
FCFFC0
18FF80
ENDCHAR
STARTCHAR 040B
ENCODING 1035
SWIDTH 648 0
DWIDTH 18 0
BBX 16 19 4 0
BITMAP
7FFE
FFFE
FFFE
FFFE
07C0
0780
0FBC
0FFE
0FFF
0FFF
0F9F
0F1F
1F1F
1F1F
1E1E
1E1E
1E3E
3E3E
3C3C
ENDCHAR
STARTCHAR 040C
ENCODING 1036
SWIDTH 540 0
DWIDTH 15 0
BBX 18 24 1 0
BITMAP
0003C0
000780
000F00
001C00
000000
0FE300
0FE780
1FCF80
1FDF00
1FFE00
1FFC00
3FF800
3FF800
3FF000
3FE000
7FE000
7FF000
7FF000
7FF800
FF7800
FE7C00
FE7C00
FE3C00
FC2000
ENDCHAR
STARTCHAR 040D
ENCODING 1037
SWIDTH 540 0
DWIDTH 15 0
BBX 15 24 2 0
BITMAP
0780
03C0
03C0
01C0
0000
040C
3E3E
3E3E
3E7E
3E7E
3E7E
3EFE
3CFE
7DFE
7FFC
7FFC
7FFC
7F7C
7E7C
7E7C
FC7C
FCF8
FCF8
2038
ENDCHAR
STARTCHAR 040E
ENCODING 1038
SWIDTH 504 0
DWIDTH 14 0
BBX 16 24 1 0
BITMAP
018E
01DE
01FC
00F0
0000
0F9F
1F9F
1F9E
0FBE
0FBE
0FBC
0FFC
07F8
07F8
07F8
07F0
03F0
03F0
7FE0
7FE0
7FE0
FFC0
FF00
F000
ENDCHAR
STARTCHAR 040F
ENCODING 1039
SWIDTH 504 0
DWIDTH 14 0
BBX 17 21 1 -4
BITMAP
1F0F80
1F0F00
1F0F00
1E1F00
3E1F00
3E1F00
3E1E00
3C1E00
3C3E00
7C3E00
7C3E00
783E00
783C00
FFFC00
FFFC00
FFFC00
FFFC00
1F8000
0F0000
0F0000
0F0000
ENDCHAR
STARTCHAR 0410
ENCODING 1040
SWIDTH 612 0
DWIDTH 17 0
BBX 17 20 0 -1
BITMAP
000600
001E00
001E00
003E00
003E00
007E00
007E00
00FE00
01FE00
01FE00
03BE00
073F00
061F00
0FFF00
1FFF00
1F3F00
3E3F00
7C3F80
7C3F80
C00000
ENDCHAR
STARTCHAR 0411
ENCODING 1041
SWIDTH 468 0
DWIDTH 13 0
BBX 15 19 2 0
BITMAP
1FF8
1FFE
1FFC
1FFC
3FFC
3E00
3E00
3FE0
3FF0
7FF8
7FF8
7C78
7C78
7CF0
FCF0
FFE0
FFC0
FF80
3C00
ENDCHAR
STARTCHAR 0412
ENCODING 1042
SWIDTH 504 0
DWIDTH 14 0
BBX 12 19 3 0
BITMAP
1FC0
7FE0
7FE0
7FF0
7DF0
78F0
78E0
7DE0
7F80
7FE0
FFF0
FDF0
F8F0
F9F0
FBF0
FFE0
FFC0
FF80
F000
ENDCHAR
STARTCHAR 0413
ENCODING 1043
SWIDTH 504 0
DWIDTH 14 0
BBX 16 20 1 0
BITMAP
000C
07FF
1FFF
1FFF
1FFF
1F00
3F00
3E00
3E00
3E00
3C00
7C00
7C00
7C00
7C00
F800
F800
F800
F800
F000
ENDCHAR
STARTCHAR 0414
ENCODING 1044
SWIDTH 576 0
DWIDTH 16 0
BBX 16 22 1 -3
BITMAP
003C
007C
007C
00FC
01FC
01FC
03FC
07FC
07BC
0FBC
0F3C
1F3C
1E3C
3E3E
FFFE
FFFF
FFFE
FFFE
F01E
F03C
F03C
F070
ENDCHAR
STARTCHAR 0415
ENCODING 1045
SWIDTH 468 0
DWIDTH 13 0
BBX 11 19 4 0
BITMAP
7FE0
FFC0
FFC0
FF80
FF80
FE00
F800
F900
FF00
FF00
FC00
F800
FFC0
FFC0
FFC0
FFC0
FFC0
FF00
E000
ENDCHAR
STARTCHAR 0416
ENCODING 1046
SWIDTH 684 0
DWIDTH 19 0
BBX 21 19 1 0
BITMAP
000818
1F3C78
1FBCF8
1FFDF0
1FFDF0
0FFFE0
0FFFE0
0FFFC0
0FFF80
07FF80
0FFF80
1FFFC0
1FFFE0
3EFFE0
7EF7E0
7EF7E0
FCF3C0
F8F300
304000
ENDCHAR
STARTCHAR 0417
ENCODING 1047
SWIDTH 468 0
DWIDTH 13 0
BBX 13 19 2 0
BITMAP
1FF0
3FF8
3FF8
3FF8
30F8
00F8
00F8
01F0
1FE0
1FE0
1FF0
01F0
00F0
01F0
7FF0
FFF0
FFE0
7FC0
7F00
ENDCHAR
STARTCHAR 0418
ENCODING 1048
SWIDTH 540 0
DWIDTH 15 0
BBX 15 19 2 0
BITMAP
040C
3E3E
3E3E
3E7E
3E7E
3E7E
3EFE
3CFE
7DFE
7FFC
7FFC
7FFC
7F7C
7E7C
7E7C
FC7C
FCF8
FCF8
2038
ENDCHAR
STARTCHAR 0419
ENCODING 1049
SWIDTH 540 0
DWIDTH 15 0
BBX 15 24 2 0
BITMAP
031C
03BC
03F8
01E0
0000
040C
3E3E
3E3E
3E7E
3E7E
3E7E
3EFE
3CFE
7DFE
7FFC
7FFC
7FFC
7F7C
7E7C
7E7C
FC7C
FCF8
FCF8
2038
ENDCHAR
STARTCHAR 041A
ENCODING 1050
SWIDTH 540 0
DWIDTH 15 0
BBX 17 19 1 0
BITMAP
0FE300
0FE780
1FCF80
1FDF00
1FFE00
1FFC00
3FF800
3FF800
3FF000
3FE000
7FE000
7FF000
7FF000
7FF800
FF7800
FE7C00
FE7C00
FE3C00
FC2000
ENDCHAR
STARTCHAR 041B
ENCODING 1051
SWIDTH 576 0
DWIDTH 16 0
BBX 15 19 1 0
BITMAP
00C0
03C0
03E0
03E0
07F0
07F0
0FF0
0FF8
0FF8
1FFC
1FFC
3EFC
3EFE
7EFE
7CFE
FCFE
FCFE
F81E
6000
ENDCHAR
STARTCHAR 041C
ENCODING 1052
SWIDTH 648 0
DWIDTH 18 0
BBX 18 19 1 0
BITMAP
020040
0301C0
0701C0
0783C0
0787C0
0FC7C0
0FCFC0
1FDFC0
1FFFC0
1FFFC0
3FFF80
3F6F80
3E1F80
7E1F80
7C1F80
7C3F80
F83F80
F83F80
F00400
ENDCHAR
STARTCHAR 041D
ENCODING 1053
SWIDTH 540 0
DWIDTH 15 0
BBX 18 19 1 0
BITMAP
01E000
07E7C0
07E7C0
07C780
0FCF80
0FCF80
0F8F80
1FFF00
1FFF00
1FFF00
3FFF00
3FFF00
3FFE00
3E7E00
7E7E00
7E7C00
7E7C00
FC7C00
088000
ENDCHAR
STARTCHAR 041E
ENCODING 1054
SWIDTH 504 0
DWIDTH 14 0
BBX 14 19 2 0
BITMAP
03C0
07E0
0FF8
0FF8
1FFC
3FFC
3FFC
7E7C
7C7C
FC7C
FC7C
FCFC
FFFC
FFF8
FFF8
7FF0
7FF0
3FE0
1F80
ENDCHAR
STARTCHAR 041F
ENCODING 1055
SWIDTH 540 0
DWIDTH 15 0
BBX 16 19 2 0
BITMAP
1FFF
3FFF
3FFF
3FFF
3FFF
7C1F
7C3E
7C3E
7C3E
7C3E
7C3C
FC7C
F87C
F87C
F87C
F878
F8F8
F0F8
F078
ENDCHAR
STARTCHAR 0420
ENCODING 1056
SWIDTH 468 0
DWIDTH 13 0
BBX 15 19 1 0
BITMAP
03F0
0FFC
0FFC
0FFE
1F3E
1F1E
1F1E
1F3E
3FFE
3FFC
3FF8
7FE0
7F00
7E00
FE00
FE00
FE00
FE00
FE00
ENDCHAR
STARTCHAR 0421
ENCODING 1057
SWIDTH 468 0
DWIDTH 13 0
BBX 15 19 2 0
BITMAP
00F0
07FC
0FFE
1FFC
3FFC
3FC0
7F00
7E00
7C00
7C00
FE10
FFF8
FFF0
FFF0
FFF0
7FF0
7FC0
7F80
0600
ENDCHAR
STARTCHAR 0422
ENCODING 1058
SWIDTH 576 0
DWIDTH 16 0
BBX 16 19 3 0
BITMAP
1FFE
7FFF
7FFF
7FFF
7FFF
FFFA
E3E0
03C0
07C0
0780
0780
0780
0F80
0F00
0F00
0F00
0F00
1E00
1E00
ENDCHAR
STARTCHAR 0423
ENCODING 1059
SWIDTH 504 0
DWIDTH 14 0
BBX 16 19 1 0
BITMAP
0F9F
1F9F
1F9E
0FBE
0FBE
0FBC
0FFC
07F8
07F8
07F8
07F0
03F0
03F0
7FE0
7FE0
7FE0
FFC0
FF00
F000
ENDCHAR
STARTCHAR 0424
ENCODING 1060
SWIDTH 648 0
DWIDTH 18 0
BBX 19 22 2 -1
BITMAP
003000
007C00
007C00
07FFC0
1FFFC0
1FFFC0
3FFFE0
3FFFE0
7EF7C0
7DF7C0
79F7C0
F9F7C0
FBE7C0
FBEF80
FFDF80
FFFF00
FFFE00
FFFC00
FFF800
0FF000
0F0000
0F0000
ENDCHAR
STARTCHAR 0425
ENCODING 1061
SWIDTH 576 0
DWIDTH 16 0
BBX 17 19 2 0
BITMAP
000780
1E0F80
3F0F80
3F1F00
3F3E00
3F3E00
1FFC00
1FFC00
0FF800
0FF000
07F000
0FF000
1FF000
3FF000
3EF000
7CF000
FCF800
F86000
800000
ENDCHAR
STARTCHAR 0426
ENCODING 1062
SWIDTH 504 0
DWIDTH 14 0
BBX 17 22 1 -4
BITMAP
0F0780
1F0F80
1F0F00
1F0F00
1E1F00
1E1F00
3E1F00
3E1F00
3C1E00
3C1E00
7C3E00
7C3E00
7C3E00
FFFC00
FFFC00
FFFC00
FFFC00
007800
007800
007800
00F800
001000
ENDCHAR
STARTCHAR 0427
ENCODING 1063
SWIDTH 504 0
DWIDTH 14 0
BBX 13 18 3 0
BITMAP
7C78
7878
7878
7878
F8F8
F8F8
F8F0
F8F0
FFF0
FFF0
7FF0
3FF0
09F0
01E0
01E0
01E0
03E0
0180
ENDCHAR
STARTCHAR 0428
ENCODING 1064
SWIDTH 720 0
DWIDTH 20 0
BBX 21 19 2 0
BITMAP
1C0038
3E3C78
3E3C78
3C3C78
3C7CF8
7C7CF8
7C78F0
7C78F0
7C79F0
78F9F0
78F9E0
78F1E0
78F1E0
7FFFE0
FFFFE0
FFFFC0
FFFFC0
FFFFC0
FFFF80
ENDCHAR
STARTCHAR 0429
ENCODING 1065
SWIDTH 720 0
DWIDTH 20 0
BBX 21 23 2 -4
BITMAP
1C0068
3E1C78
3E1C78
3E3CF8
3E38F0
7E38F0
7E38F0
7E79F0
7C79F0
7C79E0
7C73E0
7CF3E0
7CF3E0
FFFFE0
FFFFC0
FFFFC0
FFFFC0
FFFFC0
FFFF80
000780
000F80
000F00
000F00
ENDCHAR
STARTCHAR 042A
ENCODING 1066
SWIDTH 612 0
DWIDTH 17 0
BBX 14 19 4 0
BITMAP
7F00
FF00
FF00
FF00
FF00
0F00
1FF0
1FFC
1FFC
1FFC
1E3C
1E3C
3E1C
3E3C
3E3C
3FFC
3FF8
7FE0
3E00
ENDCHAR
STARTCHAR 042B
ENCODING 1067
SWIDTH 648 0
DWIDTH 18 0
BBX 20 18 2 0
BITMAP
3E0070
3E00F0
3E01F0
3E01F0
3E01E0
7C01E0
7F81E0
7FE1E0
7FF3C0
7FF3C0
7873C0
787BC0
7873C0
F8F780
F9F780
FFE780
FFE780
FF8780
ENDCHAR
STARTCHAR 042C
ENCODING 1068
SWIDTH 468 0
DWIDTH 13 0
BBX 13 19 2 0
BITMAP
3E00
3E00
3E00
3E00
3E00
7C00
7F80
7FE0
7FF0
7FF0
78F0
7878
7878
F8F0
F8F0
FBF0
FFE0
FFC0
FF80
ENDCHAR
STARTCHAR 042D
ENCODING 1069
SWIDTH 468 0
DWIDTH 13 0
BBX 15 19 1 0
BITMAP
01F0
0FF8
1FFC
1FFC
1FFE
1FFE
1F7E
003E
0FFE
0FFE
0FFC
1FFC
007C
7FF8
7FF8
FFF0
FFE0
7F80
1C00
ENDCHAR
STARTCHAR 042E
ENCODING 1070
SWIDTH 648 0
DWIDTH 18 0
BBX 20 20 1 0
BITMAP
000100
0307C0
078FE0
078FE0
0F9FE0
0F9FE0
0FBFF0
1F3FF0
1FFDF0
1FF8F0
3FF9E0
3FF9E0
3FF9E0
7FFBC0
7E7FC0
7E7FC0
FE7F80
FE3F80
FE1F00
000C00
ENDCHAR
STARTCHAR 042F
ENCODING 1071
SWIDTH 504 0
DWIDTH 14 0
BBX 16 20 1 -1
BITMAP
00FF
03FF
0FFF
1E7F
1C7F
1C7E
3C7E
3EFE
1FFE
1FFE
07FE
0FFE
0FFE
1EFE
3CFC
3DFC
79FC
F9F8
F1F0
7000
ENDCHAR
STARTCHAR 0430
ENCODING 1072
SWIDTH 612 0
DWIDTH 17 0
BBX 17 20 0 -1
BITMAP
000600
001E00
001E00
003E00
003E00
007E00
007E00
00FE00
01FE00
01FE00
03BE00
073F00
061F00
0FFF00
1FFF00
1F3F00
3E3F00
7C3F80
7C3F80
C00000
ENDCHAR
STARTCHAR 0431
ENCODING 1073
SWIDTH 468 0
DWIDTH 13 0
BBX 15 19 2 0
BITMAP
1FF8
1FFE
1FFC
1FFC
3FFC
3E00
3E00
3FE0
3FF0
7FF8
7FF8
7C78
7C78
7CF0
FCF0
FFE0
FFC0
FF80
3C00
ENDCHAR
STARTCHAR 0432
ENCODING 1074
SWIDTH 504 0
DWIDTH 14 0
BBX 12 19 3 0
BITMAP
1FC0
7FE0
7FE0
7FF0
7DF0
78F0
78E0
7DE0
7F80
7FE0
FFF0
FDF0
F8F0
F9F0
FBF0
FFE0
FFC0
FF80
F000
ENDCHAR
STARTCHAR 0433
ENCODING 1075
SWIDTH 504 0
DWIDTH 14 0
BBX 16 20 1 0
BITMAP
000C
07FF
1FFF
1FFF
1FFF
1F00
3F00
3E00
3E00
3E00
3C00
7C00
7C00
7C00
7C00
F800
F800
F800
F800
F000
ENDCHAR
STARTCHAR 0434
ENCODING 1076
SWIDTH 576 0
DWIDTH 16 0
BBX 16 22 1 -3
BITMAP
003C
007C
007C
00FC
01FC
01FC
03FC
07FC
07BC
0FBC
0F3C
1F3C
1E3C
3E3E
FFFE
FFFF
FFFE
FFFE
F01E
F03C
F03C
F070
ENDCHAR
STARTCHAR 0435
ENCODING 1077
SWIDTH 468 0
DWIDTH 13 0
BBX 11 19 4 0
BITMAP
7FE0
FFC0
FFC0
FF80
FF80
FE00
F800
F900
FF00
FF00
FC00
F800
FFC0
FFC0
FFC0
FFC0
FFC0
FF00
E000
ENDCHAR
STARTCHAR 0436
ENCODING 1078
SWIDTH 684 0
DWIDTH 19 0
BBX 21 19 1 0
BITMAP
000818
1F3C78
1FBCF8
1FFDF0
1FFDF0
0FFFE0
0FFFE0
0FFFC0
0FFF80
07FF80
0FFF80
1FFFC0
1FFFE0
3EFFE0
7EF7E0
7EF7E0
FCF3C0
F8F300
304000
ENDCHAR
STARTCHAR 0437
ENCODING 1079
SWIDTH 468 0
DWIDTH 13 0
BBX 13 19 2 0
BITMAP
1FF0
3FF8
3FF8
3FF8
30F8
00F8
00F8
01F0
1FE0
1FE0
1FF0
01F0
00F0
01F0
7FF0
FFF0
FFE0
7FC0
7F00
ENDCHAR
STARTCHAR 0438
ENCODING 1080
SWIDTH 540 0
DWIDTH 15 0
BBX 15 19 2 0
BITMAP
040C
3E3E
3E3E
3E7E
3E7E
3E7E
3EFE
3CFE
7DFE
7FFC
7FFC
7FFC
7F7C
7E7C
7E7C
FC7C
FCF8
FCF8
2038
ENDCHAR
STARTCHAR 0439
ENCODING 1081
SWIDTH 540 0
DWIDTH 15 0
BBX 15 24 2 0
BITMAP
031C
03BC
03F8
01E0
0000
040C
3E3E
3E3E
3E7E
3E7E
3E7E
3EFE
3CFE
7DFE
7FFC
7FFC
7FFC
7F7C
7E7C
7E7C
FC7C
FCF8
FCF8
2038
ENDCHAR
STARTCHAR 043A
ENCODING 1082
SWIDTH 540 0
DWIDTH 15 0
BBX 17 19 1 0
BITMAP
0FE300
0FE780
1FCF80
1FDF00
1FFE00
1FFC00
3FF800
3FF800
3FF000
3FE000
7FE000
7FF000
7FF000
7FF800
FF7800
FE7C00
FE7C00
FE3C00
FC2000
ENDCHAR
STARTCHAR 043B
ENCODING 1083
SWIDTH 576 0
DWIDTH 16 0
BBX 15 19 1 0
BITMAP
00C0
03C0
03E0
03E0
07F0
07F0
0FF0
0FF8
0FF8
1FFC
1FFC
3EFC
3EFE
7EFE
7CFE
FCFE
FCFE
F81E
6000
ENDCHAR
STARTCHAR 043C
ENCODING 1084
SWIDTH 648 0
DWIDTH 18 0
BBX 18 19 1 0
BITMAP
020040
0301C0
0701C0
0783C0
0787C0
0FC7C0
0FCFC0
1FDFC0
1FFFC0
1FFFC0
3FFF80
3F6F80
3E1F80
7E1F80
7C1F80
7C3F80
F83F80
F83F80
F00400
ENDCHAR
STARTCHAR 043D
ENCODING 1085
SWIDTH 540 0
DWIDTH 15 0
BBX 18 19 1 0
BITMAP
01E000
07E7C0
07E7C0
07C780
0FCF80
0FCF80
0F8F80
1FFF00
1FFF00
1FFF00
3FFF00
3FFF00
3FFE00
3E7E00
7E7E00
7E7C00
7E7C00
FC7C00
088000
ENDCHAR
STARTCHAR 043E
ENCODING 1086
SWIDTH 504 0
DWIDTH 14 0
BBX 14 19 2 0
BITMAP
03C0
07E0
0FF8
0FF8
1FFC
3FFC
3FFC
7E7C
7C7C
FC7C
FC7C
FCFC
FFFC
FFF8
FFF8
7FF0
7FF0
3FE0
1F80
ENDCHAR
STARTCHAR 043F
ENCODING 1087
SWIDTH 540 0
DWIDTH 15 0
BBX 16 19 2 0
BITMAP
1FFF
3FFF
3FFF
3FFF
3FFF
7C1F
7C3E
7C3E
7C3E
7C3E
7C3C
FC7C
F87C
F87C
F87C
F878
F8F8
F0F8
F078
ENDCHAR
STARTCHAR 0440
ENCODING 1088
SWIDTH 468 0
DWIDTH 13 0
BBX 15 19 1 0
BITMAP
03F0
0FFC
0FFC
0FFE
1F3E
1F1E
1F1E
1F3E
3FFE
3FFC
3FF8
7FE0
7F00
7E00
FE00
FE00
FE00
FE00
FE00
ENDCHAR
STARTCHAR 0441
ENCODING 1089
SWIDTH 468 0
DWIDTH 13 0
BBX 15 19 2 0
BITMAP
00F0
07FC
0FFE
1FFC
3FFC
3FC0
7F00
7E00
7C00
7C00
FE10
FFF8
FFF0
FFF0
FFF0
7FF0
7FC0
7F80
0600
ENDCHAR
STARTCHAR 0442
ENCODING 1090
SWIDTH 576 0
DWIDTH 16 0
BBX 16 19 3 0
BITMAP
1FFE
7FFF
7FFF
7FFF
7FFF
FFFA
E3E0
03C0
07C0
0780
0780
0780
0F80
0F00
0F00
0F00
0F00
1E00
1E00
ENDCHAR
STARTCHAR 0443
ENCODING 1091
SWIDTH 504 0
DWIDTH 14 0
BBX 16 19 1 0
BITMAP
0F9F
1F9F
1F9E
0FBE
0FBE
0FBC
0FFC
07F8
07F8
07F8
07F0
03F0
03F0
7FE0
7FE0
7FE0
FFC0
FF00
F000
ENDCHAR
STARTCHAR 0444
ENCODING 1092
SWIDTH 648 0
DWIDTH 18 0
BBX 19 22 2 -1
BITMAP
003000
007C00
007C00
07FFC0
1FFFC0
1FFFC0
3FFFE0
3FFFE0
7EF7C0
7DF7C0
79F7C0
F9F7C0
FBE7C0
FBEF80
FFDF80
FFFF00
FFFE00
FFFC00
FFF800
0FF000
0F0000
0F0000
ENDCHAR
STARTCHAR 0445
ENCODING 1093
SWIDTH 576 0
DWIDTH 16 0
BBX 17 19 2 0
BITMAP
000780
1E0F80
3F0F80
3F1F00
3F3E00
3F3E00
1FFC00
1FFC00
0FF800
0FF000
07F000
0FF000
1FF000
3FF000
3EF000
7CF000
FCF800
F86000
800000
ENDCHAR
STARTCHAR 0446
ENCODING 1094
SWIDTH 504 0
DWIDTH 14 0
BBX 17 22 1 -4
BITMAP
0F0780
1F0F80
1F0F00
1F0F00
1E1F00
1E1F00
3E1F00
3E1F00
3C1E00
3C1E00
7C3E00
7C3E00
7C3E00
FFFC00
FFFC00
FFFC00
FFFC00
007800
007800
007800
00F800
001000
ENDCHAR
STARTCHAR 0447
ENCODING 1095
SWIDTH 504 0
DWIDTH 14 0
BBX 13 18 3 0
BITMAP
7C78
7878
7878
7878
F8F8
F8F8
F8F0
F8F0
FFF0
FFF0
7FF0
3FF0
09F0
01E0
01E0
01E0
03E0
0180
ENDCHAR
STARTCHAR 0448
ENCODING 1096
SWIDTH 720 0
DWIDTH 20 0
BBX 21 19 2 0
BITMAP
1C0038
3E3C78
3E3C78
3C3C78
3C7CF8
7C7CF8
7C78F0
7C78F0
7C79F0
78F9F0
78F9E0
78F1E0
78F1E0
7FFFE0
FFFFE0
FFFFC0
FFFFC0
FFFFC0
FFFF80
ENDCHAR
STARTCHAR 0449
ENCODING 1097
SWIDTH 720 0
DWIDTH 20 0
BBX 21 23 2 -4
BITMAP
1C0068
3E1C78
3E1C78
3E3CF8
3E38F0
7E38F0
7E38F0
7E79F0
7C79F0
7C79E0
7C73E0
7CF3E0
7CF3E0
FFFFE0
FFFFC0
FFFFC0
FFFFC0
FFFFC0
FFFF80
000780
000F80
000F00
000F00
ENDCHAR
STARTCHAR 044A
ENCODING 1098
SWIDTH 612 0
DWIDTH 17 0
BBX 14 19 4 0
BITMAP
7F00
FF00
FF00
FF00
FF00
0F00
1FF0
1FFC
1FFC
1FFC
1E3C
1E3C
3E1C
3E3C
3E3C
3FFC
3FF8
7FE0
3E00
ENDCHAR
STARTCHAR 044B
ENCODING 1099
SWIDTH 648 0
DWIDTH 18 0
BBX 20 18 2 0
BITMAP
3E0070
3E00F0
3E01F0
3E01F0
3E01E0
7C01E0
7F81E0
7FE1E0
7FF3C0
7FF3C0
7873C0
787BC0
7873C0
F8F780
F9F780
FFE780
FFE780
FF8780
ENDCHAR
STARTCHAR 044C
ENCODING 1100
SWIDTH 468 0
DWIDTH 13 0
BBX 13 19 2 0
BITMAP
3E00
3E00
3E00
3E00
3E00
7C00
7F80
7FE0
7FF0
7FF0
78F0
7878
7878
F8F0
F8F0
FBF0
FFE0
FFC0
FF80
ENDCHAR
STARTCHAR 044D
ENCODING 1101
SWIDTH 468 0
DWIDTH 13 0
BBX 15 19 1 0
BITMAP
01F0
0FF8
1FFC
1FFC
1FFE
1FFE
1F7E
003E
0FFE
0FFE
0FFC
1FFC
007C
7FF8
7FF8
FFF0
FFE0
7F80
1C00
ENDCHAR
STARTCHAR 044E
ENCODING 1102
SWIDTH 648 0
DWIDTH 18 0
BBX 20 20 1 0
BITMAP
000100
0307C0
078FE0
078FE0
0F9FE0
0F9FE0
0FBFF0
1F3FF0
1FFDF0
1FF8F0
3FF9E0
3FF9E0
3FF9E0
7FFBC0
7E7FC0
7E7FC0
FE7F80
FE3F80
FE1F00
000C00
ENDCHAR
STARTCHAR 044F
ENCODING 1103
SWIDTH 504 0
DWIDTH 14 0
BBX 16 20 1 -1
BITMAP
00FF
03FF
0FFF
1E7F
1C7F
1C7E
3C7E
3EFE
1FFE
1FFE
07FE
0FFE
0FFE
1EFE
3CFC
3DFC
79FC
F9F8
F1F0
7000
ENDCHAR
STARTCHAR 0450
ENCODING 1104
SWIDTH 468 0
DWIDTH 13 0
BBX 11 24 4 0
BITMAP
7800
3C00
1C00
0E00
0000
7FE0
FFC0
FFC0
FF80
FF80
FE00
F800
F900
FF00
FF00
FC00
F800
FFC0
FFC0
FFC0
FFC0
FFC0
FF00
E000
ENDCHAR
STARTCHAR 0451
ENCODING 1105
SWIDTH 468 0
DWIDTH 13 0
BBX 11 23 4 0
BITMAP
0380
7380
7300
2000
7FE0
FFC0
FFC0
FF80
FF80
FE00
F800
F900
FF00
FF00
FC00
F800
FFC0
FFC0
FFC0
FFC0
FFC0
FF00
E000
ENDCHAR
STARTCHAR 0452
ENCODING 1106
SWIDTH 648 0
DWIDTH 18 0
BBX 16 22 4 -3
BITMAP
7FFE
FFFE
FFFE
FFFE
07C0
0780
0FBC
0FFE
0FFF
0FFF
0F9F
0F1F
1F1F
1F1F
1E1E
1E1E
1E1E
3E1E
3C3C
00FC
00FC
00F8
ENDCHAR
STARTCHAR 0453
ENCODING 1107
SWIDTH 504 0
DWIDTH 14 0
BBX 16 24 1 0
BITMAP
001E
003C
0078
0070
000C
07FF
1FFF
1FFF
1FFF
1F00
3F00
3E00
3E00
3E00
3C00
7C00
7C00
7C00
7C00
F800
F800
F800
F800
F000
ENDCHAR
STARTCHAR 0454
ENCODING 1108
SWIDTH 468 0
DWIDTH 13 0
BBX 15 19 2 0
BITMAP
01F0
07FC
0FFE
1FFE
1FFC
3FFC
7E7C
7C00
7FE0
FFE0
FFE0
FFE0
F800
FFF0
FFF0
FFF0
7FF0
3FE0
0700
ENDCHAR
STARTCHAR 0455
ENCODING 1109
SWIDTH 504 0
DWIDTH 14 0
BBX 16 19 1 0
BITMAP
01FF
03FF
07FE
0FFE
0FFC
1FF8
1FF8
1F10
1F80
1FE0
0FF8
01F8
0078
20F8
FFF8
FFF8
FFF0
7FC0
3F80
ENDCHAR
STARTCHAR 0456
ENCODING 1110
SWIDTH 324 0
DWIDTH 9 0
BBX 11 19 1 0
BITMAP
03C0
07E0
07E0
07E0
0FC0
0FC0
0FC0
1F80
1F80
1F80
1F80
3F00
3F00
3F00
3F00
7F00
7E00
FE00
F000
ENDCHAR
STARTCHAR 0457
ENCODING 1111
SWIDTH 324 0
DWIDTH 9 0
BBX 13 23 1 0
BITMAP
0010
03B8
0738
0000
03C0
07E0
07E0
07E0
0FC0
0FC0
0FC0
1F80
1F80
1F80
1F80
3F00
3F00
3F00
3F00
7F00
7E00
FE00
F000
ENDCHAR
STARTCHAR 0458
ENCODING 1112
SWIDTH 432 0
DWIDTH 12 0
BBX 15 19 1 0
BITMAP
007E
00FE
00FE
00FC
01FC
01FC
01FC
01FC
03FC
03F8
03F8
01F8
01F8
79F0
7BF0
FFE0
7FC0
7F80
1F00
ENDCHAR
STARTCHAR 0459
ENCODING 1113
SWIDTH 720 0
DWIDTH 20 0
BBX 20 19 1 0
BITMAP
003E00
00FF00
01FF00
01FF00
03FF00
03FE00
07FF00
07FFE0
0FBFE0
0FBFF0
1F3CF0
1F3C70
3E7870
3E78F0
7C78F0
FCFBE0
FCFFE0
F8FFC0
60FF80
ENDCHAR
STARTCHAR 045A
ENCODING 1114
SWIDTH 720 0
DWIDTH 20 0
BBX 20 19 1 0
BITMAP
01CE00
07CF00
07CF00
0F8F00
0F9F00
0F9E00
1F9F00
1FFFE0
1FFFE0
1FFFF0
3FFCF0
3FFC70
3FF870
7E78F0
7E78F0
7CFBE0
7CFFE0
FCFFC0
18FF80
ENDCHAR
STARTCHAR 045B
ENCODING 1115
SWIDTH 648 0
DWIDTH 18 0
BBX 16 19 4 0
BITMAP
7FFE
FFFE
FFFE
FFFE
07C0
0780
0FBC
0FFE
0FFF
0FFF
0F9F
0F1F
1F1F
1F1F
1E1E
1E1E
1E3E
3E3E
3C3C
ENDCHAR
STARTCHAR 045C
ENCODING 1116
SWIDTH 540 0
DWIDTH 15 0
BBX 18 24 1 0
BITMAP
0003C0
000780
000F00
001C00
000000
0FE300
0FE780
1FCF80
1FDF00
1FFE00
1FFC00
3FF800
3FF800
3FF000
3FE000
7FE000
7FF000
7FF000
7FF800
FF7800
FE7C00
FE7C00
FE3C00
FC2000
ENDCHAR
STARTCHAR 045D
ENCODING 1117
SWIDTH 540 0
DWIDTH 15 0
BBX 15 24 2 0
BITMAP
0780
03C0
03C0
01C0
0000
040C
3E3E
3E3E
3E7E
3E7E
3E7E
3EFE
3CFE
7DFE
7FFC
7FFC
7FFC
7F7C
7E7C
7E7C
FC7C
FCF8
FCF8
2038
ENDCHAR
STARTCHAR 045E
ENCODING 1118
SWIDTH 504 0
DWIDTH 14 0
BBX 16 24 1 0
BITMAP
018E
01DE
01FC
00F0
0000
0F9F
1F9F
1F9E
0FBE
0FBE
0FBC
0FFC
07F8
07F8
07F8
07F0
03F0
03F0
7FE0
7FE0
7FE0
FFC0
FF00
F000
ENDCHAR
STARTCHAR 045F
ENCODING 1119
SWIDTH 504 0
DWIDTH 14 0
BBX 17 21 1 -4
BITMAP
1F0F80
1F0F00
1F0F00
1E1F00
3E1F00
3E1F00
3E1E00
3C1E00
3C3E00
7C3E00
7C3E00
783E00
783C00
FFFC00
FFFC00
FFFC00
FFFC00
1F8000
0F0000
0F0000
0F0000
ENDCHAR
STARTCHAR 0462
ENCODING 1122
SWIDTH 612 0
DWIDTH 17 0
BBX 14 19 4 0
BITMAP
0F80
0F80
FFF8
FFF8
FFF8
1F00
1FE0
1FF8
1FFC
1FFC
1E3C
1E1C
3E3C
3E3C
3E7C
3EFC
3FF8
7FF0
7FE0
ENDCHAR
STARTCHAR 0463
ENCODING 1123
SWIDTH 612 0
DWIDTH 17 0
BBX 14 19 4 0
BITMAP
0F80
0F80
FFF8
FFF8
FFF8
1F00
1FE0
1FF8
1FFC
1FFC
1E3C
1E1C
3E3C
3E3C
3E7C
3EFC
3FF8
7FF0
7FE0
ENDCHAR
STARTCHAR 0474
ENCODING 1140
SWIDTH 576 0
DWIDTH 16 0
BBX 15 19 4 0
BITMAP
0006
F83E
F87E
F8FE
F8FE
F9FC
F9E0
FBE0
7BC0
7FC0
7F80
7F80
7F00
7F00
7E00
7C00
7C00
7800
3000
ENDCHAR
STARTCHAR 0475
ENCODING 1141
SWIDTH 576 0
DWIDTH 16 0
BBX 15 19 4 0
BITMAP
0006
F83E
F87E
F8FE
F8FE
F9FC
F9E0
FBE0
7BC0
7FC0
7F80
7F80
7F00
7F00
7E00
7C00
7C00
7800
3000
ENDCHAR
STARTCHAR 0476
ENCODING 1142
SWIDTH 576 0
DWIDTH 16 0
BBX 15 24 4 0
BITMAP
3BC0
3DE0
1CE0
1CE0
0000
0006
F83E
F87E
F8FE
F8FE
F9FC
F9E0
FBE0
7BC0
7FC0
7F80
7F80
7F00
7F00
7E00
7C00
7C00
7800
3000
ENDCHAR
STARTCHAR 0477
ENCODING 1143
SWIDTH 576 0
DWIDTH 16 0
BBX 15 24 4 0
BITMAP
3BC0
3DE0
1CE0
1CE0
0000
0006
F83E
F87E
F8FE
F8FE
F9FC
F9E0
FBE0
7BC0
7FC0
7F80
7F80
7F00
7F00
7E00
7C00
7C00
7800
3000
ENDCHAR
STARTCHAR 0480
ENCODING 1152
SWIDTH 504 0
DWIDTH 14 0
BBX 15 23 2 -4
BITMAP
01FE
07FE
0FFE
1FFE
3FFC
3F00
7C00
7C00
7800
F800
F000
F000
F000
F800
FFF0
FFF0
7FF0
7FF0
1FF0
03F0
01E0
03E0
03E0
ENDCHAR
STARTCHAR 0481
ENCODING 1153
SWIDTH 504 0
DWIDTH 14 0
BBX 15 23 2 -4
BITMAP
01FE
07FE
0FFE
1FFE
3FFC
3F00
7C00
7C00
7800
F800
F000
F000
F000
F800
FFF0
FFF0
7FF0
7FF0
1FF0
03F0
01E0
03E0
03E0
ENDCHAR
STARTCHAR 048C
ENCODING 1164
SWIDTH 540 0
DWIDTH 15 0
BBX 13 19 3 0
BITMAP
1F00
1F00
7FC0
7FC0
7F80
3E00
3FC0
3FF0
3FF0
7FF8
7C78
7C78
7C78
7C78
78F8
FDF0
FFF0
FFE0
FFC0
ENDCHAR
STARTCHAR 048D
ENCODING 1165
SWIDTH 540 0
DWIDTH 15 0
BBX 13 19 3 0
BITMAP
1F00
1F00
7FC0
7FC0
7F80
3E00
3FC0
3FF0
3FF0
7FF8
7C78
7C78
7C78
7C78
78F8
FDF0
FFF0
FFE0
FFC0
ENDCHAR
STARTCHAR 0490
ENCODING 1168
SWIDTH 504 0
DWIDTH 14 0
BBX 17 24 1 0
BITMAP
000780
000F80
000F80
000F80
000F80
07FF80
1FFF00
1FFF00
1FFF00
1F0000
3F0000
3E0000
3E0000
3E0000
3C0000
7C0000
7C0000
7C0000
7C0000
F80000
F80000
F80000
F80000
F00000
ENDCHAR
STARTCHAR 0491
ENCODING 1169
SWIDTH 504 0
DWIDTH 14 0
BBX 17 24 1 0
BITMAP
000780
000F80
000F80
000F80
000F80
07FF80
1FFF00
1FFF00
1FFF00
1F0000
3F0000
3E0000
3E0000
3E0000
3C0000
7C0000
7C0000
7C0000
7C0000
F80000
F80000
F80000
F80000
F00000
ENDCHAR
STARTCHAR 0492
ENCODING 1170
SWIDTH 540 0
DWIDTH 15 0
BBX 16 20 2 0
BITMAP
0008
07FF
1FFF
1FFF
1FFF
1F00
1F00
3E00
3E00
3E00
FFE0
FFE0
FFE0
7C00
7C00
7C00
7C00
7C00
7C00
7000
ENDCHAR
STARTCHAR 0493
ENCODING 1171
SWIDTH 540 0
DWIDTH 15 0
BBX 16 20 2 0
BITMAP
0008
07FF
1FFF
1FFF
1FFF
1F00
1F00
3E00
3E00
3E00
FFE0
FFE0
FFE0
7C00
7C00
7C00
7C00
7C00
7C00
7000
ENDCHAR
STARTCHAR 0496
ENCODING 1174
SWIDTH 684 0
DWIDTH 19 0
BBX 20 22 1 -4
BITMAP
001830
1F3CF0
1F79F0
1F79F0
1F7BE0
1F7BE0
0FFFC0
0FFF80
0FFF00
0FFF00
0FFF80
1FFF80
1FFFC0
3EF7C0
7EF7C0
7CF7E0
FCF7E0
F9F3E0
3041C0
0003C0
0003C0
000380
ENDCHAR
STARTCHAR 0497
ENCODING 1175
SWIDTH 684 0
DWIDTH 19 0
BBX 20 22 1 -4
BITMAP
001830
1F3CF0
1F79F0
1F79F0
1F7BE0
1F7BE0
0FFFC0
0FFF80
0FFF00
0FFF00
0FFF80
1FFF80
1FFFC0
3EF7C0
7EF7C0
7CF7E0
FCF7E0
F9F3E0
3041C0
0003C0
0003C0
000380
ENDCHAR
STARTCHAR 0498
ENCODING 1176
SWIDTH 468 0
DWIDTH 13 0
BBX 13 24 2 -5
BITMAP
1FF0
3FF8
3FF8
3FF8
30F8
00F8
00F8
01F0
1FE0
1FE0
1FF0
01F0
00F0
01F0
7FF0
FFF0
FFE0
7FC0
7F00
0F00
0780
3380
7F80
1C00
ENDCHAR
STARTCHAR 0499
ENCODING 1177
SWIDTH 468 0
DWIDTH 13 0
BBX 13 24 2 -5
BITMAP
1FF0
3FF8
3FF8
3FF8
30F8
00F8
00F8
01F0
1FE0
1FE0
1FF0
01F0
00F0
01F0
7FF0
FFF0
FFE0
7FC0
7F00
0F00
0780
3380
7F80
1C00
ENDCHAR
STARTCHAR 049A
ENCODING 1178
SWIDTH 540 0
DWIDTH 15 0
BBX 17 22 1 -4
BITMAP
0FE600
0FCF00
1FCF80
1FDF00
1FFE00
1FFC00
3FF800
3FF000
3FF000
3FE000
7FC000
7FE000
7FF000
7FF000
FEF800
FE7E00
FE7E00
FE7C00
FC7C00
003C00
003800
007800
ENDCHAR
STARTCHAR 049B
ENCODING 1179
SWIDTH 540 0
DWIDTH 15 0
BBX 17 22 1 -4
BITMAP
0FE600
0FCF00
1FCF80
1FDF00
1FFE00
1FFC00
3FF800
3FF000
3FF000
3FE000
7FC000
7FE000
7FF000
7FF000
FEF800
FE7E00
FE7E00
FE7C00
FC7C00
003C00
003800
007800
ENDCHAR
STARTCHAR 04A0
ENCODING 1184
SWIDTH 612 0
DWIDTH 17 0
BBX 17 19 3 0
BITMAP
7FE300
7FE780
7FEF80
7FDF00
FFDE00
1FFC00
1FF800
3FF800
3FF000
3FE000
7FE000
7FF000
7FF000
7FF800
7F7C00
FE7C00
FE3C00
FE3C00
FE3000
ENDCHAR
STARTCHAR 04A1
ENCODING 1185
SWIDTH 612 0
DWIDTH 17 0
BBX 17 19 3 0
BITMAP
7FE300
7FE780
7FEF80
7FDF00
FFDE00
1FFC00
1FF800
3FF800
3FF000
3FE000
7FE000
7FF000
7FF000
7FF800
7F7C00
FE7C00
FE3C00
FE3C00
FE3000
ENDCHAR
STARTCHAR 04A2
ENCODING 1186
SWIDTH 540 0
DWIDTH 15 0
BBX 17 22 1 -4
BITMAP
01E000
07C780
07CF80
07CF80
0FCF80
0F9F00
0F9F00
1FFF00
1FFE00
1FFE00
3FFE00
3FFE00
3FFE00
7E7C00
7E7C00
7E7E00
7EFE00
FCFC00
1C3C00
003C00
003800
007800
ENDCHAR
STARTCHAR 04A3
ENCODING 1187
SWIDTH 540 0
DWIDTH 15 0
BBX 17 22 1 -4
BITMAP
01E000
07C780
07CF80
07CF80
0FCF80
0F9F00
0F9F00
1FFF00
1FFE00
1FFE00
3FFE00
3FFE00
3FFE00
7E7C00
7E7C00
7E7E00
7EFE00
FCFC00
1C3C00
003C00
003800
007800
ENDCHAR
STARTCHAR 04A4
ENCODING 1188
SWIDTH 648 0
DWIDTH 18 0
BBX 20 19 1 0
BITMAP
01E000
07E7F0
07E7F0
07CFF0
0FCFF0
0FCFE0
0F8F80
1FFF00
1FFF00
1FFF00
3FFF00
3FFF00
3FFE00
3E7E00
7E7E00
7E7C00
7E7C00
FC7C00
088000
ENDCHAR
STARTCHAR 04A5
ENCODING 1189
SWIDTH 648 0
DWIDTH 18 0
BBX 20 19 1 0
BITMAP
01E000
07E7F0
07E7F0
07CFF0
0FCFF0
0FCFE0
0F8F80
1FFF00
1FFF00
1FFF00
3FFF00
3FFF00
3FFE00
3E7E00
7E7E00
7E7C00
7E7C00
FC7C00
088000
ENDCHAR
STARTCHAR 04AA
ENCODING 1194
SWIDTH 468 0
DWIDTH 13 0
BBX 15 24 2 -5
BITMAP
00F0
07FC
0FFE
1FFC
3FFC
3FC0
7F00
7E00
7C00
7C00
FE10
FFF8
FFF0
FFF0
FFF0
7FF0
7FC0
7FC0
1E00
1C00
0E00
CF00
FE00
3800
ENDCHAR
STARTCHAR 04AB
ENCODING 1195
SWIDTH 468 0
DWIDTH 13 0
BBX 15 24 2 -5
BITMAP
00F0
07FC
0FFE
1FFC
3FFC
3FC0
7F00
7E00
7C00
7C00
FE10
FFF8
FFF0
FFF0
FFF0
7FF0
7FC0
7FC0
1E00
1C00
0E00
CF00
FE00
3800
ENDCHAR
STARTCHAR 04AC
ENCODING 1196
SWIDTH 576 0
DWIDTH 16 0
BBX 16 22 3 -4
BITMAP
1FFE
7FFF
7FFF
7FFF
7FFF
FFFA
E3E0
03C0
07C0
0780
0780
0780
0F80
0F00
0F00
0FC0
0FC0
1FC0
1F80
0780
0780
0700
ENDCHAR
STARTCHAR 04AD
ENCODING 1197
SWIDTH 576 0
DWIDTH 16 0
BBX 16 22 3 -4
BITMAP
1FFE
7FFF
7FFF
7FFF
7FFF
FFFA
E3E0
03C0
07C0
0780
0780
0780
0F80
0F00
0F00
0FC0
0FC0
1FC0
1F80
0780
0780
0700
ENDCHAR
STARTCHAR 04AE
ENCODING 1198
SWIDTH 612 0
DWIDTH 17 0
BBX 17 19 4 0
BITMAP
000F80
781F00
F81E00
FC3C00
FC7C00
7C7800
7CF000
7FF000
3FE000
3FC000
3FC000
1F8000
1F0000
1F0000
1F0000
1F0000
1E0000
1E0000
1E0000
ENDCHAR
STARTCHAR 04AF
ENCODING 1199
SWIDTH 612 0
DWIDTH 17 0
BBX 17 19 4 0
BITMAP
000F80
781F00
F81E00
FC3C00
FC7C00
7C7800
7CF000
7FF000
3FE000
3FC000
3FC000
1F8000
1F0000
1F0000
1F0000
1F0000
1E0000
1E0000
1E0000
ENDCHAR
STARTCHAR 04B0
ENCODING 1200
SWIDTH 612 0
DWIDTH 17 0
BBX 18 19 3 0
BITMAP
0007C0
3C0F80
7C0F00
7E1E00
7E3E00
3E3C00
3E7800
3FF800
1FF000
1FE000
1FE000
0FC000
0F8000
FFF800
FFF000
FFF000
FF0000
0F0000
0F0000
ENDCHAR
STARTCHAR 04B1
ENCODING 1201
SWIDTH 612 0
DWIDTH 17 0
BBX 18 19 3 0
BITMAP
0007C0
3C0F80
7C0F00
7E1E00
7E3E00
3E3C00
3E7800
3FF800
1FF000
1FE000
1FE000
0FC000
0F8000
FFF800
FFF000
FFF000
FF0000
0F0000
0F0000
ENDCHAR
STARTCHAR 04B2
ENCODING 1202
SWIDTH 576 0
DWIDTH 16 0
BBX 17 22 2 -4
BITMAP
000780
1E0F80
3E1F00
3F3E00
3F3E00
3F7C00
1F7C00
1FF800
0FF000
0FF000
0FE000
0FE000
1FE000
3FE000
3DF000
7CFC00
FCFC00
F87C00
803C00
003800
007800
007000
ENDCHAR
STARTCHAR 04B3
ENCODING 1203
SWIDTH 576 0
DWIDTH 16 0
BBX 17 22 2 -4
BITMAP
000780
1E0F80
3E1F00
3F3E00
3F3E00
3F7C00
1F7C00
1FF800
0FF000
0FF000
0FE000
0FE000
1FE000
3FE000
3DF000
7CFC00
FCFC00
F87C00
803C00
003800
007800
007000
ENDCHAR
STARTCHAR 04B6
ENCODING 1206
SWIDTH 504 0
DWIDTH 14 0
BBX 13 21 3 -4
BITMAP
7CF8
78F8
78F8
78F0
F8F0
F8F0
F8F0
F9F0
FFF0
FFF0
FFE0
7FE0
01E0
03E0
03F0
03F0
03E0
01E0
01E0
01C0
03C0
ENDCHAR
STARTCHAR 04B7
ENCODING 1207
SWIDTH 504 0
DWIDTH 14 0
BBX 13 21 3 -4
BITMAP
7CF8
78F8
78F8
78F0
F8F0
F8F0
F8F0
F9F0
FFF0
FFF0
FFE0
7FE0
01E0
03E0
03F0
03F0
03E0
01E0
01E0
01C0
03C0
ENDCHAR
STARTCHAR 04B8
ENCODING 1208
SWIDTH 504 0
DWIDTH 14 0
BBX 13 18 3 0
BITMAP
7C78
7878
7878
7878
FBF8
FFF8
FFF0
FEF0
FFF0
FFF0
7FF0
3FF0
0DF0
0DE0
01E0
01E0
03E0
0180
ENDCHAR
STARTCHAR 04B9
ENCODING 1209
SWIDTH 504 0
DWIDTH 14 0
BBX 13 18 3 0
BITMAP
7C78
7878
7878
7878
FBF8
FFF8
FFF0
FEF0
FFF0
FFF0
7FF0
3FF0
0DF0
0DE0
01E0
01E0
03E0
0180
ENDCHAR
STARTCHAR 04BA
ENCODING 1210
SWIDTH 504 0
DWIDTH 14 0
BBX 14 18 2 0
BITMAP
3E00
3E00
3E00
3E00
3E00
3FF0
3FF8
3FF8
7FF8
7C7C
7C78
7878
7878
78F8
F8F8
F8F8
F8F0
F800
ENDCHAR
STARTCHAR 04BB
ENCODING 1211
SWIDTH 504 0
DWIDTH 14 0
BBX 14 18 2 0
BITMAP
3E00
3E00
3E00
3E00
3E00
3FF0
3FF8
3FF8
7FF8
7C7C
7C78
7878
7878
78F8
F8F8
F8F8
F8F0
F800
ENDCHAR
STARTCHAR 04BC
ENCODING 1212
SWIDTH 540 0
DWIDTH 15 0
BBX 16 19 2 0
BITMAP
01F8
03FE
07FE
0FFF
0FFF
1FFF
1F1F
1F1E
7FFE
FFFE
FFFE
1E00
1C00
1E00
1FFC
1FFC
0FF8
0FF0
07C0
ENDCHAR
STARTCHAR 04BD
ENCODING 1213
SWIDTH 540 0
DWIDTH 15 0
BBX 16 19 2 0
BITMAP
01F8
03FE
07FE
0FFF
0FFF
1FFF
1F1F
1F1E
7FFE
FFFE
FFFE
1E00
1C00
1E00
1FFC
1FFC
0FF8
0FF0
07C0
ENDCHAR
STARTCHAR 04BE
ENCODING 1214
SWIDTH 540 0
DWIDTH 15 0
BBX 16 22 2 -4
BITMAP
01F8
03FE
07FE
0FFF
0FFF
1FFF
1F1F
1F1E
7FFE
FFFE
FFFE
1E00
1C00
1E00
1FFC
1FFC
0FF8
0FF0
07C0
0780
0F80
0F00
ENDCHAR
STARTCHAR 04BF
ENCODING 1215
SWIDTH 540 0
DWIDTH 15 0
BBX 16 22 2 -4
BITMAP
01F8
03FE
07FE
0FFF
0FFF
1FFF
1F1F
1F1E
7FFE
FFFE
FFFE
1E00
1C00
1E00
1FFC
1FFC
0FF8
0FF0
07C0
0780
0F80
0F00
ENDCHAR
STARTCHAR 04C0
ENCODING 1216
SWIDTH 180 0
DWIDTH 5 0
BBX 8 19 1 0
BITMAP
0F
1E
1E
1E
1E
3E
3C
3C
3C
3C
7C
78
78
78
78
F0
F0
F0
F0
ENDCHAR
STARTCHAR 04C1
ENCODING 1217
SWIDTH 684 0
DWIDTH 19 0
BBX 21 24 1 0
BITMAP
00E380
00E700
007E00
007C00
000000
000818
1F3C78
1FBCF8
1FFDF0
1FFDF0
0FFFE0
0FFFE0
0FFFC0
0FFF80
07FF80
0FFF80
1FFFC0
1FFFE0
3EFFE0
7EF7E0
7EF7E0
FCF3C0
F8F300
304000
ENDCHAR
STARTCHAR 04C2
ENCODING 1218
SWIDTH 684 0
DWIDTH 19 0
BBX 21 24 1 0
BITMAP
00E380
00E700
007E00
007C00
000000
000818
1F3C78
1FBCF8
1FFDF0
1FFDF0
0FFFE0
0FFFE0
0FFFC0
0FFF80
07FF80
0FFF80
1FFFC0
1FFFE0
3EFFE0
7EF7E0
7EF7E0
FCF3C0
F8F300
304000
ENDCHAR
STARTCHAR 04CB
ENCODING 1227
SWIDTH 504 0
DWIDTH 14 0
BBX 13 21 3 -4
BITMAP
7C78
7878
7878
7878
F8F8
F8F8
F8F0
F8F0
FFF0
FFF0
7FF0
3FF0
09F0
01E0
07E0
07E0
07E0
0780
0700
0700
0700
ENDCHAR
STARTCHAR 04CC
ENCODING 1228
SWIDTH 504 0
DWIDTH 14 0
BBX 13 21 3 -4
BITMAP
7C78
7878
7878
7878
F8F8
F8F8
F8F0
F8F0
FFF0
FFF0
7FF0
3FF0
09F0
01E0
07E0
07E0
07E0
0780
0700
0700
0700
ENDCHAR
STARTCHAR 04CF
ENCODING 1231
SWIDTH 180 0
DWIDTH 5 0
BBX 8 19 1 0
BITMAP
0F
1E
1E
1E
1E
3E
3C
3C
3C
3C
7C
78
78
78
78
F0
F0
F0
F0
ENDCHAR
STARTCHAR 04D0
ENCODING 1232
SWIDTH 612 0
DWIDTH 17 0
BBX 18 25 0 -1
BITMAP
0030C0
003BC0
003F80
001F00
000000
000600
001E00
001E00
003E00
003E00
007E00
007E00
00FE00
01FE00
01FE00
03BE00
073F00
063F00
0FFF00
1FFF00
1F3F00
3E3F00
7C3F80
7C3F80
C00000
ENDCHAR
STARTCHAR 04D1
ENCODING 1233
SWIDTH 612 0
DWIDTH 17 0
BBX 18 25 0 -1
BITMAP
0030C0
003BC0
003F80
001F00
000000
000600
001E00
001E00
003E00
003E00
007E00
007E00
00FE00
01FE00
01FE00
03BE00
073F00
063F00
0FFF00
1FFF00
1F3F00
3E3F00
7C3F80
7C3F80
C00000
ENDCHAR
STARTCHAR 04D2
ENCODING 1234
SWIDTH 612 0
DWIDTH 17 0
BBX 18 24 0 -1
BITMAP
000080
0039C0
003980
001000
000600
001E00
001E00
003E00
003E00
007E00
007E00
00FE00
01FE00
01FE00
03BE00
073F00
061F00
0FFF00
1FFF00
1F3F00
3E3F00
7C3F80
7C3F80
C00000
ENDCHAR
STARTCHAR 04D3
ENCODING 1235
SWIDTH 612 0
DWIDTH 17 0
BBX 18 24 0 -1
BITMAP
000080
0039C0
003980
001000
000600
001E00
001E00
003E00
003E00
007E00
007E00
00FE00
01FE00
01FE00
03BE00
073F00
061F00
0FFF00
1FFF00
1F3F00
3E3F00
7C3F80
7C3F80
C00000
ENDCHAR
STARTCHAR 04D4
ENCODING 1236
SWIDTH 720 0
DWIDTH 20 0
BBX 21 20 0 -1
BITMAP
000FF8
001FF8
001FF0
003FF0
003FF0
007FE0
00FF00
00FF20
01FFE0
01FFE0
03BF80
071E00
063FF0
0FFFF8
1FFFF8
1F3FF8
3E3FF8
7C3FE0
7C3C00
800000
ENDCHAR
STARTCHAR 04D5
ENCODING 1237
SWIDTH 720 0
DWIDTH 20 0
BBX 21 20 0 -1
BITMAP
000FF8
001FF8
001FF0
003FF0
003FF0
007FE0
00FF00
00FF20
01FFE0
01FFE0
03BF80
071E00
063FF0
0FFFF8
1FFFF8
1F3FF8
3E3FF8
7C3FE0
7C3C00
800000
ENDCHAR
STARTCHAR 04D6
ENCODING 1238
SWIDTH 468 0
DWIDTH 13 0
BBX 11 25 4 0
BITMAP
0040
71C0
3F80
3F00
1E00
0000
7FE0
FFC0
FFC0
FF80
FF80
FE00
F800
F900
FF00
FF00
FC00
F800
FFC0
FFC0
FFC0
FFC0
FFC0
FF00
E000
ENDCHAR
STARTCHAR 04D7
ENCODING 1239
SWIDTH 468 0
DWIDTH 13 0
BBX 11 25 4 0
BITMAP
0040
71C0
3F80
3F00
1E00
0000
7FE0
FFC0
FFC0
FF80
FF80
FE00
F800
F900
FF00
FF00
FC00
F800
FFC0
FFC0
FFC0
FFC0
FFC0
FF00
E000
ENDCHAR
STARTCHAR 04D8
ENCODING 1240
SWIDTH 468 0
DWIDTH 13 0
BBX 13 19 2 0
BITMAP
07E0
1FF0
3FF0
3FF8
18F8
0078
0038
3FF8
7FF8
7FF8
7FF8
F8F8
F9F0
FFF0
FFF0
FFF0
7FE0
3FC0
0700
ENDCHAR
STARTCHAR 04D9
ENCODING 1241
SWIDTH 468 0
DWIDTH 13 0
BBX 13 19 2 0
BITMAP
07E0
1FF0
3FF0
3FF8
18F8
0078
0038
3FF8
7FF8
7FF8
7FF8
F8F8
F9F0
FFF0
FFF0
FFF0
7FE0
3FC0
0700
ENDCHAR
STARTCHAR 04DA
ENCODING 1242
SWIDTH 468 0
DWIDTH 13 0
BBX 13 23 2 0
BITMAP
0020
0E70
0E70
0400
07E0
1FF0
3FF0
3FF8
18F8
0078
0038
3FF8
7FF8
7FF8
7FF8
F8F8
F9F0
FFF0
FFF0
FFF0
7FE0
3FC0
0700
ENDCHAR
STARTCHAR 04DB
ENCODING 1243
SWIDTH 468 0
DWIDTH 13 0
BBX 13 23 2 0
BITMAP
0020
0E70
0E70
0400
07E0
1FF0
3FF0
3FF8
18F8
0078
0038
3FF8
7FF8
7FF8
7FF8
F8F8
F9F0
FFF0
FFF0
FFF0
7FE0
3FC0
0700
ENDCHAR
STARTCHAR 04DC
ENCODING 1244
SWIDTH 684 0
DWIDTH 19 0
BBX 21 23 1 0
BITMAP
002000
006700
006700
000000
000818
1F3C78
1FBCF8
1FFDF0
1FFDF0
0FFFE0
0FFFE0
0FFFC0
0FFF80
07FF80
0FFF80
1FFFC0
1FFFE0
3EFFE0
7EF7E0
7EF7E0
FCF3C0
F8F300
304000
ENDCHAR
STARTCHAR 04DD
ENCODING 1245
SWIDTH 684 0
DWIDTH 19 0
BBX 21 23 1 0
BITMAP
002000
006700
006700
000000
000818
1F3C78
1FBCF8
1FFDF0
1FFDF0
0FFFE0
0FFFE0
0FFFC0
0FFF80
07FF80
0FFF80
1FFFC0
1FFFE0
3EFFE0
7EF7E0
7EF7E0
FCF3C0
F8F300
304000
ENDCHAR
STARTCHAR 04DE
ENCODING 1246
SWIDTH 468 0
DWIDTH 13 0
BBX 13 23 2 0
BITMAP
0020
0670
0E70
0400
1FF0
3FF8
3FF8
3FF8
30F8
00F8
00F8
01F0
1FE0
1FE0
1FF0
01F0
00F0
01F0
7FF0
FFF0
FFE0
7FC0
7F00
ENDCHAR
STARTCHAR 04DF
ENCODING 1247
SWIDTH 468 0
DWIDTH 13 0
BBX 13 23 2 0
BITMAP
0020
0670
0E70
0400
1FF0
3FF8
3FF8
3FF8
30F8
00F8
00F8
01F0
1FE0
1FE0
1FF0
01F0
00F0
01F0
7FF0
FFF0
FFE0
7FC0
7F00
ENDCHAR
STARTCHAR 04E0
ENCODING 1248
SWIDTH 468 0
DWIDTH 13 0
BBX 15 19 1 0
BITMAP
07FC
0FFE
0FFC
0018
0070
01F0
03E0
07F8
1FF8
0FFC
003C
003C
003C
403C
FCF8
FFF8
FFF0
7FE0
1F80
ENDCHAR
STARTCHAR 04E1
ENCODING 1249
SWIDTH 468 0
DWIDTH 13 0
BBX 15 19 1 0
BITMAP
07FC
0FFE
0FFC
0018
0070
01F0
03E0
07F8
1FF8
0FFC
003C
003C
003C
403C
FCF8
FFF8
FFF0
7FE0
1F80
ENDCHAR
STARTCHAR 04E2
ENCODING 1250
SWIDTH 540 0
DWIDTH 15 0
BBX 15 22 2 0
BITMAP
07F8
07F8
0000
040C
3E3E
3E3E
3E7E
3E7E
3E7E
3EFE
3CFE
7DFE
7FFC
7FFC
7FFC
7F7C
7E7C
7E7C
FC7C
FCF8
FCF8
2038
ENDCHAR
STARTCHAR 04E3
ENCODING 1251
SWIDTH 540 0
DWIDTH 15 0
BBX 15 22 2 0
BITMAP
07F8
07F8
0000
040C
3E3E
3E3E
3E7E
3E7E
3E7E
3EFE
3CFE
7DFE
7FFC
7FFC
7FFC
7F7C
7E7C
7E7C
FC7C
FCF8
FCF8
2038
ENDCHAR
STARTCHAR 04E4
ENCODING 1252
SWIDTH 540 0
DWIDTH 15 0
BBX 15 23 2 0
BITMAP
0100
0738
0738
0010
040C
3E3E
3E3E
3E7E
3E7E
3E7E
3EFE
3CFE
7DFE
7FFC
7FFC
7FFC
7F7C
7E7C
7E7C
FC7C
FCF8
FCF8
2038
ENDCHAR
STARTCHAR 04E5
ENCODING 1253
SWIDTH 540 0
DWIDTH 15 0
BBX 15 23 2 0
BITMAP
0100
0738
0738
0010
040C
3E3E
3E3E
3E7E
3E7E
3E7E
3EFE
3CFE
7DFE
7FFC
7FFC
7FFC
7F7C
7E7C
7E7C
FC7C
FCF8
FCF8
2038
ENDCHAR
STARTCHAR 04E6
ENCODING 1254
SWIDTH 504 0
DWIDTH 14 0
BBX 14 23 2 0
BITMAP
0020
0E70
0E60
0400
03C0
07E0
0FF8
0FF8
1FFC
3FFC
3FFC
7E7C
7C7C
FC7C
FC7C
FCFC
FFFC
FFF8
FFF8
7FF0
7FF0
3FE0
1F80
ENDCHAR
STARTCHAR 04E7
ENCODING 1255
SWIDTH 504 0
DWIDTH 14 0
BBX 14 23 2 0
BITMAP
0020
0E70
0E60
0400
03C0
07E0
0FF8
0FF8
1FFC
3FFC
3FFC
7E7C
7C7C
FC7C
FC7C
FCFC
FFFC
FFF8
FFF8
7FF0
7FF0
3FE0
1F80
ENDCHAR
STARTCHAR 04E8
ENCODING 1256
SWIDTH 504 0
DWIDTH 14 0
BBX 15 19 2 0
BITMAP
03F0
0FF8
1FFC
1FFC
3FFE
3FFE
7FFE
7C7E
7FFE
7FFE
FFFC
F87C
7CF8
7FF8
7FF0
7FF0
3FE0
1FE0
0FC0
ENDCHAR
STARTCHAR 04E9
ENCODING 1257
SWIDTH 504 0
DWIDTH 14 0
BBX 15 19 2 0
BITMAP
03F0
0FF8
1FFC
1FFC
3FFE
3FFE
7FFE
7C7E
7FFE
7FFE
FFFC
F87C
7CF8
7FF8
7FF0
7FF0
3FE0
1FE0
0FC0
ENDCHAR
STARTCHAR 04EA
ENCODING 1258
SWIDTH 504 0
DWIDTH 14 0
BBX 15 23 2 0
BITMAP
0010
0338
0738
0200
03F0
0FF8
1FFC
1FFC
3FFE
3FFE
7FFE
7C7E
7FFE
7FFE
FFFC
F87C
7CF8
7FF8
7FF0
7FF0
3FE0
1FE0
0FC0
ENDCHAR
STARTCHAR 04EB
ENCODING 1259
SWIDTH 504 0
DWIDTH 14 0
BBX 15 23 2 0
BITMAP
0010
0338
0738
0200
03F0
0FF8
1FFC
1FFC
3FFE
3FFE
7FFE
7C7E
7FFE
7FFE
FFFC
F87C
7CF8
7FF8
7FF0
7FF0
3FE0
1FE0
0FC0
ENDCHAR
STARTCHAR 04EC
ENCODING 1260
SWIDTH 468 0
DWIDTH 13 0
BBX 15 23 1 0
BITMAP
0010
0738
0730
0200
01F0
0FF8
1FFC
1FFC
1FFE
1FFE
1F7E
003E
0FFE
0FFE
0FFC
1FFC
007C
7FF8
7FF8
FFF0
FFE0
7F80
1C00
ENDCHAR
STARTCHAR 04ED
ENCODING 1261
SWIDTH 468 0
DWIDTH 13 0
BBX 15 23 1 0
BITMAP
0010
0738
0730
0200
01F0
0FF8
1FFC
1FFC
1FFE
1FFE
1F7E
003E
0FFE
0FFE
0FFC
1FFC
007C
7FF8
7FF8
FFF0
FFE0
7F80
1C00
ENDCHAR
STARTCHAR 04EE
ENCODING 1262
SWIDTH 504 0
DWIDTH 14 0
BBX 16 22 1 0
BITMAP
03FC
03FC
0000
0F9F
1F9F
1F9E
0FBE
0FBE
0FBC
0FFC
07F8
07F8
07F8
07F0
03F0
03F0
7FE0
7FE0
7FE0
FFC0
FF00
F000
ENDCHAR
STARTCHAR 04EF
ENCODING 1263
SWIDTH 504 0
DWIDTH 14 0
BBX 16 22 1 0
BITMAP
03FC
03FC
0000
0F9F
1F9F
1F9E
0FBE
0FBE
0FBC
0FFC
07F8
07F8
07F8
07F0
03F0
03F0
7FE0
7FE0
7FE0
FFC0
FF00
F000
ENDCHAR
STARTCHAR 04F0
ENCODING 1264
SWIDTH 504 0
DWIDTH 14 0
BBX 16 23 1 0
BITMAP
0008
019C
039C
0000
0F9F
1F9F
1F9E
0FBE
0FBE
0FBC
0FFC
07F8
07F8
07F8
07F0
03F0
03F0
7FE0
7FE0
7FE0
FFC0
FF00
F000
ENDCHAR
STARTCHAR 04F1
ENCODING 1265
SWIDTH 504 0
DWIDTH 14 0
BBX 16 23 1 0
BITMAP
0008
019C
039C
0000
0F9F
1F9F
1F9E
0FBE
0FBE
0FBC
0FFC
07F8
07F8
07F8
07F0
03F0
03F0
7FE0
7FE0
7FE0
FFC0
FF00
F000
ENDCHAR
STARTCHAR 04F2
ENCODING 1266
SWIDTH 504 0
DWIDTH 14 0
BBX 18 24 1 0
BITMAP
007BC0
007780
00E700
01CE00
000000
0F9F00
1F9F00
1F9E00
0FBE00
0FBE00
0FBC00
0FFC00
07F800
07F800
07F800
07F000
03F000
03F000
7FE000
7FE000
7FE000
FFC000
FF0000
F00000
ENDCHAR
STARTCHAR 04F3
ENCODING 1267
SWIDTH 504 0
DWIDTH 14 0
BBX 18 24 1 0
BITMAP
007BC0
007780
00E700
01CE00
000000
0F9F00
1F9F00
1F9E00
0FBE00
0FBE00
0FBC00
0FFC00
07F800
07F800
07F800
07F000
03F000
03F000
7FE000
7FE000
7FE000
FFC000
FF0000
F00000
ENDCHAR
STARTCHAR 04F4
ENCODING 1268
SWIDTH 504 0
DWIDTH 14 0
BBX 13 23 3 0
BITMAP
0020
0E70
0E60
0400
0000
7C78
7878
7878
7878
F8F8
F8F8
F8F0
F8F0
FFF0
FFF0
7FF0
3FF0
09F0
01E0
01E0
01E0
03E0
0180
ENDCHAR
STARTCHAR 04F5
ENCODING 1269
SWIDTH 504 0
DWIDTH 14 0
BBX 13 23 3 0
BITMAP
0020
0E70
0E60
0400
0000
7C78
7878
7878
7878
F8F8
F8F8
F8F0
F8F0
FFF0
FFF0
7FF0
3FF0
09F0
01E0
01E0
01E0
03E0
0180
ENDCHAR
STARTCHAR 04F6
ENCODING 1270
SWIDTH 504 0
DWIDTH 14 0
BBX 16 23 1 -4
BITMAP
000C
07FF
1FFF
1FFF
1FFF
1F00
3F00
3E00
3E00
3E00
3C00
7C00
7C00
7C00
7C00
F800
FF00
FE00
FE00
FE00
1C00
3C00
3C00
ENDCHAR
STARTCHAR 04F7
ENCODING 1271
SWIDTH 504 0
DWIDTH 14 0
BBX 16 23 1 -4
BITMAP
000C
07FF
1FFF
1FFF
1FFF
1F00
3F00
3E00
3E00
3E00
3C00
7C00
7C00
7C00
7C00
F800
FF00
FE00
FE00
FE00
1C00
3C00
3C00
ENDCHAR
STARTCHAR 04F8
ENCODING 1272
SWIDTH 648 0
DWIDTH 18 0
BBX 20 22 2 0
BITMAP
000200
006700
00E700
000000
3E0070
3E00F0
3E01F0
3E01F0
3E01E0
7C01E0
7F81E0
7FE1E0
7FF3C0
7FF3C0
7873C0
787BC0
7873C0
F8F780
F9F780
FFE780
FFE780
FF8780
ENDCHAR
STARTCHAR 04F9
ENCODING 1273
SWIDTH 648 0
DWIDTH 18 0
BBX 20 22 2 0
BITMAP
000200
006700
00E700
000000
3E0070
3E00F0
3E01F0
3E01F0
3E01E0
7C01E0
7F81E0
7FE1E0
7FF3C0
7FF3C0
7873C0
787BC0
7873C0
F8F780
F9F780
FFE780
FFE780
FF8780
ENDCHAR
STARTCHAR 0500
ENCODING 1280
SWIDTH 468 0
DWIDTH 13 0
BBX 16 19 1 0
BITMAP
001F
001F
001F
001E
003E
003E
01FE
0FFC
1FFC
1FFC
3C7C
7878
78F8
78F8
F8F0
FDF0
FFF0
7FF0
3FE0
ENDCHAR
STARTCHAR 0501
ENCODING 1281
SWIDTH 468 0
DWIDTH 13 0
BBX 16 19 1 0
BITMAP
001F
001F
001F
001E
003E
003E
01FE
0FFC
1FFC
1FFC
3C7C
7878
78F8
78F8
F8F0
FDF0
FFF0
7FF0
3FE0
ENDCHAR
STARTCHAR 0510
ENCODING 1296
SWIDTH 468 0
DWIDTH 13 0
BBX 15 19 2 0
BITMAP
03FC
0FFE
0FFE
1FFE
3F0C
3E00
3E00
3F00
1FE0
3FC0
7FC0
7C00
F800
F800
FFE0
FFE0
FFC0
7FC0
3F80
ENDCHAR
STARTCHAR 0511
ENCODING 1297
SWIDTH 468 0
DWIDTH 13 0
BBX 15 19 2 0
BITMAP
03FC
0FFE
0FFE
1FFE
3F0C
3E00
3E00
3F00
1FE0
3FC0
7FC0
7C00
F800
F800
FFE0
FFE0
FFC0
7FC0
3F80
ENDCHAR
STARTCHAR 0524
ENCODING 1316
SWIDTH 540 0
DWIDTH 15 0
BBX 16 22 2 -4
BITMAP
1FFF
3FFF
3FFF
3FFE
3FFE
7C3E
7C3E
7C3C
7C3C
787C
787C
F87C
F878
F878
F8F8
F8FC
F0FC
F0F8
F078
0078
0070
00F0
ENDCHAR
STARTCHAR 0525
ENCODING 1317
SWIDTH 540 0
DWIDTH 15 0
BBX 16 22 2 -4
BITMAP
1FFF
3FFF
3FFF
3FFE
3FFE
7C3E
7C3E
7C3C
7C3C
787C
787C
F87C
F878
F878
F8F8
F8FC
F0FC
F0F8
F078
0078
0070
00F0
ENDCHAR
STARTCHAR 0526
ENCODING 1318
SWIDTH 504 0
DWIDTH 14 0
BBX 13 21 2 -4
BITMAP
3E00
3E00
3E00
3E00
3C00
3FE0
3FF0
3FF8
7FF8
7CF8
78F8
78F8
78F8
78F0
F8F8
F8F8
F8F0
F0F0
00F0
00E0
01E0
ENDCHAR
STARTCHAR 0527
ENCODING 1319
SWIDTH 504 0
DWIDTH 14 0
BBX 13 21 2 -4
BITMAP
3E00
3E00
3E00
3E00
3C00
3FE0
3FF0
3FF8
7FF8
7CF8
78F8
78F8
78F8
78F0
F8F8
F8F8
F8F0
F0F0
00F0
00E0
01E0
ENDCHAR
STARTCHAR 052E
ENCODING 1326
SWIDTH 576 0
DWIDTH 16 0
BBX 16 22 1 -4
BITMAP
0080
03C0
03C0
03E0
07E0
07F0
0FF0
0FF0
1FF8
1FF8
1EF8
3EFC
3EFC
7CFC
7CFC
FCFF
FCFF
F81E
401E
001E
001C
003C
ENDCHAR
STARTCHAR 052F
ENCODING 1327
SWIDTH 576 0
DWIDTH 16 0
BBX 16 22 1 -4
BITMAP
0080
03C0
03C0
03E0
07E0
07F0
0FF0
0FF0
1FF8
1FF8
1EF8
3EFC
3EFC
7CFC
7CFC
FCFF
FCFF
F81E
401E
001E
001C
003C
ENDCHAR
STARTCHAR 058F
ENCODING 1423
SWIDTH 540 0
DWIDTH 15 0
BBX 14 19 3 0
BITMAP
0FC0
3FE0
3FE0
7FF0
79F0
F1F0
F1F0
F1F0
EFFC
0FFC
1FF8
03E0
03E0
1FF8
1FF8
07C0
07C0
0780
0780
ENDCHAR
STARTCHAR 1E02
ENCODING 7682
SWIDTH 504 0
DWIDTH 14 0
BBX 12 22 3 0
BITMAP
0E00
0E00
0400
1FC0
7FE0
7FE0
7FF0
7DF0
78F0
78E0
7DE0
7F80
7FE0
FFF0
FDF0
F8F0
F9F0
FBF0
FFE0
FFC0
FF80
F000
ENDCHAR
STARTCHAR 1E03
ENCODING 7683
SWIDTH 504 0
DWIDTH 14 0
BBX 12 22 3 0
BITMAP
0E00
0E00
0400
1FC0
7FE0
7FE0
7FF0
7DF0
78F0
78E0
7DE0
7F80
7FE0
FFF0
FDF0
F8F0
F9F0
FBF0
FFE0
FFC0
FF80
F000
ENDCHAR
STARTCHAR 1E06
ENCODING 7686
SWIDTH 504 0
DWIDTH 14 0
BBX 12 23 3 -4
BITMAP
1FC0
7FE0
7FE0
7FF0
7DF0
78F0
78E0
7DE0
7F80
7FE0
FFF0
FDF0
F8F0
F9F0
FBF0
FFE0
FFC0
FF80
F000
0000
FF00
FF00
FE00
ENDCHAR
STARTCHAR 1E07
ENCODING 7687
SWIDTH 504 0
DWIDTH 14 0
BBX 12 23 3 -4
BITMAP
1FC0
7FE0
7FE0
7FF0
7DF0
78F0
78E0
7DE0
7F80
7FE0
FFF0
FDF0
F8F0
F9F0
FBF0
FFE0
FFC0
FF80
F000
0000
FF00
FF00
FE00
ENDCHAR
STARTCHAR 1E08
ENCODING 7688
SWIDTH 468 0
DWIDTH 13 0
BBX 16 29 2 -5
BITMAP
000F
001E
003C
0038
0000
00F0
07FC
0FFE
1FFC
3FFC
3FC0
7F00
7E00
7C00
7C00
FE10
FFF8
FFF0
FFF0
FFF0
7FF0
7FC0
7FC0
1E00
1C00
0E00
CF00
FE00
3800
ENDCHAR
STARTCHAR 1E09
ENCODING 7689
SWIDTH 468 0
DWIDTH 13 0
BBX 16 29 2 -5
BITMAP
000F
001E
003C
0038
0000
00F0
07FC
0FFE
1FFC
3FFC
3FC0
7F00
7E00
7C00
7C00
FE10
FFF8
FFF0
FFF0
FFF0
7FF0
7FC0
7FC0
1E00
1C00
0E00
CF00
FE00
3800
ENDCHAR
STARTCHAR 1E0A
ENCODING 7690
SWIDTH 432 0
DWIDTH 12 0
BBX 12 22 3 0
BITMAP
1C00
1C00
0800
3E00
7FC0
7FC0
7FE0
7FE0
FDF0
F8F0
F8F0
F8F0
F9E0
FBE0
FFC0
FF80
FF00
FF00
FE00
FC00
F000
8000
ENDCHAR
STARTCHAR 1E0B
ENCODING 7691
SWIDTH 432 0
DWIDTH 12 0
BBX 12 22 3 0
BITMAP
1C00
1C00
0800
3E00
7FC0
7FC0
7FE0
7FE0
FDF0
F8F0
F8F0
F8F0
F9E0
FBE0
FFC0
FF80
FF00
FF00
FE00
FC00
F000
8000
ENDCHAR
STARTCHAR 1E0C
ENCODING 7692
SWIDTH 432 0
DWIDTH 12 0
BBX 12 23 3 -4
BITMAP
3E00
7FC0
7FC0
7FE0
7FE0
FDF0
F8F0
F8F0
F8F0
F9E0
FBE0
FFC0
FF80
FF00
FF00
FE00
FC00
F000
8000
0000
6000
E000
E000
ENDCHAR
STARTCHAR 1E0D
ENCODING 7693
SWIDTH 432 0
DWIDTH 12 0
BBX 12 23 3 -4
BITMAP
3E00
7FC0
7FC0
7FE0
7FE0
FDF0
F8F0
F8F0
F8F0
F9E0
FBE0
FFC0
FF80
FF00
FF00
FE00
FC00
F000
8000
0000
6000
E000
E000
ENDCHAR
STARTCHAR 1E0E
ENCODING 7694
SWIDTH 432 0
DWIDTH 12 0
BBX 13 23 2 -4
BITMAP
1F00
3FE0
3FE0
3FF0
3FF0
7EF8
7C78
7C78
7C78
7CF0
7DF0
7FE0
7FC0
7F80
7F80
7F00
7E00
7800
4000
0000
FF80
FF00
FE00
ENDCHAR
STARTCHAR 1E0F
ENCODING 7695
SWIDTH 432 0
DWIDTH 12 0
BBX 13 23 2 -4
BITMAP
1F00
3FE0
3FE0
3FF0
3FF0
7EF8
7C78
7C78
7C78
7CF0
7DF0
7FE0
7FC0
7F80
7F80
7F00
7E00
7800
4000
0000
FF80
FF00
FE00
ENDCHAR
STARTCHAR 1E10
ENCODING 7696
SWIDTH 432 0
DWIDTH 12 0
BBX 13 24 2 -5
BITMAP
1F00
3FE0
3FE0
3FF0
3FF0
7EF8
7C78
7C78
7C78
7CF0
7DF0
7FE0
7FC0
7F80
7F80
7F00
7E00
7C00
5C00
1C00
1E00
CE00
FE00
3000
ENDCHAR
STARTCHAR 1E11
ENCODING 7697
SWIDTH 432 0
DWIDTH 12 0
BBX 13 24 2 -5
BITMAP
1F00
3FE0
3FE0
3FF0
3FF0
7EF8
7C78
7C78
7C78
7CF0
7DF0
7FE0
7FC0
7F80
7F80
7F00
7E00
7C00
5C00
1C00
1E00
CE00
FE00
3000
ENDCHAR
STARTCHAR 1E1C
ENCODING 7708
SWIDTH 468 0
DWIDTH 13 0
BBX 11 30 4 -5
BITMAP
0040
71C0
3F80
3F00
1E00
0000
7FE0
FFC0
FFC0
FF80
FF80
FE00
F800
F900
FF00
FF00
FC00
F800
FFC0
FFC0
FFC0
FFC0
FFC0
FE00
FC00
1C00
0E00
CF00
FE00
3C00
ENDCHAR
STARTCHAR 1E1D
ENCODING 7709
SWIDTH 468 0
DWIDTH 13 0
BBX 11 30 4 -5
BITMAP
0040
71C0
3F80
3F00
1E00
0000
7FE0
FFC0
FFC0
FF80
FF80
FE00
F800
F900
FF00
FF00
FC00
F800
FFC0
FFC0
FFC0
FFC0
FFC0
FE00
FC00
1C00
0E00
CF00
FE00
3C00
ENDCHAR
STARTCHAR 1E1E
ENCODING 7710
SWIDTH 504 0
DWIDTH 14 0
BBX 16 23 1 0
BITMAP
0060
00E0
00E0
000C
07FF
1FFF
1FFF
1FFF
1F00
3F00
3E00
3FC0
3FC0
3FC0
7F80
7C00
7C00
7C00
F800
F800
F800
F800
F000
ENDCHAR
STARTCHAR 1E1F
ENCODING 7711
SWIDTH 504 0
DWIDTH 14 0
BBX 16 23 1 0
BITMAP
0060
00E0
00E0
000C
07FF
1FFF
1FFF
1FFF
1F00
3F00
3E00
3FC0
3FC0
3FC0
7F80
7C00
7C00
7C00
F800
F800
F800
F800
F000
ENDCHAR
STARTCHAR 1E24
ENCODING 7716
SWIDTH 540 0
DWIDTH 15 0
BBX 18 23 1 -4
BITMAP
01E000
07E7C0
07E7C0
07C780
0FCF80
0FCF80
0F8F80
1FFF00
1FFF00
1FFF00
3FFF00
3FFF00
3FFE00
3E7E00
7E7E00
7E7C00
7E7C00
FC7C00
088000
000000
020000
070000
070000
ENDCHAR
STARTCHAR 1E25
ENCODING 7717
SWIDTH 540 0
DWIDTH 15 0
BBX 18 23 1 -4
BITMAP
01E000
07E7C0
07E7C0
07C780
0FCF80
0FCF80
0F8F80
1FFF00
1FFF00
1FFF00
3FFF00
3FFF00
3FFE00
3E7E00
7E7E00
7E7C00
7E7C00
FC7C00
088000
000000
020000
070000
070000
ENDCHAR
STARTCHAR 1E28
ENCODING 7720
SWIDTH 540 0
DWIDTH 15 0
BBX 19 24 0 -5
BITMAP
00F000
03F3E0
03F3E0
03E3C0
07E7C0
07E7C0
07C7C0
0FFF80
0FFF80
0FFF80
1FFF80
1FFF80
1FFF00
1F3F00
3F3F00
3F3E00
3F3E00
7E3E00
1C4000
1C0000
1E0000
CF0000
FE0000
300000
ENDCHAR
STARTCHAR 1E29
ENCODING 7721
SWIDTH 540 0
DWIDTH 15 0
BBX 19 24 0 -5
BITMAP
00F000
03F3E0
03F3E0
03E3C0
07E7C0
07E7C0
07C7C0
0FFF80
0FFF80
0FFF80
1FFF80
1FFF80
1FFF00
1F3F00
3F3F00
3F3E00
3F3E00
7E3E00
1C4000
1C0000
1E0000
CF0000
FE0000
300000
ENDCHAR
STARTCHAR 1E2A
ENCODING 7722
SWIDTH 540 0
DWIDTH 15 0
BBX 18 24 1 -5
BITMAP
01E000
07E7C0
07E7C0
07C780
0FCF80
0FCF80
0F8F80
1FFF00
1FFF00
1FFF00
3FFF00
3FFF00
3FFE00
3E7E00
7E7E00
7E7C00
7E7C00
FC7C00
088000
186000
19E000
1FC000
1F8000
040000
ENDCHAR
STARTCHAR 1E2B
ENCODING 7723
SWIDTH 540 0
DWIDTH 15 0
BBX 18 24 1 -5
BITMAP
01E000
07E7C0
07E7C0
07C780
0FCF80
0FCF80
0F8F80
1FFF00
1FFF00
1FFF00
3FFF00
3FFF00
3FFE00
3E7E00
7E7E00
7E7C00
7E7C00
FC7C00
088000
186000
19E000
1FC000
1F8000
040000
ENDCHAR
STARTCHAR 1E30
ENCODING 7728
SWIDTH 540 0
DWIDTH 15 0
BBX 18 24 1 0
BITMAP
0003C0
000780
000F00
001C00
000000
0FE300
0FE780
1FCF80
1FDF00
1FFE00
1FFC00
3FF800
3FF800
3FF000
3FE000
7FE000
7FF000
7FF000
7FF800
FF7800
FE7C00
FE7C00
FE3C00
FC2000
ENDCHAR
STARTCHAR 1E31
ENCODING 7729
SWIDTH 540 0
DWIDTH 15 0
BBX 18 24 1 0
BITMAP
0003C0
000780
000F00
001C00
000000
0FE300
0FE780
1FCF80
1FDF00
1FFE00
1FFC00
3FF800
3FF800
3FF000
3FE000
7FE000
7FF000
7FF000
7FF800
FF7800
FE7C00
FE7C00
FE3C00
FC2000
ENDCHAR
STARTCHAR 1E34
ENCODING 7732
SWIDTH 540 0
DWIDTH 15 0
BBX 17 23 1 -4
BITMAP
0FE300
0FE780
1FCF80
1FDF00
1FFE00
1FFC00
3FF800
3FF800
3FF000
3FE000
7FE000
7FF000
7FF000
7FF800
FF7800
FE7C00
FE7C00
FE3C00
FC2000
000000
3FC000
3FC000
3F8000
ENDCHAR
STARTCHAR 1E35
ENCODING 7733
SWIDTH 540 0
DWIDTH 15 0
BBX 17 23 1 -4
BITMAP
0FE300
0FE780
1FCF80
1FDF00
1FFE00
1FFC00
3FF800
3FF800
3FF000
3FE000
7FE000
7FF000
7FF000
7FF800
FF7800
FE7C00
FE7C00
FE3C00
FC2000
000000
3FC000
3FC000
3F8000
ENDCHAR
STARTCHAR 1E36
ENCODING 7734
SWIDTH 504 0
DWIDTH 14 0
BBX 14 23 1 -4
BITMAP
01F8
03F8
07F0
07F0
07F0
0FE0
0FE0
0FC0
1FC0
1FC0
1F80
3F80
3F80
3FFC
7FF8
7FF8
7FF8
FFF8
FFE0
0000
0400
0E00
0E00
ENDCHAR
STARTCHAR 1E37
ENCODING 7735
SWIDTH 504 0
DWIDTH 14 0
BBX 14 23 1 -4
BITMAP
01F8
03F8
07F0
07F0
07F0
0FE0
0FE0
0FC0
1FC0
1FC0
1F80
3F80
3F80
3FFC
7FF8
7FF8
7FF8
FFF8
FFE0
0000
0400
0E00
0E00
ENDCHAR
STARTCHAR 1E3A
ENCODING 7738
SWIDTH 504 0
DWIDTH 14 0
BBX 14 23 1 -4
BITMAP
01F8
03F8
07F0
07F0
07F0
0FE0
0FE0
0FC0
1FC0
1FC0
1F80
3F80
3F80
3FFC
7FF8
7FF8
7FF8
FFF8
FFE0
0000
3FC0
3FC0
3F80
ENDCHAR
STARTCHAR 1E3B
ENCODING 7739
SWIDTH 504 0
DWIDTH 14 0
BBX 14 23 1 -4
BITMAP
01F8
03F8
07F0
07F0
07F0
0FE0
0FE0
0FC0
1FC0
1FC0
1F80
3F80
3F80
3FFC
7FF8
7FF8
7FF8
FFF8
FFE0
0000
3FC0
3FC0
3F80
ENDCHAR
STARTCHAR 1E3E
ENCODING 7742
SWIDTH 648 0
DWIDTH 18 0
BBX 18 24 1 0
BITMAP
0003C0
000380
000700
000E00
000000
020040
0301C0
0701C0
0783C0
0787C0
0FC7C0
0FCFC0
1FDFC0
1FFFC0
1FFFC0
3FFF80
3F6F80
3E1F80
7E1F80
7C1F80
7C3F80
F83F80
F83F80
F00400
ENDCHAR
STARTCHAR 1E3F
ENCODING 7743
SWIDTH 648 0
DWIDTH 18 0
BBX 18 24 1 0
BITMAP
0003C0
000380
000700
000E00
000000
020040
0301C0
0701C0
0783C0
0787C0
0FC7C0
0FCFC0
1FDFC0
1FFFC0
1FFFC0
3FFF80
3F6F80
3E1F80
7E1F80
7C1F80
7C3F80
F83F80
F83F80
F00400
ENDCHAR
STARTCHAR 1E40
ENCODING 7744
SWIDTH 648 0
DWIDTH 18 0
BBX 18 22 1 0
BITMAP
000C00
001C00
000000
020040
0301C0
0701C0
0783C0
0787C0
0FC7C0
0FCFC0
1FDFC0
1FFFC0
1FFFC0
3FFF80
3F6F80
3E1F80
7E1F80
7C1F80
7C3F80
F83F80
F83F80
F00400
ENDCHAR
STARTCHAR 1E41
ENCODING 7745
SWIDTH 648 0
DWIDTH 18 0
BBX 18 22 1 0
BITMAP
000C00
001C00
000000
020040
0301C0
0701C0
0783C0
0787C0
0FC7C0
0FCFC0
1FDFC0
1FFFC0
1FFFC0
3FFF80
3F6F80
3E1F80
7E1F80
7C1F80
7C3F80
F83F80
F83F80
F00400
ENDCHAR
STARTCHAR 1E44
ENCODING 7748
SWIDTH 540 0
DWIDTH 15 0
BBX 18 23 1 0
BITMAP
000800
001C00
001C00
000000
010100
07E7C0
07CFC0
0FCF80
0FCF80
1FCF80
1FDF00
1FDF00
3FDF00
3FDE00
3FFE00
3FFE00
7EFE00
7EFC00
7CFC00
FCFC00
FCFC00
F8F800
E02000
ENDCHAR
STARTCHAR 1E45
ENCODING 7749
SWIDTH 540 0
DWIDTH 15 0
BBX 18 23 1 0
BITMAP
000800
001C00
001C00
000000
010100
07E7C0
07CFC0
0FCF80
0FCF80
1FCF80
1FDF00
1FDF00
3FDF00
3FDE00
3FFE00
3FFE00
7EFE00
7EFC00
7CFC00
FCFC00
FCFC00
F8F800
E02000
ENDCHAR
STARTCHAR 1E48
ENCODING 7752
SWIDTH 540 0
DWIDTH 15 0
BBX 18 23 1 -4
BITMAP
010100
07E7C0
07CFC0
0FCF80
0FCF80
1FCF80
1FDF00
1FDF00
3FDF00
3FDE00
3FFE00
3FFE00
7EFE00
7EFC00
7CFC00
FCFC00
FCFC00
F8F800
E02000
000000
3FE000
3FC000
3F8000
ENDCHAR
STARTCHAR 1E49
ENCODING 7753
SWIDTH 540 0
DWIDTH 15 0
BBX 18 23 1 -4
BITMAP
010100
07E7C0
07CFC0
0FCF80
0FCF80
1FCF80
1FDF00
1FDF00
3FDF00
3FDE00
3FFE00
3FFE00
7EFE00
7EFC00
7CFC00
FCFC00
FCFC00
F8F800
E02000
000000
3FE000
3FC000
3F8000
ENDCHAR
STARTCHAR 1E54
ENCODING 7764
SWIDTH 468 0
DWIDTH 13 0
BBX 15 24 1 0
BITMAP
003C
0078
0070
00E0
0000
03F0
0FFC
0FFC
0FFE
1F3E
1F1E
1F1E
1F3E
3FFE
3FFC
3FF8
7FE0
7F00
7E00
FE00
FE00
FE00
FE00
FE00
ENDCHAR
STARTCHAR 1E55
ENCODING 7765
SWIDTH 468 0
DWIDTH 13 0
BBX 15 24 1 0
BITMAP
003C
0078
0070
00E0
0000
03F0
0FFC
0FFC
0FFE
1F3E
1F1E
1F1E
1F3E
3FFE
3FFC
3FF8
7FE0
7F00
7E00
FE00
FE00
FE00
FE00
FE00
ENDCHAR
STARTCHAR 1E56
ENCODING 7766
SWIDTH 468 0
DWIDTH 13 0
BBX 15 22 1 0
BITMAP
0070
0070
0020
03F0
0FFC
0FFC
0FFE
1F3E
1F1E
1F1E
1F3E
3FFE
3FFC
3FF8
7FE0
7F00
7E00
FE00
FE00
FE00
FE00
FE00
ENDCHAR
STARTCHAR 1E57
ENCODING 7767
SWIDTH 468 0
DWIDTH 13 0
BBX 15 22 1 0
BITMAP
0070
0070
0020
03F0
0FFC
0FFC
0FFE
1F3E
1F1E
1F1E
1F3E
3FFE
3FFC
3FF8
7FE0
7F00
7E00
FE00
FE00
FE00
FE00
FE00
ENDCHAR
STARTCHAR 1E5A
ENCODING 7770
SWIDTH 576 0
DWIDTH 16 0
BBX 14 23 2 -4
BITMAP
03E0
3FF8
3FFC
3F1C
3F1C
3F1C
7F1C
7F3C
7FF8
7FF0
7FE0
7FE0
7EF0
FEF0
FEF8
FE78
FE78
FE7C
FC78
0000
0100
0380
0300
ENDCHAR
STARTCHAR 1E5B
ENCODING 7771
SWIDTH 576 0
DWIDTH 16 0
BBX 14 23 2 -4
BITMAP
03E0
3FF8
3FFC
3F1C
3F1C
3F1C
7F1C
7F3C
7FF8
7FF0
7FE0
7FE0
7EF0
FEF0
FEF8
FE78
FE78
FE7C
FC78
0000
0100
0380
0300
ENDCHAR
STARTCHAR 1E5E
ENCODING 7774
SWIDTH 576 0
DWIDTH 16 0
BBX 14 23 2 -4
BITMAP
03E0
3FF8
3FFC
3F1C
3F1C
3F1C
7F1C
7F3C
7FF8
7FF0
7FE0
7FE0
7EF0
FEF0
FEF8
FE78
FE78
FE7C
FC78
0000
3FE0
3FC0
3F80
ENDCHAR
STARTCHAR 1E5F
ENCODING 7775
SWIDTH 576 0
DWIDTH 16 0
BBX 14 23 2 -4
BITMAP
03E0
3FF8
3FFC
3F1C
3F1C
3F1C
7F1C
7F3C
7FF8
7FF0
7FE0
7FE0
7EF0
FEF0
FEF8
FE78
FE78
FE7C
FC78
0000
3FE0
3FC0
3F80
ENDCHAR
STARTCHAR 1E60
ENCODING 7776
SWIDTH 504 0
DWIDTH 14 0
BBX 16 22 1 0
BITMAP
0030
0070
0020
01FF
03FF
07FE
0FFE
0FFC
1FF8
1FF8
1F10
1F80
1FE0
0FF8
01F8
0078
20F8
FFF8
FFF8
FFF0
7FC0
3F80
ENDCHAR
STARTCHAR 1E61
ENCODING 7777
SWIDTH 504 0
DWIDTH 14 0
BBX 16 22 1 0
BITMAP
0030
0070
0020
01FF
03FF
07FE
0FFE
0FFC
1FF8
1FF8
1F10
1F80
1FE0
0FF8
01F8
0078
20F8
FFF8
FFF8
FFF0
7FC0
3F80
ENDCHAR
STARTCHAR 1E62
ENCODING 7778
SWIDTH 504 0
DWIDTH 14 0
BBX 16 23 1 -4
BITMAP
01FF
03FF
07FE
0FFE
0FFC
1FF8
1FF8
1F10
1F80
1FE0
0FF8
01F8
0078
20F8
FFF8
FFF8
FFF0
7FC0
3F80
0000
0C00
1C00
1C00
ENDCHAR
STARTCHAR 1E63
ENCODING 7779
SWIDTH 504 0
DWIDTH 14 0
BBX 16 23 1 -4
BITMAP
01FF
03FF
07FE
0FFE
0FFC
1FF8
1FF8
1F10
1F80
1FE0
0FF8
01F8
0078
20F8
FFF8
FFF8
FFF0
7FC0
3F80
0000
0C00
1C00
1C00
ENDCHAR
STARTCHAR 1E6A
ENCODING 7786
SWIDTH 576 0
DWIDTH 16 0
BBX 16 22 3 0
BITMAP
0070
00E0
0000
1FFE
7FFF
7FFF
7FFF
7FFF
FFFA
E3E0
03C0
07C0
0780
0780
0780
0F80
0F00
0F00
0F00
0F00
1E00
1E00
ENDCHAR
STARTCHAR 1E6B
ENCODING 7787
SWIDTH 576 0
DWIDTH 16 0
BBX 16 22 3 0
BITMAP
0070
00E0
0000
1FFE
7FFF
7FFF
7FFF
7FFF
FFFA
E3E0
03C0
07C0
0780
0780
0780
0F80
0F00
0F00
0F00
0F00
1E00
1E00
ENDCHAR
STARTCHAR 1E6C
ENCODING 7788
SWIDTH 576 0
DWIDTH 16 0
BBX 16 23 3 -4
BITMAP
1FFE
7FFF
7FFF
7FFF
7FFF
FFFA
E3E0
03C0
07C0
0780
0780
0780
0F80
0F00
0F00
0F00
0F00
1E00
1E00
0000
0C00
1C00
1C00
ENDCHAR
STARTCHAR 1E6D
ENCODING 7789
SWIDTH 576 0
DWIDTH 16 0
BBX 16 23 3 -4
BITMAP
1FFE
7FFF
7FFF
7FFF
7FFF
FFFA
E3E0
03C0
07C0
0780
0780
0780
0F80
0F00
0F00
0F00
0F00
1E00
1E00
0000
0C00
1C00
1C00
ENDCHAR
STARTCHAR 1E6E
ENCODING 7790
SWIDTH 576 0
DWIDTH 16 0
BBX 16 23 3 -4
BITMAP
1FFE
7FFF
7FFF
7FFF
7FFF
FFFA
E3E0
03C0
07C0
0780
0780
0780
0F80
0F00
0F00
0F00
0F00
1E00
1E00
0000
7F80
7F80
7E00
ENDCHAR
STARTCHAR 1E6F
ENCODING 7791
SWIDTH 576 0
DWIDTH 16 0
BBX 16 23 3 -4
BITMAP
1FFE
7FFF
7FFF
7FFF
7FFF
FFFA
E3E0
03C0
07C0
0780
0780
0780
0F80
0F00
0F00
0F00
0F00
1E00
1E00
0000
7F80
7F80
7E00
ENDCHAR
STARTCHAR 1E7C
ENCODING 7804
SWIDTH 576 0
DWIDTH 16 0
BBX 16 23 4 1
BITMAP
019C
03FC
07F8
07F0
0000
0000
F03F
7E3E
7E3E
7E7E
7E7C
7E7C
7EF8
3EF8
3EF0
3FF0
1FF0
1FE0
0FE0
0FC0
07C0
07C0
0380
ENDCHAR
STARTCHAR 1E7D
ENCODING 7805
SWIDTH 576 0
DWIDTH 16 0
BBX 16 23 4 1
BITMAP
019C
03FC
07F8
07F0
0000
0000
F03F
7E3E
7E3E
7E7E
7E7C
7E7C
7EF8
3EF8
3EF0
3FF0
1FF0
1FE0
0FE0
0FC0
07C0
07C0
0380
ENDCHAR
STARTCHAR 1E80
ENCODING 7808
SWIDTH 720 0
DWIDTH 20 0
BBX 19 24 4 0
BITMAP
03C000
01E000
00E000
00E000
000000
7001A0
F861E0
FC63E0
FC67C0
FCE7C0
FCEF80
FCFF80
FFFF80
7FFF00
7FFF00
7FFE00
7FFE00
3F7E00
3E7C00
3E7C00
3C7C00
1C7800
187000
080000
ENDCHAR
STARTCHAR 1E81
ENCODING 7809
SWIDTH 720 0
DWIDTH 20 0
BBX 19 24 4 0
BITMAP
03C000
01E000
00E000
00E000
000000
7001A0
F861E0
FC63E0
FC67C0
FCE7C0
FCEF80
FCFF80
FFFF80
7FFF00
7FFF00
7FFE00
7FFE00
3F7E00
3E7C00
3E7C00
3C7C00
1C7800
187000
080000
ENDCHAR
STARTCHAR 1E82
ENCODING 7810
SWIDTH 720 0
DWIDTH 20 0
BBX 19 24 4 0
BITMAP
000E00
001E00
003800
007000
000000
7001A0
F861E0
FC63E0
FC67C0
FCE7C0
FCEF80
FCFF80
FFFF80
7FFF00
7FFF00
7FFE00
7FFE00
3F7E00
3E7C00
3E7C00
3C7C00
1C7800
187000
080000
ENDCHAR
STARTCHAR 1E83
ENCODING 7811
SWIDTH 720 0
DWIDTH 20 0
BBX 19 24 4 0
BITMAP
000E00
001E00
003800
007000
000000
7001A0
F861E0
FC63E0
FC67C0
FCE7C0
FCEF80
FCFF80
FFFF80
7FFF00
7FFF00
7FFE00
7FFE00
3F7E00
3E7C00
3E7C00
3C7C00
1C7800
187000
080000
ENDCHAR
STARTCHAR 1E84
ENCODING 7812
SWIDTH 720 0
DWIDTH 20 0
BBX 19 23 4 0
BITMAP
000C00
01DC00
019C00
000000
7001A0
F861E0
FC63E0
FC67C0
FCE7C0
FCEF80
FCFF80
FFFF80
7FFF00
7FFF00
7FFE00
7FFE00
3F7E00
3E7C00
3E7C00
3C7C00
1C7800
187000
080000
ENDCHAR
STARTCHAR 1E85
ENCODING 7813
SWIDTH 720 0
DWIDTH 20 0
BBX 19 23 4 0
BITMAP
000C00
01DC00
019C00
000000
7001A0
F861E0
FC63E0
FC67C0
FCE7C0
FCEF80
FCFF80
FFFF80
7FFF00
7FFF00
7FFE00
7FFE00
3F7E00
3E7C00
3E7C00
3C7C00
1C7800
187000
080000
ENDCHAR
STARTCHAR 1E90
ENCODING 7824
SWIDTH 576 0
DWIDTH 16 0
BBX 14 24 4 0
BITMAP
01C0
03E0
0FF0
0E70
0000
0FFC
7FF8
7FF0
FFE0
FFE0
03C0
0780
0780
0F00
1F00
1E00
3E00
3C00
7800
7FF8
FFF8
FFF0
3FE0
0F00
ENDCHAR
STARTCHAR 1E91
ENCODING 7825
SWIDTH 576 0
DWIDTH 16 0
BBX 14 24 4 0
BITMAP
01C0
03E0
0FF0
0E70
0000
0FFC
7FF8
7FF0
FFE0
FFE0
03C0
0780
0780
0F00
1F00
1E00
3E00
3C00
7800
7FF8
FFF8
FFF0
3FE0
0F00
ENDCHAR
STARTCHAR 1E92
ENCODING 7826
SWIDTH 576 0
DWIDTH 16 0
BBX 14 23 4 -4
BITMAP
0FFC
7FF8
7FF0
FFE0
FFE0
03C0
0780
0780
0F00
1F00
1E00
3E00
3C00
7800
7FF8
FFF8
FFF0
3FE0
0F00
0000
0800
1C00
1C00
ENDCHAR
STARTCHAR 1E93
ENCODING 7827
SWIDTH 576 0
DWIDTH 16 0
BBX 14 23 4 -4
BITMAP
0FFC
7FF8
7FF0
FFE0
FFE0
03C0
0780
0780
0F00
1F00
1E00
3E00
3C00
7800
7FF8
FFF8
FFF0
3FE0
0F00
0000
0800
1C00
1C00
ENDCHAR
STARTCHAR 1E94
ENCODING 7828
SWIDTH 576 0
DWIDTH 16 0
BBX 14 23 4 -4
BITMAP
0FFC
7FF8
7FF0
FFE0
FFE0
03C0
0780
0780
0F00
1F00
1E00
3E00
3C00
7800
7FF8
FFF8
FFF0
3FE0
0F00
0000
FF80
FF00
FE00
ENDCHAR
STARTCHAR 1E95
ENCODING 7829
SWIDTH 576 0
DWIDTH 16 0
BBX 14 23 4 -4
BITMAP
0FFC
7FF8
7FF0
FFE0
FFE0
03C0
0780
0780
0F00
1F00
1E00
3E00
3C00
7800
7FF8
FFF8
FFF0
3FE0
0F00
0000
FF80
FF00
FE00
ENDCHAR
STARTCHAR 1E96
ENCODING 7830
SWIDTH 540 0
DWIDTH 15 0
BBX 18 23 1 -4
BITMAP
01E000
07E7C0
07E7C0
07C780
0FCF80
0FCF80
0F8F80
1FFF00
1FFF00
1FFF00
3FFF00
3FFF00
3FFE00
3E7E00
7E7E00
7E7C00
7E7C00
FC7C00
088000
000000
1FE000
3FE000
3F8000
ENDCHAR
STARTCHAR 1E9B
ENCODING 7835
SWIDTH 432 0
DWIDTH 12 0
BBX 14 27 1 -4
BITMAP
0040
00E0
01C0
0000
03F8
07FC
0FFC
1FBC
1E10
3E00
3E00
3C00
3C00
3C00
3C00
3C00
7C00
7C00
7C00
7800
7800
7800
F800
F800
F000
F000
F000
ENDCHAR
STARTCHAR 1E9C
ENCODING 7836
SWIDTH 468 0
DWIDTH 13 0
BBX 15 23 1 -4
BITMAP
01FC
03FE
07FE
0FDE
1F08
1F00
1F00
1E30
1E70
1FF0
1FF0
3FE0
7F80
FE00
FC00
FC00
BC00
7C00
7C00
7800
7800
7800
7800
ENDCHAR
STARTCHAR 1E9D
ENCODING 7837
SWIDTH 468 0
DWIDTH 13 0
BBX 14 23 2 -4
BITMAP
03F8
07FC
0FFC
1FBC
3E10
3E00
7FC0
FFC0
FFC0
3C00
3C00
7C00
7C00
7C00
7800
7800
7800
F800
F800
F000
F000
F000
F000
ENDCHAR
STARTCHAR 1E9E
ENCODING 7838
SWIDTH 540 0
DWIDTH 15 0
BBX 15 21 1 -2
BITMAP
03F0
07F8
1FF8
1FF8
1E3C
3C38
3C78
3C70
3CE0
3CFC
3CFE
7CFE
7C3E
781E
783E
787E
79FC
79F8
79F0
F000
7000
ENDCHAR
STARTCHAR 1EA0
ENCODING 7840
SWIDTH 612 0
DWIDTH 17 0
BBX 17 23 0 -4
BITMAP
000600
001E00
001E00
003E00
003E00
007E00
007E00
00FE00
01FE00
01FE00
03BE00
073F00
061F00
0FFF00
1FFF00
1F3F00
3E3F00
7C3F80
7C3F80
C00000
010000
038000
038000
ENDCHAR
STARTCHAR 1EA1
ENCODING 7841
SWIDTH 612 0
DWIDTH 17 0
BBX 17 23 0 -4
BITMAP
000600
001E00
001E00
003E00
003E00
007E00
007E00
00FE00
01FE00
01FE00
03BE00
073F00
061F00
0FFF00
1FFF00
1F3F00
3E3F00
7C3F80
7C3F80
C00000
010000
038000
038000
ENDCHAR
STARTCHAR 1EA2
ENCODING 7842
SWIDTH 612 0
DWIDTH 17 0
BBX 18 25 0 -1
BITMAP
000FC0
001FC0
000780
000F00
000000
000600
001E00
001E00
003E00
003E00
007E00
007E00
00FE00
01FE00
01FE00
03BE00
073F00
063F00
0FFF00
1FFF00
1F3F00
3E3F00
7C3F80
7C3F80
C00000
ENDCHAR
STARTCHAR 1EA3
ENCODING 7843
SWIDTH 612 0
DWIDTH 17 0
BBX 18 25 0 -1
BITMAP
000FC0
001FC0
000780
000F00
000000
000600
001E00
001E00
003E00
003E00
007E00
007E00
00FE00
01FE00
01FE00
03BE00
073F00
063F00
0FFF00
1FFF00
1F3F00
3E3F00
7C3F80
7C3F80
C00000
ENDCHAR
STARTCHAR 1EA4
ENCODING 7844
SWIDTH 612 0
DWIDTH 17 0
BBX 21 26 0 -1
BITMAP
000078
0000E0
0000C0
000F00
003F80
002180
000600
001E00
001E00
003E00
003E00
007E00
007E00
00FE00
01FE00
01FE00
03BE00
073F00
063F00
0FFF00
1FFF00
1F3F00
3E3F00
7C3F80
7C3F80
C00000
ENDCHAR
STARTCHAR 1EA5
ENCODING 7845
SWIDTH 612 0
DWIDTH 17 0
BBX 21 26 0 -1
BITMAP
000078
0000E0
0000C0
000F00
003F80
002180
000600
001E00
001E00
003E00
003E00
007E00
007E00
00FE00
01FE00
01FE00
03BE00
073F00
063F00
0FFF00
1FFF00
1F3F00
3E3F00
7C3F80
7C3F80
C00000
ENDCHAR
STARTCHAR 1EA6
ENCODING 7846
SWIDTH 612 0
DWIDTH 17 0
BBX 17 26 0 -1
BITMAP
00F000
007800
003800
000F00
003F80
002180
000600
001E00
001E00
003E00
003E00
007E00
007E00
00FE00
01FE00
01FE00
03BE00
073F00
063F00
0FFF00
1FFF00
1F3F00
3E3F00
7C3F80
7C3F80
C00000
ENDCHAR
STARTCHAR 1EA7
ENCODING 7847
SWIDTH 612 0
DWIDTH 17 0
BBX 17 26 0 -1
BITMAP
00F000
007800
003800
000F00
003F80
002180
000600
001E00
001E00
003E00
003E00
007E00
007E00
00FE00
01FE00
01FE00
03BE00
073F00
063F00
0FFF00
1FFF00
1F3F00
3E3F00
7C3F80
7C3F80
C00000
ENDCHAR
STARTCHAR 1EA8
ENCODING 7848
SWIDTH 612 0
DWIDTH 17 0
BBX 21 26 0 -1
BITMAP
0003F8
0000F0
0001C0
000F00
003F80
002180
000600
001E00
001E00
003E00
003E00
007E00
007E00
00FE00
01FE00
01FE00
03BE00
073F00
063F00
0FFF00
1FFF00
1F3F00
3E3F00
7C3F80
7C3F80
C00000
ENDCHAR
STARTCHAR 1EA9
ENCODING 7849
SWIDTH 612 0
DWIDTH 17 0
BBX 21 26 0 -1
BITMAP
0003F8
0000F0
0001C0
000F00
003F80
002180
000600
001E00
001E00
003E00
003E00
007E00
007E00
00FE00
01FE00
01FE00
03BE00
073F00
063F00
0FFF00
1FFF00
1F3F00
3E3F00
7C3F80
7C3F80
C00000
ENDCHAR
STARTCHAR 1EAA
ENCODING 7850
SWIDTH 612 0
DWIDTH 17 0
BBX 19 26 0 -1
BITMAP
001EE0
003FC0
000000
000F00
003F80
002180
000600
001E00
001E00
003E00
003E00
007E00
007E00
00FE00
01FE00
01FE00
03BE00
073F00
063F00
0FFF00
1FFF00
1F3F00
3E3F00
7C3F80
7C3F80
C00000
ENDCHAR
STARTCHAR 1EAB
ENCODING 7851
SWIDTH 612 0
DWIDTH 17 0
BBX 19 26 0 -1
BITMAP
001EE0
003FC0
000000
000F00
003F80
002180
000600
001E00
001E00
003E00
003E00
007E00
007E00
00FE00
01FE00
01FE00
03BE00
073F00
063F00
0FFF00
1FFF00
1F3F00
3E3F00
7C3F80
7C3F80
C00000
ENDCHAR
STARTCHAR 1EAC
ENCODING 7852
SWIDTH 612 0
DWIDTH 17 0
BBX 18 28 0 -4
BITMAP
000700
001F80
003FC0
0079C0
000000
000600
001E00
001E00
003E00
003E00
007E00
007E00
00FE00
01FE00
01FE00
03BE00
073F00
061F00
0FFF00
1FFF00
1F3F00
3E3F00
7C3F80
7C3F80
C00000
010000
038000
038000
ENDCHAR
STARTCHAR 1EAD
ENCODING 7853
SWIDTH 612 0
DWIDTH 17 0
BBX 18 28 0 -4
BITMAP
000700
001F80
003FC0
0079C0
000000
000600
001E00
001E00
003E00
003E00
007E00
007E00
00FE00
01FE00
01FE00
03BE00
073F00
061F00
0FFF00
1FFF00
1F3F00
3E3F00
7C3F80
7C3F80
C00000
010000
038000
038000
ENDCHAR
STARTCHAR 1EAE
ENCODING 7854
SWIDTH 612 0
DWIDTH 17 0
BBX 18 26 0 -1
BITMAP
0003C0
000780
000600
0031C0
003F80
000E00
000600
001E00
001E00
003E00
003E00
007E00
007E00
00FE00
01FE00
01FE00
03BE00
073F00
063F00
0FFF00
1FFF00
1F3F00
3E3F00
7C3F80
7C3F80
C00000
ENDCHAR
STARTCHAR 1EAF
ENCODING 7855
SWIDTH 612 0
DWIDTH 17 0
BBX 18 26 0 -1
BITMAP
0003C0
000780
000600
0031C0
003F80
000E00
000600
001E00
001E00
003E00
003E00
007E00
007E00
00FE00
01FE00
01FE00
03BE00
073F00
063F00
0FFF00
1FFF00
1F3F00
3E3F00
7C3F80
7C3F80
C00000
ENDCHAR
STARTCHAR 1EB0
ENCODING 7856
SWIDTH 612 0
DWIDTH 17 0
BBX 18 26 0 -1
BITMAP
001E00
000E00
000600
0031C0
003F80
000E00
000600
001E00
001E00
003E00
003E00
007E00
007E00
00FE00
01FE00
01FE00
03BE00
073F00
063F00
0FFF00
1FFF00
1F3F00
3E3F00
7C3F80
7C3F80
C00000
ENDCHAR
STARTCHAR 1EB1
ENCODING 7857
SWIDTH 612 0
DWIDTH 17 0
BBX 18 26 0 -1
BITMAP
001E00
000E00
000600
0031C0
003F80
000E00
000600
001E00
001E00
003E00
003E00
007E00
007E00
00FE00
01FE00
01FE00
03BE00
073F00
063F00
0FFF00
1FFF00
1F3F00
3E3F00
7C3F80
7C3F80
C00000
ENDCHAR
STARTCHAR 1EB2
ENCODING 7858
SWIDTH 612 0
DWIDTH 17 0
BBX 18 26 0 -1
BITMAP
000FC0
0007C0
000F00
0031C0
003F80
000E00
000600
001E00
001E00
003E00
003E00
007E00
007E00
00FE00
01FE00
01FE00
03BE00
073F00
063F00
0FFF00
1FFF00
1F3F00
3E3F00
7C3F80
7C3F80
C00000
ENDCHAR
STARTCHAR 1EB3
ENCODING 7859
SWIDTH 612 0
DWIDTH 17 0
BBX 18 26 0 -1
BITMAP
000FC0
0007C0
000F00
0031C0
003F80
000E00
000600
001E00
001E00
003E00
003E00
007E00
007E00
00FE00
01FE00
01FE00
03BE00
073F00
063F00
0FFF00
1FFF00
1F3F00
3E3F00
7C3F80
7C3F80
C00000
ENDCHAR
STARTCHAR 1EB4
ENCODING 7860
SWIDTH 612 0
DWIDTH 17 0
BBX 19 26 0 -1
BITMAP
001EE0
003FC0
000000
0031C0
003F80
000E00
000600
001E00
001E00
003E00
003E00
007E00
007E00
00FE00
01FE00
01FE00
03BE00
073F00
063F00
0FFF00
1FFF00
1F3F00
3E3F00
7C3F80
7C3F80
C00000
ENDCHAR
STARTCHAR 1EB5
ENCODING 7861
SWIDTH 612 0
DWIDTH 17 0
BBX 19 26 0 -1
BITMAP
001EE0
003FC0
000000
0031C0
003F80
000E00
000600
001E00
001E00
003E00
003E00
007E00
007E00
00FE00
01FE00
01FE00
03BE00
073F00
063F00
0FFF00
1FFF00
1F3F00
3E3F00
7C3F80
7C3F80
C00000
ENDCHAR
STARTCHAR 1EB6
ENCODING 7862
SWIDTH 612 0
DWIDTH 17 0
BBX 18 28 0 -4
BITMAP
0030C0
003BC0
003F80
001F00
000000
000600
001E00
001E00
003E00
003E00
007E00
007E00
00FE00
01FE00
01FE00
03BE00
073F00
063F00
0FFF00
1FFF00
1F3F00
3E3F00
7C3F80
7C3F80
C00000
010000
038000
038000
ENDCHAR
STARTCHAR 1EB7
ENCODING 7863
SWIDTH 612 0
DWIDTH 17 0
BBX 18 28 0 -4
BITMAP
0030C0
003BC0
003F80
001F00
000000
000600
001E00
001E00
003E00
003E00
007E00
007E00
00FE00
01FE00
01FE00
03BE00
073F00
063F00
0FFF00
1FFF00
1F3F00
3E3F00
7C3F80
7C3F80
C00000
010000
038000
038000
ENDCHAR
STARTCHAR 1EB8
ENCODING 7864
SWIDTH 468 0
DWIDTH 13 0
BBX 11 23 4 -4
BITMAP
7FE0
FFC0
FFC0
FF80
FF80
FE00
F800
F900
FF00
FF00
FC00
F800
FFC0
FFC0
FFC0
FFC0
FFC0
FF00
E000
0000
1800
3800
3800
ENDCHAR
STARTCHAR 1EB9
ENCODING 7865
SWIDTH 468 0
DWIDTH 13 0
BBX 11 23 4 -4
BITMAP
7FE0
FFC0
FFC0
FF80
FF80
FE00
F800
F900
FF00
FF00
FC00
F800
FFC0
FFC0
FFC0
FFC0
FFC0
FF00
E000
0000
1800
3800
3800
ENDCHAR
STARTCHAR 1EBA
ENCODING 7866
SWIDTH 468 0
DWIDTH 13 0
BBX 11 24 4 0
BITMAP
1F80
1380
0F00
1E00
0000
7FE0
FFC0
FFC0
FF80
FF80
FE00
F800
F900
FF00
FF00
FC00
F800
FFC0
FFC0
FFC0
FFC0
FFC0
FF00
E000
ENDCHAR
STARTCHAR 1EBB
ENCODING 7867
SWIDTH 468 0
DWIDTH 13 0
BBX 11 24 4 0
BITMAP
1F80
1380
0F00
1E00
0000
7FE0
FFC0
FFC0
FF80
FF80
FE00
F800
F900
FF00
FF00
FC00
F800
FFC0
FFC0
FFC0
FFC0
FFC0
FF00
E000
ENDCHAR
STARTCHAR 1EBC
ENCODING 7868
SWIDTH 468 0
DWIDTH 13 0
BBX 11 24 4 0
BITMAP
1980
7F80
7F80
6E00
0000
7FE0
FFC0
FFC0
FF80
FF80
FE00
F800
F900
FF00
FF00
FC00
F800
FFC0
FFC0
FFC0
FFC0
FFC0
FF00
E000
ENDCHAR
STARTCHAR 1EBD
ENCODING 7869
SWIDTH 468 0
DWIDTH 13 0
BBX 11 24 4 0
BITMAP
1980
7F80
7F80
6E00
0000
7FE0
FFC0
FFC0
FF80
FF80
FE00
F800
F900
FF00
FF00
FC00
F800
FFC0
FFC0
FFC0
FFC0
FFC0
FF00
E000
ENDCHAR
STARTCHAR 1EBE
ENCODING 7870
SWIDTH 468 0
DWIDTH 13 0
BBX 13 25 4 0
BITMAP
0078
00E0
01C0
1F00
7F80
0100
7FE0
FFC0
FFC0
FF80
FF80
FE00
F800
F900
FF00
FF00
FC00
F800
FFC0
FFC0
FFC0
FFC0
FFC0
FF00
E000
ENDCHAR
STARTCHAR 1EBF
ENCODING 7871
SWIDTH 468 0
DWIDTH 13 0
BBX 13 25 4 0
BITMAP
0078
00E0
01C0
1F00
7F80
0100
7FE0
FFC0
FFC0
FF80
FF80
FE00
F800
F900
FF00
FF00
FC00
F800
FFC0
FFC0
FFC0
FFC0
FFC0
FF00
E000
ENDCHAR
STARTCHAR 1EC0
ENCODING 7872
SWIDTH 468 0
DWIDTH 13 0
BBX 11 25 4 0
BITMAP
F000
7000
3000
1F00
7F80
0100
7FE0
FFC0
FFC0
FF80
FF80
FE00
F800
F900
FF00
FF00
FC00
F800
FFC0
FFC0
FFC0
FFC0
FFC0
FF00
E000
ENDCHAR
STARTCHAR 1EC1
ENCODING 7873
SWIDTH 468 0
DWIDTH 13 0
BBX 11 25 4 0
BITMAP
F000
7000
3000
1F00
7F80
0100
7FE0
FFC0
FFC0
FF80
FF80
FE00
F800
F900
FF00
FF00
FC00
F800
FFC0
FFC0
FFC0
FFC0
FFC0
FF00
E000
ENDCHAR
STARTCHAR 1EC2
ENCODING 7874
SWIDTH 468 0
DWIDTH 13 0
BBX 13 25 4 0
BITMAP
03F8
01F0
01C0
1F00
7F80
0100
7FE0
FFC0
FFC0
FF80
FF80
FE00
F800
F900
FF00
FF00
FC00
F800
FFC0
FFC0
FFC0
FFC0
FFC0
FF00
E000
ENDCHAR
STARTCHAR 1EC3
ENCODING 7875
SWIDTH 468 0
DWIDTH 13 0
BBX 13 25 4 0
BITMAP
03F8
01F0
01C0
1F00
7F80
0100
7FE0
FFC0
FFC0
FF80
FF80
FE00
F800
F900
FF00
FF00
FC00
F800
FFC0
FFC0
FFC0
FFC0
FFC0
FF00
E000
ENDCHAR
STARTCHAR 1EC4
ENCODING 7876
SWIDTH 468 0
DWIDTH 13 0
BBX 11 25 4 0
BITMAP
3FC0
3FC0
0000
1F00
7F80
0100
7FE0
FFC0
FFC0
FF80
FF80
FE00
F800
F900
FF00
FF00
FC00
F800
FFC0
FFC0
FFC0
FFC0
FFC0
FF00
E000
ENDCHAR
STARTCHAR 1EC5
ENCODING 7877
SWIDTH 468 0
DWIDTH 13 0
BBX 11 25 4 0
BITMAP
3FC0
3FC0
0000
1F00
7F80
0100
7FE0
FFC0
FFC0
FF80
FF80
FE00
F800
F900
FF00
FF00
FC00
F800
FFC0
FFC0
FFC0
FFC0
FFC0
FF00
E000
ENDCHAR
STARTCHAR 1EC6
ENCODING 7878
SWIDTH 468 0
DWIDTH 13 0
BBX 11 28 4 -4
BITMAP
0E00
1F80
3B80
7100
0000
7FE0
FFC0
FFC0
FF80
FF80
FE00
F800
F900
FF00
FF00
FC00
F800
FFC0
FFC0
FFC0
FFC0
FFC0
FF00
E000
0000
1800
3800
3800
ENDCHAR
STARTCHAR 1EC7
ENCODING 7879
SWIDTH 468 0
DWIDTH 13 0
BBX 11 28 4 -4
BITMAP
0E00
1F80
3B80
7100
0000
7FE0
FFC0
FFC0
FF80
FF80
FE00
F800
F900
FF00
FF00
FC00
F800
FFC0
FFC0
FFC0
FFC0
FFC0
FF00
E000
0000
1800
3800
3800
ENDCHAR
STARTCHAR 1EC8
ENCODING 7880
SWIDTH 324 0
DWIDTH 9 0
BBX 13 24 1 0
BITMAP
01F8
01F8
0078
01E0
0000
03C0
07E0
07E0
07E0
0FC0
0FC0
0FC0
1F80
1F80
1F80
1F80
3F00
3F00
3F00
3F00
7F00
7E00
FE00
F000
ENDCHAR
STARTCHAR 1EC9
ENCODING 7881
SWIDTH 324 0
DWIDTH 9 0
BBX 13 24 1 0
BITMAP
01F8
01F8
0078
01E0
0000
03C0
07E0
07E0
07E0
0FC0
0FC0
0FC0
1F80
1F80
1F80
1F80
3F00
3F00
3F00
3F00
7F00
7E00
FE00
F000
ENDCHAR
STARTCHAR 1ECA
ENCODING 7882
SWIDTH 324 0
DWIDTH 9 0
BBX 11 23 1 -4
BITMAP
03C0
07E0
07E0
07E0
0FC0
0FC0
0FC0
1F80
1F80
1F80
1F80
3F00
3F00
3F00
3F00
7F00
7E00
FE00
F000
0000
2000
7000
7000
ENDCHAR
STARTCHAR 1ECB
ENCODING 7883
SWIDTH 324 0
DWIDTH 9 0
BBX 11 23 1 -4
BITMAP
03C0
07E0
07E0
07E0
0FC0
0FC0
0FC0
1F80
1F80
1F80
1F80
3F00
3F00
3F00
3F00
7F00
7E00
FE00
F000
0000
2000
7000
7000
ENDCHAR
STARTCHAR 1ECC
ENCODING 7884
SWIDTH 504 0
DWIDTH 14 0
BBX 14 23 2 -4
BITMAP
03C0
07E0
0FF8
0FF8
1FFC
3FFC
3FFC
7E7C
7C7C
FC7C
FC7C
FCFC
FFFC
FFF8
FFF8
7FF0
7FF0
3FE0
1F80
0000
0400
0E00
0E00
ENDCHAR
STARTCHAR 1ECD
ENCODING 7885
SWIDTH 504 0
DWIDTH 14 0
BBX 14 23 2 -4
BITMAP
03C0
07E0
0FF8
0FF8
1FFC
3FFC
3FFC
7E7C
7C7C
FC7C
FC7C
FCFC
FFFC
FFF8
FFF8
7FF0
7FF0
3FE0
1F80
0000
0400
0E00
0E00
ENDCHAR
STARTCHAR 1ECE
ENCODING 7886
SWIDTH 504 0
DWIDTH 14 0
BBX 14 24 2 0
BITMAP
03F0
0070
01F0
03C0
0000
03C0
07E0
0FF8
0FF8
1FFC
3FFC
3FFC
7E7C
7C7C
FC7C
FC7C
FCFC
FFFC
FFF8
FFF8
7FF0
7FF0
3FE0
1F80
ENDCHAR
STARTCHAR 1ECF
ENCODING 7887
SWIDTH 504 0
DWIDTH 14 0
BBX 14 24 2 0
BITMAP
03F0
0070
01F0
03C0
0000
03C0
07E0
0FF8
0FF8
1FFC
3FFC
3FFC
7E7C
7C7C
FC7C
FC7C
FCFC
FFFC
FFF8
FFF8
7FF0
7FF0
3FE0
1F80
ENDCHAR
STARTCHAR 1ED0
ENCODING 7888
SWIDTH 504 0
DWIDTH 14 0
BBX 15 25 2 0
BITMAP
001E
003C
0030
03C0
0FF0
0860
03C0
07E0
0FF8
0FF8
1FFC
3FFC
3FFC
7E7C
7C7C
FC7C
FC7C
FCFC
FFFC
FFF8
FFF8
7FF0
7FF0
3FE0
1F80
ENDCHAR
STARTCHAR 1ED1
ENCODING 7889
SWIDTH 504 0
DWIDTH 14 0
BBX 15 25 2 0
BITMAP
001E
003C
0030
03C0
0FF0
0860
03C0
07E0
0FF8
0FF8
1FFC
3FFC
3FFC
7E7C
7C7C
FC7C
FC7C
FCFC
FFFC
FFF8
FFF8
7FF0
7FF0
3FE0
1F80
ENDCHAR
STARTCHAR 1ED2
ENCODING 7890
SWIDTH 504 0
DWIDTH 14 0
BBX 14 25 2 0
BITMAP
3C00
1E00
0E00
03C0
0FF0
0860
03C0
07E0
0FF8
0FF8
1FFC
3FFC
3FFC
7E7C
7C7C
FC7C
FC7C
FCFC
FFFC
FFF8
FFF8
7FF0
7FF0
3FE0
1F80
ENDCHAR
STARTCHAR 1ED3
ENCODING 7891
SWIDTH 504 0
DWIDTH 14 0
BBX 14 25 2 0
BITMAP
3C00
1E00
0E00
03C0
0FF0
0860
03C0
07E0
0FF8
0FF8
1FFC
3FFC
3FFC
7E7C
7C7C
FC7C
FC7C
FCFC
FFFC
FFF8
FFF8
7FF0
7FF0
3FE0
1F80
ENDCHAR
STARTCHAR 1ED4
ENCODING 7892
SWIDTH 504 0
DWIDTH 14 0
BBX 15 25 2 0
BITMAP
007E
003E
0078
03C0
0FF0
0860
03C0
07E0
0FF8
0FF8
1FFC
3FFC
3FFC
7E7C
7C7C
FC7C
FC7C
FCFC
FFFC
FFF8
FFF8
7FF0
7FF0
3FE0
1F80
ENDCHAR
STARTCHAR 1ED5
ENCODING 7893
SWIDTH 504 0
DWIDTH 14 0
BBX 15 25 2 0
BITMAP
007E
003E
0078
03C0
0FF0
0860
03C0
07E0
0FF8
0FF8
1FFC
3FFC
3FFC
7E7C
7C7C
FC7C
FC7C
FCFC
FFFC
FFF8
FFF8
7FF0
7FF0
3FE0
1F80
ENDCHAR
STARTCHAR 1ED6
ENCODING 7894
SWIDTH 504 0
DWIDTH 14 0
BBX 14 25 2 0
BITMAP
07B8
0FF0
0000
03C0
0FF0
0860
03C0
07E0
0FF8
0FF8
1FFC
3FFC
3FFC
7E7C
7C7C
FC7C
FC7C
FCFC
FFFC
FFF8
FFF8
7FF0
7FF0
3FE0
1F80
ENDCHAR
STARTCHAR 1ED7
ENCODING 7895
SWIDTH 504 0
DWIDTH 14 0
BBX 14 25 2 0
BITMAP
07B8
0FF0
0000
03C0
0FF0
0860
03C0
07E0
0FF8
0FF8
1FFC
3FFC
3FFC
7E7C
7C7C
FC7C
FC7C
FCFC
FFFC
FFF8
FFF8
7FF0
7FF0
3FE0
1F80
ENDCHAR
STARTCHAR 1ED8
ENCODING 7896
SWIDTH 504 0
DWIDTH 14 0
BBX 14 28 2 -4
BITMAP
01C0
07E0
0FF0
0E70
0000
03C0
07E0
0FF8
0FF8
1FFC
3FFC
3FFC
7E7C
7C7C
FC7C
FC7C
FCFC
FFFC
FFF8
FFF8
7FF0
7FF0
3FE0
1F80
0000
0400
0E00
0E00
ENDCHAR
STARTCHAR 1ED9
ENCODING 7897
SWIDTH 504 0
DWIDTH 14 0
BBX 14 28 2 -4
BITMAP
01C0
07E0
0FF0
0E70
0000
03C0
07E0
0FF8
0FF8
1FFC
3FFC
3FFC
7E7C
7C7C
FC7C
FC7C
FCFC
FFFC
FFF8
FFF8
7FF0
7FF0
3FE0
1F80
0000
0400
0E00
0E00
ENDCHAR
STARTCHAR 1EDA
ENCODING 7898
SWIDTH 540 0
DWIDTH 15 0
BBX 17 24 2 0
BITMAP
007800
00F000
00E000
01C000
000380
03C380
07E380
0FFB00
0FFB00
1FFF00
3FFF00
3FFE00
7E7C00
7C7C00
FC7C00
FC7C00
FCFC00
FFFC00
FFF800
FFF800
7FF000
7FF000
3FE000
1F8000
ENDCHAR
STARTCHAR 1EDB
ENCODING 7899
SWIDTH 540 0
DWIDTH 15 0
BBX 17 24 2 0
BITMAP
007800
00F000
00E000
01C000
000380
03C380
07E380
0FFB00
0FFB00
1FFF00
3FFF00
3FFE00
7E7C00
7C7C00
FC7C00
FC7C00
FCFC00
FFFC00
FFF800
FFF800
7FF000
7FF000
3FE000
1F8000
ENDCHAR
STARTCHAR 1EDC
ENCODING 7900
SWIDTH 540 0
DWIDTH 15 0
BBX 17 24 2 0
BITMAP
0E0000
0F0000
070000
070000
000380
03C380
07E380
0FFB00
0FFB00
1FFF00
3FFF00
3FFE00
7E7C00
7C7C00
FC7C00
FC7C00
FCFC00
FFFC00
FFF800
FFF800
7FF000
7FF000
3FE000
1F8000
ENDCHAR
STARTCHAR 1EDD
ENCODING 7901
SWIDTH 540 0
DWIDTH 15 0
BBX 17 24 2 0
BITMAP
0E0000
0F0000
070000
070000
000380
03C380
07E380
0FFB00
0FFB00
1FFF00
3FFF00
3FFE00
7E7C00
7C7C00
FC7C00
FC7C00
FCFC00
FFFC00
FFF800
FFF800
7FF000
7FF000
3FE000
1F8000
ENDCHAR
STARTCHAR 1EDE
ENCODING 7902
SWIDTH 540 0
DWIDTH 15 0
BBX 17 24 2 0
BITMAP
03F000
007000
01F000
03C000
000380
03C380
07E380
0FFB00
0FFB00
1FFF00
3FFF00
3FFE00
7E7C00
7C7C00
FC7C00
FC7C00
FCFC00
FFFC00
FFF800
FFF800
7FF000
7FF000
3FE000
1F8000
ENDCHAR
STARTCHAR 1EDF
ENCODING 7903
SWIDTH 540 0
DWIDTH 15 0
BBX 17 24 2 0
BITMAP
03F000
007000
01F000
03C000
000380
03C380
07E380
0FFB00
0FFB00
1FFF00
3FFF00
3FFE00
7E7C00
7C7C00
FC7C00
FC7C00
FCFC00
FFFC00
FFF800
FFF800
7FF000
7FF000
3FE000
1F8000
ENDCHAR
STARTCHAR 1EE0
ENCODING 7904
SWIDTH 540 0
DWIDTH 15 0
BBX 17 24 2 0
BITMAP
027000
0FF000
0FE000
0DC000
000380
03C380
07E380
0FFB00
0FFB00
1FFF00
3FFF00
3FFE00
7E7C00
7C7C00
FC7C00
FC7C00
FCFC00
FFFC00
FFF800
FFF800
7FF000
7FF000
3FE000
1F8000
ENDCHAR
STARTCHAR 1EE1
ENCODING 7905
SWIDTH 540 0
DWIDTH 15 0
BBX 17 24 2 0
BITMAP
027000
0FF000
0FE000
0DC000
000380
03C380
07E380
0FFB00
0FFB00
1FFF00
3FFF00
3FFE00
7E7C00
7C7C00
FC7C00
FC7C00
FCFC00
FFFC00
FFF800
FFF800
7FF000
7FF000
3FE000
1F8000
ENDCHAR
STARTCHAR 1EE2
ENCODING 7906
SWIDTH 540 0
DWIDTH 15 0
BBX 17 24 2 -4
BITMAP
000380
03C380
07E380
0FFB00
0FFB00
1FFF00
3FFF00
3FFE00
7E7C00
7C7C00
FC7C00
FC7C00
FCFC00
FFFC00
FFF800
FFF800
7FF000
7FF000
3FE000
1F8000
000000
040000
0E0000
0E0000
ENDCHAR
STARTCHAR 1EE3
ENCODING 7907
SWIDTH 540 0
DWIDTH 15 0
BBX 17 24 2 -4
BITMAP
000380
03C380
07E380
0FFB00
0FFB00
1FFF00
3FFF00
3FFE00
7E7C00
7C7C00
FC7C00
FC7C00
FCFC00
FFFC00
FFF800
FFF800
7FF000
7FF000
3FE000
1F8000
000000
040000
0E0000
0E0000
ENDCHAR
STARTCHAR 1EE4
ENCODING 7908
SWIDTH 540 0
DWIDTH 15 0
BBX 16 23 2 -4
BITMAP
0F0F
0F0F
1E0F
1E0F
3E1F
3C1F
7C1E
7C3E
7C3E
FC3E
FE7C
FFFC
FFF8
FFF8
FFF0
7FE0
7FC0
3F80
0000
0000
0800
1C00
1C00
ENDCHAR
STARTCHAR 1EE5
ENCODING 7909
SWIDTH 540 0
DWIDTH 15 0
BBX 16 23 2 -4
BITMAP
0F0F
0F0F
1E0F
1E0F
3E1F
3C1F
7C1E
7C3E
7C3E
FC3E
FE7C
FFFC
FFF8
FFF8
FFF0
7FE0
7FC0
3F80
0000
0000
0800
1C00
1C00
ENDCHAR
STARTCHAR 1EE6
ENCODING 7910
SWIDTH 540 0
DWIDTH 15 0
BBX 16 23 2 1
BITMAP
007E
007E
001E
0078
0000
0F0F
0F0F
1E0F
1E0F
3E1F
3C1F
7C1E
7C3E
7C3E
FC3E
FE7C
FFFC
FFF8
FFF8
FFF0
7FE0
7FC0
3F80
ENDCHAR
STARTCHAR 1EE7
ENCODING 7911
SWIDTH 540 0
DWIDTH 15 0
BBX 16 23 2 1
BITMAP
007E
007E
001E
0078
0000
0F0F
0F0F
1E0F
1E0F
3E1F
3C1F
7C1E
7C3E
7C3E
FC3E
FE7C
FFFC
FFF8
FFF8
FFF0
7FE0
7FC0
3F80
ENDCHAR
STARTCHAR 1EE8
ENCODING 7912
SWIDTH 576 0
DWIDTH 16 0
BBX 18 24 2 0
BITMAP
001C00
003C00
007000
00E000
0001C0
000DC0
3E3CC0
3C3CC0
3C3CC0
3C3F80
7C3F80
783F00
787C00
787C00
F87C00
F8F800
FFF800
7FF800
7FF000
7FF000
7FE000
3FE000
3FC000
1E0000
ENDCHAR
STARTCHAR 1EE9
ENCODING 7913
SWIDTH 576 0
DWIDTH 16 0
BBX 18 24 2 0
BITMAP
001C00
003C00
007000
00E000
0001C0
000DC0
3E3CC0
3C3CC0
3C3CC0
3C3F80
7C3F80
783F00
787C00
787C00
F87C00
F8F800
FFF800
7FF800
7FF000
7FF000
7FE000
3FE000
3FC000
1E0000
ENDCHAR
STARTCHAR 1EEA
ENCODING 7914
SWIDTH 576 0
DWIDTH 16 0
BBX 18 24 2 0
BITMAP
078000
038000
03C000
01C000
0001C0
000DC0
3E3CC0
3C3CC0
3C3CC0
3C3F80
7C3F80
783F00
787C00
787C00
F87C00
F8F800
FFF800
7FF800
7FF000
7FF000
7FE000
3FE000
3FC000
1E0000
ENDCHAR
STARTCHAR 1EEB
ENCODING 7915
SWIDTH 576 0
DWIDTH 16 0
BBX 18 24 2 0
BITMAP
078000
038000
03C000
01C000
0001C0
000DC0
3E3CC0
3C3CC0
3C3CC0
3C3F80
7C3F80
783F00
787C00
787C00
F87C00
F8F800
FFF800
7FF800
7FF000
7FF000
7FE000
3FE000
3FC000
1E0000
ENDCHAR
STARTCHAR 1EEC
ENCODING 7916
SWIDTH 576 0
DWIDTH 16 0
BBX 18 24 2 0
BITMAP
01F800
03F800
007800
01E000
0001C0
000DC0
3E3CC0
3C3CC0
3C3CC0
3C3F80
7C3F80
783F00
787C00
787C00
F87C00
F8F800
FFF800
7FF800
7FF000
7FF000
7FE000
3FE000
3FC000
1E0000
ENDCHAR
STARTCHAR 1EED
ENCODING 7917
SWIDTH 576 0
DWIDTH 16 0
BBX 18 24 2 0
BITMAP
01F800
03F800
007800
01E000
0001C0
000DC0
3E3CC0
3C3CC0
3C3CC0
3C3F80
7C3F80
783F00
787C00
787C00
F87C00
F8F800
FFF800
7FF800
7FF000
7FF000
7FE000
3FE000
3FC000
1E0000
ENDCHAR
STARTCHAR 1EEE
ENCODING 7918
SWIDTH 576 0
DWIDTH 16 0
BBX 18 24 2 0
BITMAP
019C00
03F800
07F800
06F000
0001C0
000DC0
3E3CC0
3C3CC0
3C3CC0
3C3F80
7C3F80
783F00
787C00
787C00
F87C00
F8F800
FFF800
7FF800
7FF000
7FF000
7FE000
3FE000
3FC000
1E0000
ENDCHAR
STARTCHAR 1EEF
ENCODING 7919
SWIDTH 576 0
DWIDTH 16 0
BBX 18 24 2 0
BITMAP
019C00
03F800
07F800
06F000
0001C0
000DC0
3E3CC0
3C3CC0
3C3CC0
3C3F80
7C3F80
783F00
787C00
787C00
F87C00
F8F800
FFF800
7FF800
7FF000
7FF000
7FE000
3FE000
3FC000
1E0000
ENDCHAR
STARTCHAR 1EF0
ENCODING 7920
SWIDTH 576 0
DWIDTH 16 0
BBX 18 24 2 -4
BITMAP
0001C0
000DC0
3E3CC0
3C3CC0
3C3CC0
3C3F80
7C3F80
783F00
787C00
787C00
F87C00
F8F800
FFF800
7FF800
7FF000
7FF000
7FE000
3FE000
3FC000
1E0000
000000
040000
0E0000
0E0000
ENDCHAR
STARTCHAR 1EF1
ENCODING 7921
SWIDTH 576 0
DWIDTH 16 0
BBX 18 24 2 -4
BITMAP
0001C0
000DC0
3E3CC0
3C3CC0
3C3CC0
3C3F80
7C3F80
783F00
787C00
787C00
F87C00
F8F800
FFF800
7FF800
7FF000
7FF000
7FE000
3FE000
3FC000
1E0000
000000
040000
0E0000
0E0000
ENDCHAR
STARTCHAR 1EF2
ENCODING 7922
SWIDTH 612 0
DWIDTH 17 0
BBX 17 24 4 0
BITMAP
078000
038000
03C000
01C000
000000
000F80
781F00
F81E00
FC3C00
FC7C00
7C7800
7CF000
7FF000
3FE000
3FC000
3FC000
1F8000
1F0000
1F0000
1F0000
1F0000
1E0000
1E0000
1E0000
ENDCHAR
STARTCHAR 1EF3
ENCODING 7923
SWIDTH 612 0
DWIDTH 17 0
BBX 17 24 4 0
BITMAP
078000
038000
03C000
01C000
000000
000F80
781F00
F81E00
FC3C00
FC7C00
7C7800
7CF000
7FF000
3FE000
3FC000
3FC000
1F8000
1F0000
1F0000
1F0000
1F0000
1E0000
1E0000
1E0000
ENDCHAR
STARTCHAR 1EF4
ENCODING 7924
SWIDTH 612 0
DWIDTH 17 0
BBX 17 23 4 -4
BITMAP
000F80
781F00
F81E00
FC3C00
FC7C00
7C7800
7CF000
7FF000
3FE000
3FC000
3FC000
1F8000
1F0000
1F0000
1F0000
1F0000
1E0000
1E0000
1E0000
000000
000000
0C0000
1C0000
ENDCHAR
STARTCHAR 1EF5
ENCODING 7925
SWIDTH 612 0
DWIDTH 17 0
BBX 17 23 4 -4
BITMAP
000F80
781F00
F81E00
FC3C00
FC7C00
7C7800
7CF000
7FF000
3FE000
3FC000
3FC000
1F8000
1F0000
1F0000
1F0000
1F0000
1E0000
1E0000
1E0000
000000
000000
0C0000
1C0000
ENDCHAR
STARTCHAR 1EF6
ENCODING 7926
SWIDTH 612 0
DWIDTH 17 0
BBX 17 24 4 0
BITMAP
01F800
03F800
007800
01E000
000000
000F80
781F00
F81E00
FC3C00
FC7C00
7C7800
7CF000
7FF000
3FE000
3FC000
3FC000
1F8000
1F0000
1F0000
1F0000
1F0000
1E0000
1E0000
1E0000
ENDCHAR
STARTCHAR 1EF7
ENCODING 7927
SWIDTH 612 0
DWIDTH 17 0
BBX 17 24 4 0
BITMAP
01F800
03F800
007800
01E000
000000
000F80
781F00
F81E00
FC3C00
FC7C00
7C7800
7CF000
7FF000
3FE000
3FC000
3FC000
1F8000
1F0000
1F0000
1F0000
1F0000
1E0000
1E0000
1E0000
ENDCHAR
STARTCHAR 1EF8
ENCODING 7928
SWIDTH 612 0
DWIDTH 17 0
BBX 17 24 4 0
BITMAP
019C00
03F800
07F800
06F000
000000
000F80
781F00
F81E00
FC3C00
FC7C00
7C7800
7CF000
7FF000
3FE000
3FC000
3FC000
1F8000
1F0000
1F0000
1F0000
1F0000
1E0000
1E0000
1E0000
ENDCHAR
STARTCHAR 1EF9
ENCODING 7929
SWIDTH 612 0
DWIDTH 17 0
BBX 17 24 4 0
BITMAP
019C00
03F800
07F800
06F000
000000
000F80
781F00
F81E00
FC3C00
FC7C00
7C7800
7CF000
7FF000
3FE000
3FC000
3FC000
1F8000
1F0000
1F0000
1F0000
1F0000
1E0000
1E0000
1E0000
ENDCHAR
STARTCHAR 1F70
ENCODING 8048
SWIDTH 612 0
DWIDTH 17 0
BBX 17 21 0 -1
BITMAP
038000
018600
01DE00
00DE00
003E00
003E00
007E00
007E00
00FE00
01FE00
01FE00
03BE00
073F00
061F00
0FFF00
1FFF00
1F3F00
3E3F00
7C3F80
7C3F80
C00000
ENDCHAR
STARTCHAR 1F72
ENCODING 8050
SWIDTH 612 0
DWIDTH 17 0
BBX 14 20 4 0
BITMAP
E000
E7FC
6FFC
6FF8
0FF8
0FF8
0FD0
0F00
0F10
0FE0
0FE0
0F80
0F00
0FF8
1FF8
1FF8
1FF8
1FF8
1FE0
1E00
ENDCHAR
STARTCHAR 1F74
ENCODING 8052
SWIDTH 612 0
DWIDTH 17 0
BBX 18 20 3 0
BITMAP
700000
71E000
37E7C0
37E7C0
07C7C0
0FCF80
0FCF80
0FCF80
0FFF00
1FFF00
1FFF00
1FFF00
3FFF00
3FFE00
3F3E00
7E7E00
7E7C00
7E7C00
FE7C00
288000
ENDCHAR
STARTCHAR 1F76
ENCODING 8054
SWIDTH 396 0
DWIDTH 11 0
BBX 12 20 2 0
BITMAP
3800
39E0
1BF0
1BF0
07E0
07E0
07E0
0FC0
0FC0
0FC0
0FC0
1F80
1F80
1F80
1F80
3F80
3F00
3F00
7E00
F000
ENDCHAR
STARTCHAR 1F78
ENCODING 8056
SWIDTH 576 0
DWIDTH 16 0
BBX 14 20 4 0
BITMAP
E000
E780
6FE0
6FF0
1FF0
3FF8
3FF8
7FFC
FC7C
F87C
F8FC
F8FC
FDF8
FFF8
FFF8
FFF0
FFF0
FFE0
7FC0
3F00
ENDCHAR
STARTCHAR 1F7A
ENCODING 8058
SWIDTH 720 0
DWIDTH 20 0
BBX 20 20 4 0
BITMAP
E00000
E001F0
6F03E0
7F03C0
1F8780
0F8F80
0F8F00
0F9E00
0FFE00
07FC00
07F800
07F800
03F000
03E000
03E000
03E000
03E000
03E000
03C000
03C000
ENDCHAR
STARTCHAR 1F7C
ENCODING 8060
SWIDTH 648 0
DWIDTH 18 0
BBX 19 20 2 0
BITMAP
380000
39FF00
1BFF80
1FFFC0
0FFFC0
0FFFC0
1F87E0
1F03E0
1F03C0
1E03C0
1E03C0
1E03C0
1E0780
1E0780
1E0F00
0F1E00
7F3F80
7F3F80
7F3F80
FE3F00
ENDCHAR
STARTCHAR 1FBA
ENCODING 8122
SWIDTH 612 0
DWIDTH 17 0
BBX 17 21 0 -1
BITMAP
038000
018600
01DE00
00DE00
003E00
003E00
007E00
007E00
00FE00
01FE00
01FE00
03BE00
073F00
061F00
0FFF00
1FFF00
1F3F00
3E3F00
7C3F80
7C3F80
C00000
ENDCHAR
STARTCHAR 1FC0
ENCODING 8128
SWIDTH 324 0
DWIDTH 9 0
BBX 9 4 5 20
BITMAP
3380
7F00
FF00
DE00
ENDCHAR
STARTCHAR 1FC6
ENCODING 8134
SWIDTH 540 0
DWIDTH 15 0
BBX 18 24 1 0
BITMAP
0019C0
003F80
007F80
006F00
000000
01E000
07E7C0
07E7C0
07C780
0FCF80
0FCF80
0F8F80
1FFF00
1FFF00
1FFF00
3FFF00
3FFF00
3FFE00
3E7E00
7E7E00
7E7C00
7E7C00
FC7C00
088000
ENDCHAR
STARTCHAR 1FC8
ENCODING 8136
SWIDTH 612 0
DWIDTH 17 0
BBX 14 20 4 0
BITMAP
E000
E7FC
6FFC
6FF8
0FF8
0FF8
0FD0
0F00
0F10
0FE0
0FE0
0F80
0F00
0FF8
1FF8
1FF8
1FF8
1FF8
1FE0
1E00
ENDCHAR
STARTCHAR 1FCA
ENCODING 8138
SWIDTH 612 0
DWIDTH 17 0
BBX 18 20 3 0
BITMAP
700000
71E000
37E7C0
37E7C0
07C7C0
0FCF80
0FCF80
0FCF80
0FFF00
1FFF00
1FFF00
1FFF00
3FFF00
3FFE00
3F3E00
7E7E00
7E7C00
7E7C00
FE7C00
288000
ENDCHAR
STARTCHAR 1FDA
ENCODING 8154
SWIDTH 396 0
DWIDTH 11 0
BBX 12 20 2 0
BITMAP
3800
39E0
1BF0
1BF0
07E0
07E0
07E0
0FC0
0FC0
0FC0
0FC0
1F80
1F80
1F80
1F80
3F80
3F00
3F00
7E00
F000
ENDCHAR
STARTCHAR 1FEA
ENCODING 8170
SWIDTH 720 0
DWIDTH 20 0
BBX 20 20 4 0
BITMAP
E00000
E001F0
6F03E0
7F03C0
1F8780
0F8F80
0F8F00
0F9E00
0FFE00
07FC00
07F800
07F800
03F000
03E000
03E000
03E000
03E000
03E000
03C000
03C000
ENDCHAR
STARTCHAR 1FEF
ENCODING 8175
SWIDTH 144 0
DWIDTH 4 0
BBX 3 4 5 16
BITMAP
C0
E0
E0
60
ENDCHAR
STARTCHAR 1FF6
ENCODING 8182
SWIDTH 612 0
DWIDTH 17 0
BBX 18 24 1 0
BITMAP
006700
00FF00
01FE00
01FC00
000000
03FE00
07FF00
0FFF80
0FFF80
1FFFC0
1F8FC0
3E07C0
3E07C0
3C07C0
3C0780
3C0780
3C0780
3C0F00
3E1E00
1E3C00
FE3F00
FE7F00
FE7F00
FE7F00
ENDCHAR
STARTCHAR 1FF8
ENCODING 8184
SWIDTH 576 0
DWIDTH 16 0
BBX 14 20 4 0
BITMAP
E000
E780
6FE0
6FF0
1FF0
3FF8
3FF8
7FFC
FC7C
F87C
F8FC
F8FC
FDF8
FFF8
FFF8
FFF0
FFF0
FFE0
7FC0
3F00
ENDCHAR
STARTCHAR 1FFA
ENCODING 8186
SWIDTH 648 0
DWIDTH 18 0
BBX 19 20 2 0
BITMAP
380000
39FF00
1BFF80
1FFFC0
0FFFC0
0FFFC0
1F87E0
1F03E0
1F03C0
1E03C0
1E03C0
1E03C0
1E0780
1E0780
1E0F00
0F1E00
7F3F80
7F3F80
7F3F80
FE3F00
ENDCHAR
STARTCHAR 200B
ENCODING 8203
SWIDTH 0 0
DWIDTH 0 0
BBX 0 0 0 0
BITMAP
ENDCHAR
STARTCHAR 2010
ENCODING 8208
SWIDTH 288 0
DWIDTH 8 0
BBX 8 4 2 8
BITMAP
7F
7F
FF
FF
ENDCHAR
STARTCHAR 2011
ENCODING 8209
SWIDTH 360 0
DWIDTH 10 0
BBX 11 4 2 8
BITMAP
FFE0
FFE0
FFE0
FFE0
ENDCHAR
STARTCHAR 2012
ENCODING 8210
SWIDTH 468 0
DWIDTH 13 0
BBX 13 4 2 8
BITMAP
7FF8
7FF8
7FF8
FFF8
ENDCHAR
STARTCHAR 2013
ENCODING 8211
SWIDTH 468 0
DWIDTH 13 0
BBX 13 4 2 8
BITMAP
7FF8
7FF8
FFF8
FFF8
ENDCHAR
STARTCHAR 2014
ENCODING 8212
SWIDTH 576 0
DWIDTH 16 0
BBX 17 5 2 7
BITMAP
7FFF80
7FFF00
7FFF00
FFFF00
180000
ENDCHAR
STARTCHAR 2015
ENCODING 8213
SWIDTH 684 0
DWIDTH 19 0
BBX 20 4 2 8
BITMAP
3FFFF0
7FFFE0
FFFFE0
FFFFE0
ENDCHAR
STARTCHAR 2016
ENCODING 8214
SWIDTH 252 0
DWIDTH 7 0
BBX 12 28 0 -4
BITMAP
0360
0770
0760
0660
06E0
06E0
0EE0
0EC0
0CC0
0DC0
1DC0
1D80
1D80
1B80
1B80
3B80
3B80
3300
3700
7700
7700
7600
6600
6E00
EE00
EC00
EC00
CC00
ENDCHAR
STARTCHAR 2017
ENCODING 8215
SWIDTH 360 0
DWIDTH 10 0
BBX 10 6 0 -5
BITMAP
7FC0
FFC0
0000
FFC0
FFC0
FF80
ENDCHAR
STARTCHAR 2018
ENCODING 8216
SWIDTH 180 0
DWIDTH 5 0
BBX 6 10 3 10
BITMAP
0C
1C
3C
3C
78
78
F8
F8
F0
F0
ENDCHAR
STARTCHAR 2019
ENCODING 8217
SWIDTH 180 0
DWIDTH 5 0
BBX 6 10 3 10
BITMAP
3C
3C
3C
7C
78
78
F0
F0
E0
40
ENDCHAR
STARTCHAR 201A
ENCODING 8218
SWIDTH 180 0
DWIDTH 5 0
BBX 6 10 0 -5
BITMAP
3C
3C
7C
7C
78
78
F0
F0
E0
40
ENDCHAR
STARTCHAR 201B
ENCODING 8219
SWIDTH 180 0
DWIDTH 5 0
BBX 5 10 4 10
BITMAP
78
F8
F8
F0
F0
F0
F0
F0
60
40
ENDCHAR
STARTCHAR 201C
ENCODING 8220
SWIDTH 396 0
DWIDTH 11 0
BBX 11 10 3 10
BITMAP
0C60
1CE0
3DE0
3DE0
7BE0
7BC0
FFC0
FFC0
F780
F380
ENDCHAR
STARTCHAR 201D
ENCODING 8221
SWIDTH 396 0
DWIDTH 11 0
BBX 12 10 3 10
BITMAP
3DF0
3DE0
3DE0
7DE0
7BE0
7BC0
F3C0
F780
E300
4300
ENDCHAR
STARTCHAR 201E
ENCODING 8222
SWIDTH 396 0
DWIDTH 11 0
BBX 11 10 0 -5
BITMAP
3DE0
3DE0
7DE0
7FE0
7BC0
7BC0
F780
F780
E700
4200
ENDCHAR
STARTCHAR 201F
ENCODING 8223
SWIDTH 396 0
DWIDTH 11 0
BBX 10 10 4 10
BITMAP
7BC0
FBC0
FFC0
F7C0
F780
F780
F780
F780
6380
4200
ENDCHAR
STARTCHAR 2020
ENCODING 8224
SWIDTH 468 0
DWIDTH 13 0
BBX 13 27 4 -4
BITMAP
0380
0780
0780
0780
07F8
FFF8
FFF0
FFF0
0F00
0F00
1E00
1E00
1E00
1E00
3E00
3C00
3C00
3C00
3C00
7800
7800
7800
7800
7800
F000
F000
7000
ENDCHAR
STARTCHAR 2021
ENCODING 8225
SWIDTH 468 0
DWIDTH 13 0
BBX 16 27 1 -4
BITMAP
0078
00F0
00F0
00F0
0FFF
1FFF
1FFF
1FFE
01E0
01E0
03C0
03C0
03C0
03C0
07C0
07C0
0780
0780
0FF8
FFF8
FFF0
FFF0
0F00
0F00
1E00
1E00
1E00
ENDCHAR
STARTCHAR 2022
ENCODING 8226
SWIDTH 288 0
DWIDTH 8 0
BBX 8 8 2 6
BITMAP
04
3E
7F
7F
FF
FF
7E
78
ENDCHAR
STARTCHAR 2023
ENCODING 8227
SWIDTH 288 0
DWIDTH 8 0
BBX 8 7 2 7
BITMAP
70
7C
7F
7F
FC
F0
C0
ENDCHAR
STARTCHAR 2024
ENCODING 8228
SWIDTH 180 0
DWIDTH 5 0
BBX 5 5 1 0
BITMAP
70
F8
F8
F8
F0
ENDCHAR
STARTCHAR 2025
ENCODING 8229
SWIDTH 360 0
DWIDTH 10 0
BBX 10 5 1 0
BITMAP
31C0
FBC0
FFC0
F7C0
E380
ENDCHAR
STARTCHAR 2026
ENCODING 8230
SWIDTH 576 0
DWIDTH 16 0
BBX 16 5 1 0
BITMAP
718E
F3DF
F7DE
F7DE
E39C
ENDCHAR
STARTCHAR 2027
ENCODING 8231
SWIDTH 180 0
DWIDTH 5 0
BBX 6 5 2 7
BITMAP
38
7C
F8
F8
70
ENDCHAR
STARTCHAR 202F
ENCODING 8239
SWIDTH 144 0
DWIDTH 4 0
BBX 0 0 0 0
BITMAP
ENDCHAR
STARTCHAR 2030
ENCODING 8240
SWIDTH 612 0
DWIDTH 17 0
BBX 17 19 2 0
BITMAP
040700
1F0E00
3F0E00
331C00
733800
737800
7E7000
3EE000
11C000
039300
07FF80
07FF80
0EDD80
1CD980
38DB00
78FF00
F0EE00
E00000
C00000
ENDCHAR
STARTCHAR 2031
ENCODING 8241
SWIDTH 720 0
DWIDTH 20 0
BBX 19 19 2 0
BITMAP
040700
1F0E00
3F0E00
331C00
733800
737800
7E7000
3EE000
11C000
03B640
07FFE0
07FFE0
0EDB60
1CDB60
38FB60
78FFC0
F0FF80
E00800
C00000
ENDCHAR
STARTCHAR 2039
ENCODING 8249
SWIDTH 252 0
DWIDTH 7 0
BBX 7 12 2 0
BITMAP
02
06
0E
3C
7C
F8
C0
F0
FC
78
38
18
ENDCHAR
STARTCHAR 203A
ENCODING 8250
SWIDTH 252 0
DWIDTH 7 0
BBX 7 13 1 0
BITMAP
20
30
38
7C
7E
1E
0E
3E
7C
F0
E0
C0
80
ENDCHAR
STARTCHAR 203C
ENCODING 8252
SWIDTH 468 0
DWIDTH 13 0
BBX 15 21 2 -1
BITMAP
001E
1F7E
3F7E
3F7C
3E7C
3E7C
3E78
3C78
3CF8
3CF0
78F0
78F0
78F0
78E0
6000
0000
20C0
F1E0
F1E0
F1C0
E1C0
ENDCHAR
STARTCHAR 203E
ENCODING 8254
SWIDTH 360 0
DWIDTH 10 0
BBX 10 3 5 19
BITMAP
FFC0
FFC0
FFC0
ENDCHAR
STARTCHAR 2043
ENCODING 8259
SWIDTH 288 0
DWIDTH 8 0
BBX 8 4 2 8
BITMAP
7F
7F
FF
FF
ENDCHAR
STARTCHAR 2044
ENCODING 8260
SWIDTH 396 0
DWIDTH 11 0
BBX 14 20 1 0
BITMAP
003C
007C
0078
00F8
00F0
01F0
01E0
03E0
03C0
0780
0780
0F00
1F00
1E00
3C00
3C00
7800
7000
F000
E000
ENDCHAR
STARTCHAR 2045
ENCODING 8261
SWIDTH 324 0
DWIDTH 9 0
BBX 14 26 0 -3
BITMAP
07FC
07FC
07FC
0780
0F00
0F00
0F00
0F00
1F00
1E00
1E00
1FF0
1FE0
3FE0
3C00
3C00
3C00
3C00
7800
7800
7800
7800
FF80
FF80
FF80
FF80
ENDCHAR
STARTCHAR 2046
ENCODING 8262
SWIDTH 324 0
DWIDTH 9 0
BBX 14 27 0 -4
BITMAP
0010
07FC
07FC
07FC
0678
0078
0078
00F8
00F0
00F0
00F0
00F0
1FF0
3FE0
3FE0
01E0
01E0
03C0
03C0
03C0
03C0
0780
0780
FF80
FF80
FF80
FF00
ENDCHAR
STARTCHAR 2047
ENCODING 8263
SWIDTH 684 0
DWIDTH 19 0
BBX 19 20 3 0
BITMAP
0E07C0
3F8FE0
3FDFE0
7FDFE0
77BCE0
6390E0
0381E0
0781C0
0F07C0
3F0F80
3C1F00
781E00
701C00
701C00
000000
000000
603800
E03800
E03800
E03000
ENDCHAR
STARTCHAR 2048
ENCODING 8264
SWIDTH 576 0
DWIDTH 16 0
BBX 17 21 3 0
BITMAP
000780
0E1F80
3F9F80
3FDF00
7FDF00
779F00
639E00
039E00
07BE00
0F3C00
3F3C00
3C3C00
783C00
703800
700000
000000
003000
607800
E07800
E07000
E07000
ENDCHAR
STARTCHAR 2049
ENCODING 8265
SWIDTH 576 0
DWIDTH 16 0
BBX 17 20 2 -1
BITMAP
1F1F00
3F3F80
3F7F80
3E7F80
3E7380
3E4380
3C0780
3C0700
3C1F00
783E00
787C00
787800
787000
607000
000000
200000
F0E000
F0E000
F0E000
E0C000
ENDCHAR
STARTCHAR 204B
ENCODING 8267
SWIDTH 396 0
DWIDTH 11 0
BBX 14 22 0 -2
BITMAP
07E0
07F8
0FFC
0FFC
0CFC
0CFC
1CF8
1DF8
1DF8
1DF8
19F0
3BE0
3B80
3B80
3B80
7300
7700
7700
7700
6700
EE00
EE00
ENDCHAR
STARTCHAR 204F
ENCODING 8271
SWIDTH 180 0
DWIDTH 5 0
BBX 7 18 1 -5
BITMAP
08
3E
3E
3E
3C
00
00
00
00
70
78
F8
F0
F0
60
78
78
70
ENDCHAR
STARTCHAR 2052
ENCODING 8274
SWIDTH 468 0
DWIDTH 13 0
BBX 16 19 1 0
BITMAP
0007
000F
0C0E
1E1C
1E38
3E78
1C70
00E0
01C0
03C0
0780
0738
0E78
1C78
3878
7870
F000
E000
C000
ENDCHAR
STARTCHAR 2070
ENCODING 8304
SWIDTH 216 0
DWIDTH 6 0
BBX 6 9 3 11
BITMAP
38
3C
7C
6C
EC
F8
78
78
70
ENDCHAR
STARTCHAR 2074
ENCODING 8308
SWIDTH 216 0
DWIDTH 6 0
BBX 6 10 3 9
BITMAP
18
30
30
60
7C
FC
10
30
30
70
ENDCHAR
STARTCHAR 2075
ENCODING 8309
SWIDTH 252 0
DWIDTH 7 0
BBX 7 9 3 9
BITMAP
1E
38
30
3C
1C
0E
0C
9C
F8
ENDCHAR
STARTCHAR 2076
ENCODING 8310
SWIDTH 252 0
DWIDTH 7 0
BBX 7 10 3 9
BITMAP
0E
1E
30
70
7C
EE
CE
CC
FC
30
ENDCHAR
STARTCHAR 2077
ENCODING 8311
SWIDTH 216 0
DWIDTH 6 0
BBX 7 9 3 10
BITMAP
3E
7C
7C
1C
18
38
70
F0
F0
ENDCHAR
STARTCHAR 2078
ENCODING 8312
SWIDTH 252 0
DWIDTH 7 0
BBX 7 10 3 10
BITMAP
08
3C
34
3C
3C
6C
E6
EE
FC
78
ENDCHAR
STARTCHAR 2079
ENCODING 8313
SWIDTH 216 0
DWIDTH 6 0
BBX 7 10 3 9
BITMAP
38
7E
66
66
7E
3C
0C
DC
F8
20
ENDCHAR
STARTCHAR 2080
ENCODING 8320
SWIDTH 216 0
DWIDTH 6 0
BBX 6 10 1 0
BITMAP
10
38
7C
6C
6C
C8
F8
F8
70
70
ENDCHAR
STARTCHAR 2081
ENCODING 8321
SWIDTH 216 0
DWIDTH 6 0
BBX 5 9 2 1
BITMAP
18
78
F8
78
30
70
70
70
F0
ENDCHAR
STARTCHAR 2082
ENCODING 8322
SWIDTH 252 0
DWIDTH 7 0
BBX 7 10 1 0
BITMAP
18
3C
7C
0C
08
18
3E
7C
FC
70
ENDCHAR
STARTCHAR 2083
ENCODING 8323
SWIDTH 252 0
DWIDTH 7 0
BBX 6 9 1 0
BITMAP
38
18
30
7C
3C
04
0C
F8
70
ENDCHAR
STARTCHAR 2084
ENCODING 8324
SWIDTH 216 0
DWIDTH 6 0
BBX 6 9 1 0
BITMAP
30
30
30
7C
7C
D0
30
30
70
ENDCHAR
STARTCHAR 2085
ENCODING 8325
SWIDTH 252 0
DWIDTH 7 0
BBX 7 9 1 1
BITMAP
1E
30
38
7C
0C
0C
0C
FC
F8
ENDCHAR
STARTCHAR 2086
ENCODING 8326
SWIDTH 252 0
DWIDTH 7 0
BBX 7 10 1 -1
BITMAP
0E
3E
70
70
FC
EC
CC
CC
F8
30
ENDCHAR
STARTCHAR 2087
ENCODING 8327
SWIDTH 216 0
DWIDTH 6 0
BBX 7 9 1 1
BITMAP
3E
7E
7C
0C
18
38
78
70
F0
ENDCHAR
STARTCHAR 2088
ENCODING 8328
SWIDTH 252 0
DWIDTH 7 0
BBX 7 10 1 0
BITMAP
0C
3C
34
38
7C
6C
CE
EC
FC
78
ENDCHAR
STARTCHAR 2089
ENCODING 8329
SWIDTH 216 0
DWIDTH 6 0
BBX 7 9 1 0
BITMAP
3E
66
66
7E
3C
0C
DC
F8
70
ENDCHAR
STARTCHAR 20A0
ENCODING 8352
SWIDTH 540 0
DWIDTH 15 0
BBX 14 19 3 0
BITMAP
07C0
1FE0
3FE0
7E00
7800
F1F8
F3FC
F3FC
F3FC
F380
FFF0
FFE0
7FE0
1F00
0700
0FF0
0FF0
0FF0
0C00
ENDCHAR
STARTCHAR 20A4
ENCODING 8356
SWIDTH 540 0
DWIDTH 15 0
BBX 17 19 1 0
BITMAP
003C00
007F00
01FF00
01FF80
03EF80
07EF00
07C000
3FFC00
3FFC00
7FFC00
0F8000
7FF800
7FF800
1FB000
7FC000
FFFC00
FFFC00
FFFC00
3FF800
ENDCHAR
ENDFONT
